<svg width="28" height="28" viewBox="0 0 28 28" fill="none" xmlns="http://www.w3.org/2000/svg">
<path fill-rule="evenodd" clip-rule="evenodd" d="M17.2576 4.07312C16.3996 4.28804 15.6091 4.95001 15.2039 5.79292C15.0833 6.0439 14.9846 6.29063 14.9846 6.34119C14.9846 6.43074 14.8213 6.43347 8.76314 6.44606C2.96075 6.45806 2.53165 6.46465 2.39307 6.54361C2.16169 6.67542 2.03356 6.90063 2.01265 7.21217C1.99124 7.53141 2.10601 7.75404 2.37779 7.9203C2.54032 8.01971 2.59295 8.02073 8.74317 8.04493L14.9447 8.06933L15.0735 8.41396C15.4311 9.37112 16.2921 10.1638 17.2372 10.4061C17.634 10.5078 18.3745 10.5087 18.7478 10.408C19.7945 10.1256 20.6498 9.29045 20.9806 8.22793L21.0376 8.04493H23.2033C25.3568 8.04493 25.3701 8.0443 25.5754 7.93514C25.8808 7.77258 25.9747 7.6112 25.9747 7.24838C25.9747 7.01092 25.9515 6.91312 25.8655 6.78761C25.6357 6.45206 25.6999 6.46046 23.2504 6.44494L21.0416 6.43093L20.9437 6.15131C20.5768 5.10358 19.6195 4.24602 18.5899 4.04267C18.2467 3.97489 17.5898 3.98992 17.2576 4.07312ZM18.3838 5.63179C19.109 5.82845 19.5806 6.4546 19.583 7.22373C19.5854 8.01673 19.1404 8.6361 18.4085 8.85828C18.0963 8.95305 17.6529 8.92084 17.3501 8.78137C17.0528 8.64449 16.6559 8.23623 16.525 7.93279C16.3724 7.57919 16.3678 6.9061 16.5155 6.57235C16.7177 6.11588 17.1771 5.72373 17.6441 5.60914C17.9108 5.54366 18.0778 5.54878 18.3838 5.63179ZM9.4695 10.7825C8.40297 10.9679 7.40533 11.8509 7.05482 12.9197L6.95716 13.2177H4.74461H2.53212L2.37399 13.3287C1.87534 13.6786 1.87534 14.3184 2.37399 14.6683L2.53212 14.7793H4.74461H6.95716L7.05482 15.0773C7.54298 16.5659 9.10465 17.5053 10.5813 17.1987C11.6849 16.9695 12.5731 16.183 12.949 15.102L13.0527 14.8037L19.2876 14.7793C25.5225 14.7549 25.5226 14.7549 25.6549 14.6528C26.115 14.2978 26.115 13.6992 25.6549 13.3442C25.5226 13.2421 25.5225 13.2421 19.2876 13.2177L13.0527 13.1933L12.949 12.895C12.4343 11.415 10.9645 10.5226 9.4695 10.7825ZM10.6771 12.476C11.004 12.6408 11.249 12.8862 11.4261 13.2262C11.5771 13.5162 11.5868 13.563 11.5868 13.9985C11.5868 14.434 11.5771 14.4808 11.4261 14.7708C11.1337 15.3322 10.7024 15.615 10.089 15.6473C9.61722 15.6721 9.27997 15.5529 8.95112 15.2451C8.22872 14.5688 8.22877 13.4282 8.95126 12.7518C9.28569 12.4387 9.57462 12.3353 10.0643 12.3535C10.3583 12.3644 10.5197 12.3967 10.6771 12.476ZM17.1871 17.6037C16.2535 17.8662 15.425 18.642 15.0735 19.583L14.9447 19.9277L8.71608 19.9521L2.4875 19.9765L2.31536 20.1132C2.07231 20.3063 1.98805 20.4991 2.01251 20.8063C2.03571 21.0976 2.17031 21.3265 2.39307 21.4534C2.53165 21.5324 2.96075 21.5389 8.76314 21.5509C14.8213 21.5635 14.9846 21.5663 14.9846 21.6558C14.9846 21.7064 15.0833 21.9531 15.2039 22.2041C15.6143 23.0578 16.4051 23.7137 17.281 23.9269C17.6256 24.0107 18.233 24.0248 18.5767 23.9569C19.6068 23.7535 20.5222 22.9502 20.9166 21.9036L21.0438 21.5661L23.2515 21.5521C25.2426 21.5394 25.4737 21.5298 25.6078 21.4534C25.8305 21.3265 25.9651 21.0976 25.9883 20.8063C26.0128 20.4991 25.9285 20.3063 25.6855 20.1132L25.5134 19.9765L23.275 19.9629L21.0367 19.9493L20.9802 19.7677C20.6499 18.7067 19.7939 17.8713 18.7478 17.589C18.3612 17.4848 17.5841 17.492 17.1871 17.6037ZM18.4324 19.1452C19.1425 19.3648 19.5854 19.9914 19.583 20.7733C19.5819 21.1498 19.495 21.4289 19.2808 21.745C18.9818 22.1859 18.3323 22.4852 17.8194 22.4185C17.2809 22.3484 16.7431 21.9385 16.5155 21.4247C16.3684 21.0924 16.3716 20.4154 16.5219 20.0741C16.6393 19.8075 16.931 19.4691 17.185 19.3047C17.5269 19.0834 18.0263 19.0196 18.4324 19.1452Z" fill="black"/>
</svg>
