<svg width="159" height="49" viewBox="0 0 159 49" fill="none" xmlns="http://www.w3.org/2000/svg">
<path fill-rule="evenodd" clip-rule="evenodd" d="M23.0214 0.00720605C19.898 0.220814 17.0751 0.929202 14.2806 2.20075C13.5958 2.51229 13.4695 2.57578 12.7505 2.96992C9.86145 4.55343 7.35534 6.66473 5.30798 9.23996C2.13479 13.2313 0.312222 18.0386 0.0195707 23.1891C-0.0180659 23.8516 0.00181067 25.7714 0.051688 26.2899C0.223796 28.0791 0.359462 28.9466 0.668048 30.2312C1.20973 32.4865 2.07868 34.6746 3.22537 36.6711C3.75682 37.5965 4.22876 38.3222 4.29101 38.3098C4.35004 38.298 7.54465 35.1354 7.54465 35.0887C7.54465 35.0648 7.41862 34.8297 7.26462 34.5663C6.7675 33.7165 6.33194 32.8268 5.94337 31.8676C5.58723 30.9884 5.17611 29.6341 4.97656 28.6828C3.92998 23.6934 4.78462 18.5373 7.37226 14.2294C9.3295 10.971 12.1745 8.33351 15.5644 6.63464C16.6943 6.06846 17.7189 5.66472 18.906 5.31802C20.0612 4.98064 21.1213 4.77231 22.441 4.62328C23.0512 4.55438 23.3243 4.54386 24.4987 4.54386C25.6732 4.54386 25.9463 4.55438 26.5564 4.62328C27.8761 4.77231 28.9363 4.98064 30.0915 5.31802C31.2785 5.66472 32.3032 6.06846 33.433 6.63464C36.1935 8.01803 38.5909 10.0186 40.4561 12.4951C43.2135 16.1563 44.6376 20.72 44.4422 25.2693C44.3835 26.6373 44.1705 28.1768 43.8921 29.2459C43.3615 31.2834 42.6962 32.9246 41.7396 34.5561C41.5819 34.825 41.4528 35.0648 41.4528 35.0887C41.4528 35.1354 44.6474 38.298 44.7064 38.3098C44.8199 38.3324 45.9011 36.5159 46.4987 35.2987C47.9704 32.3012 48.7864 29.1595 48.9802 25.7444C49.0172 25.0924 48.996 23.2505 48.945 22.6828C48.8337 21.4451 48.7749 20.9998 48.5871 19.9731C47.6918 15.0792 45.2159 10.4443 41.6345 6.95784C37.9277 3.34945 33.3181 1.0466 28.2096 0.251112C26.9702 0.058126 26.316 0.0116389 24.7098 0.00248932C23.8876 -0.00219105 23.1278 -7.84342e-05 23.0214 0.00720605ZM20.7438 13.3308L17.0066 17.0699V15.1337V13.1976L16.7867 13.0789C16.1672 12.7446 15.6049 12.4393 15.1824 12.2075C14.9239 12.0657 14.7061 11.9496 14.6985 11.9496C14.6909 11.9496 14.487 11.8388 14.2454 11.7033C14.0037 11.5678 13.7862 11.4574 13.7619 11.458C13.7376 11.4585 13.6386 11.5858 13.5419 11.7409C13.4452 11.896 13.271 12.1688 13.155 12.3472C13.0389 12.5255 12.8181 12.8693 12.6642 13.1111C12.5104 13.3529 12.2879 13.7013 12.1697 13.8851C12.0516 14.069 11.8893 14.3224 11.8091 14.4482C11.7288 14.574 11.5053 14.9222 11.3124 15.222C11.1194 15.5217 10.9678 15.7732 10.9754 15.7808C10.983 15.7884 11.3894 15.573 11.8786 15.302C12.3678 15.031 12.8472 14.7658 12.9439 14.7125C13.0407 14.6592 13.2009 14.57 13.3 14.5143C13.399 14.4586 13.49 14.413 13.5022 14.413C13.5143 14.413 13.5238 16.6419 13.5232 19.3661L13.5221 24.3192L13.4192 24.0729C13.3626 23.9374 13.1961 23.5177 13.0492 23.1403C12.5817 21.9397 12.4916 21.7159 12.4615 21.6808C12.4441 21.6604 11.4033 22.6759 9.8829 24.1969C7.52527 26.5554 7.3336 26.756 7.3336 26.8647C7.3336 27.0622 7.50761 28.1235 7.63459 28.7004C7.83076 29.592 8.05398 30.3355 8.39334 31.2284C8.56591 31.6824 8.91631 32.4659 8.94684 32.4659C8.95912 32.4659 12.4633 28.9701 16.7339 24.6975L24.4987 16.9292L32.2708 24.7048C36.5455 28.9814 40.0511 32.4723 40.0612 32.4623C40.0935 32.4299 40.3658 31.8251 40.5111 31.4629C40.8595 30.5946 41.1416 29.6882 41.3491 28.7708C41.4676 28.2465 41.6634 27.0639 41.6637 26.8705C41.6639 26.7534 41.2377 26.321 33.09 18.1696C28.3745 13.4518 24.5084 9.59186 24.4987 9.59186C24.489 9.59186 22.7993 11.2744 20.7438 13.3308ZM22.9967 23.3514C22.6732 23.4362 22.2855 23.6064 22.0571 23.764C21.6415 24.0507 21.1963 24.5739 21.0135 24.9905C20.8935 25.2639 20.7702 25.7744 20.7702 25.9977V26.2019H22.23H23.6897V24.7415V23.2811L23.4699 23.283C23.349 23.2841 23.136 23.3148 22.9967 23.3514ZM25.3077 24.7415V26.2019H26.7675H28.2272V25.9977C28.2272 25.7744 28.1039 25.2639 27.9839 24.9905C27.8011 24.5739 27.3559 24.0507 26.9403 23.764C26.5618 23.5029 25.9063 23.2811 25.5132 23.2811H25.3077V24.7415ZM20.7702 28.9116V30.3896H22.23H23.6897V28.9116V27.4336H22.23H20.7702V28.9116ZM25.3077 28.9116V30.3896H26.7675H28.2272V28.9116V27.4336H26.7675H25.3077V28.9116ZM30.2512 31.6296C30.2415 31.6734 30.2293 31.7647 30.2241 31.8324L30.2146 31.9556L29.1874 31.9732C28.5739 31.9837 28.1462 32.005 28.1254 32.026C28.1062 32.0453 28.0857 32.1483 28.0797 32.2547L28.0689 32.4483L24.657 32.4683C21.0524 32.4895 21.1083 32.4871 20.3657 32.6577C19.5805 32.8381 18.5471 33.2991 17.7765 33.8127C16.6775 34.5451 15.5073 35.7273 14.6946 36.926C14.5471 37.1435 14.4341 37.3291 14.4433 37.3384C14.4525 37.3476 14.6789 37.2453 14.9463 37.1111C16.2428 36.4601 17.7398 36.0052 18.9913 35.882C20.0917 35.7736 21.3833 35.907 21.8429 36.1765C22.4475 36.531 22.8197 37.5186 22.9138 39.0175C22.9467 39.5423 22.9859 39.6582 23.1669 39.7652L23.2676 39.8247V42.1325V44.4404L22.9598 44.4166C18.8755 44.1005 15.0268 42.5531 11.8359 39.9438C10.9522 39.2212 10.0657 38.3489 9.26622 37.415L8.93896 37.0328L8.65606 37.327C5.81407 40.2829 5.8211 40.2755 5.8211 40.3313C5.8211 40.3825 6.55808 41.1914 7.12256 41.7598C9.25954 43.9117 11.5967 45.5399 14.4007 46.83C18.5456 48.7369 23.491 49.4267 28.0865 48.7387C32.922 48.0148 37.2783 45.9551 40.9428 42.6599C41.6817 41.9955 43.1763 40.4296 43.1763 40.3199C43.1763 40.2996 42.9429 40.0402 42.6575 39.7433C42.0394 39.1003 40.7755 37.7818 40.3578 37.3443L40.0597 37.0322L39.7325 37.4147C36.9682 40.6461 33.3731 42.88 29.3164 43.887C28.5757 44.0709 27.6565 44.2403 26.9433 44.3243C26.7692 44.3449 26.5753 44.3683 26.5125 44.3764L26.3981 44.3911V42.1053V39.8196L26.5125 39.7645C26.6795 39.684 26.761 39.5541 26.7739 39.3481C26.8477 38.1658 26.9097 37.7461 27.0875 37.224C27.2526 36.7393 27.541 36.2855 27.8182 36.0739C27.9181 35.9978 27.9545 35.9871 28.0115 36.0176C28.05 36.0382 28.0867 36.0908 28.0928 36.1344L28.1041 36.2137L29.1212 36.223C29.7999 36.2293 30.1539 36.2453 30.1852 36.2713C30.2133 36.2946 30.2322 36.3835 30.2322 36.4924C30.2322 36.5927 30.2511 36.6937 30.2744 36.7169C30.3398 36.7824 32.882 36.777 32.9365 36.7113C32.9654 36.6764 32.9738 35.9686 32.9672 34.1159L32.9582 31.5685L31.6135 31.5593L30.2689 31.55L30.2512 31.6296Z" fill="url(#paint0_linear_36_4)"/>
<path d="M30.2246 31.834C30.2298 31.7663 30.242 31.675 30.2517 31.6312L30.2694 31.5516L31.614 31.5608L32.9587 31.5701L32.9677 34.1175C32.9743 35.9701 32.9659 36.678 32.937 36.7128C32.8825 36.7786 30.3403 36.784 30.2749 36.7185C30.2516 36.6952 30.2327 36.5942 30.2327 36.494C30.2327 36.3851 30.2138 36.2962 30.1857 36.2729C30.1544 36.2469 29.8004 36.2308 29.1217 36.2246L28.1046 36.2152L28.0933 36.136C28.0871 36.0924 28.0505 36.0398 28.0119 36.0192C27.955 35.9887 27.9186 35.9993 27.8187 36.0755C27.5415 36.2871 27.2531 36.7409 27.088 37.2255C26.9101 37.7477 26.8482 38.1674 26.7744 39.3497C26.7615 39.5557 26.68 39.6855 26.513 39.7661L26.3986 39.8212V42.1069V44.3927L26.513 44.3779C26.5758 44.3699 26.7697 44.3465 26.9438 44.3259C27.657 44.2418 28.5761 44.0725 29.3169 43.8886C33.3736 42.8816 36.9687 40.6477 39.733 37.4163L40.0602 37.0337L40.3583 37.3459C40.776 37.7834 42.0399 39.1019 42.658 39.7449C42.9434 40.0417 43.1768 40.3012 43.1768 40.3214C43.1768 40.4311 41.6822 41.9971 40.9433 42.6615C37.2788 45.9566 32.9225 48.0164 28.087 48.7403C23.4915 49.4282 18.5461 48.7385 14.4012 46.8316C11.5972 45.5415 9.26004 43.9133 7.12305 41.7614C6.55857 41.193 5.82159 40.384 5.82159 40.3329C5.82159 40.2771 5.81456 40.2845 8.65655 37.3286L8.93946 37.0343L9.26672 37.4166C10.0662 38.3504 10.9527 39.2228 11.8364 39.9454C15.0273 42.5547 18.876 44.1021 22.9603 44.4181L23.2681 44.442V42.1341V39.8263L23.1674 39.7667C22.9864 39.6598 22.9472 39.5438 22.9143 39.0191C22.8202 37.5201 22.448 36.5326 21.8434 36.1781C21.3838 35.9086 20.0922 35.7752 18.9917 35.8836C17.7403 36.0068 16.2433 36.4616 14.9468 37.1126C14.6794 37.2469 14.453 37.3492 14.4438 37.3399C14.4345 37.3307 14.5476 37.1451 14.6951 36.9275C15.5078 35.7288 16.678 34.5466 17.777 33.8142C18.5476 33.3006 19.581 32.8397 20.3662 32.6593C21.1088 32.4886 21.0529 32.4911 24.6575 32.4699L28.0694 32.4498L28.0802 32.2563C28.0862 32.1498 28.1067 32.0469 28.1259 32.0275C28.1467 32.0065 28.5744 31.9853 29.1879 31.9748L30.2151 31.9572L30.2246 31.834Z" fill="url(#paint1_linear_36_4)"/>
<path d="M55.0384 9.96243V7.94228H65.1755V9.96243H61.2262V20.5H58.9877V9.96243H55.0384ZM68.0778 20.5V7.94228H76.5224V9.96243H70.2981V12.9836H75.9764V15.0037H70.2981V18.4798H76.5224V20.5H68.0778ZM79.8826 20.5V7.94228H85.9249C87.9026 7.94228 88.8914 8.93112 88.8914 10.9088V13.3294C88.8914 15.2949 87.9026 16.2777 85.9249 16.2777H82.103V20.5H79.8826ZM82.103 14.2575H85.8703C86.4042 14.2575 86.6711 13.9906 86.6711 13.4568V10.745C86.6711 10.2233 86.4042 9.96243 85.8703 9.96243H82.103V14.2575ZM92.3451 20.5V7.94228H94.5654V18.4798H100.244V20.5H92.3451ZM102.955 17.5335V10.9088C102.955 8.93112 103.944 7.94228 105.921 7.94228H110.089C112.067 7.94228 113.056 8.93112 113.056 10.9088V17.5335C113.056 19.5112 112.067 20.5 110.089 20.5H105.921C103.944 20.5 102.955 19.5112 102.955 17.5335ZM105.175 17.6973C105.175 18.219 105.442 18.4798 105.976 18.4798H110.035C110.568 18.4798 110.835 18.219 110.835 17.6973V10.745C110.835 10.2233 110.568 9.96243 110.035 9.96243H105.976C105.442 9.96243 105.175 10.2233 105.175 10.745V17.6973ZM116.879 20.5V7.94228H121.702C124.978 7.94228 126.616 9.58631 126.616 12.8744V15.5679C126.616 18.856 124.978 20.5 121.702 20.5H116.879ZM119.099 18.4798H121.829C123.54 18.4798 124.395 17.6245 124.395 15.9137V12.5286C124.395 10.8178 123.54 9.96243 121.829 9.96243H119.099V18.4798ZM130.066 17.5335V10.9088C130.066 8.93112 131.055 7.94228 133.032 7.94228H137.2C139.178 7.94228 140.167 8.93112 140.167 10.9088V17.5335C140.167 19.5112 139.178 20.5 137.2 20.5H133.032C131.055 20.5 130.066 19.5112 130.066 17.5335ZM132.286 17.6973C132.286 18.219 132.553 18.4798 133.087 18.4798H137.146C137.679 18.4798 137.946 18.219 137.946 17.6973V10.745C137.946 10.2233 137.679 9.96243 137.146 9.96243H133.087C132.553 9.96243 132.286 10.2233 132.286 10.745V17.6973ZM143.99 20.5V7.94228H146.72L150.487 15.9865L154.255 7.94228H156.985V20.5H154.746V11.7278L151.434 18.7892H149.523L146.21 11.7278V20.5H143.99Z" fill="url(#paint2_linear_36_4)"/>
<path d="M59.6302 34.5991C59.5695 34.5991 59.5392 34.5658 59.5392 34.499V28.7389C59.5392 28.6721 59.5695 28.6388 59.6302 28.6388H60.2853C60.3521 28.6388 60.3854 28.6721 60.3854 28.7389V31.4506C60.3854 31.7236 60.3824 31.9602 60.3763 32.1604C60.3763 32.3545 60.3703 32.5274 60.3581 32.6791C60.3521 32.8307 60.346 32.9672 60.3399 33.0886C60.3339 33.2038 60.3278 33.316 60.3217 33.4252H60.3399C60.3945 33.316 60.4522 33.2038 60.5128 33.0886C60.5796 32.9733 60.6524 32.8398 60.7312 32.6882C60.8162 32.5365 60.9163 32.3606 61.0315 32.1604C61.1468 31.9602 61.2863 31.7236 61.4501 31.4506L63.0972 28.7025C63.1275 28.66 63.1639 28.6388 63.2064 28.6388H63.9617C64.0284 28.6388 64.0618 28.6721 64.0618 28.7389V34.499C64.0618 34.5658 64.0284 34.5991 63.9617 34.5991H63.3065C63.2397 34.5991 63.2064 34.5658 63.2064 34.499V31.8965C63.2064 31.672 63.2094 31.4597 63.2155 31.2595C63.2215 31.0532 63.2276 30.8621 63.2337 30.6862C63.2397 30.5103 63.2458 30.3495 63.2519 30.2039C63.264 30.0523 63.2731 29.9218 63.2792 29.8126H63.261C63.2064 29.9218 63.1457 30.0341 63.079 30.1493C63.0183 30.2646 62.9455 30.398 62.8606 30.5497C62.7756 30.7014 62.6695 30.8864 62.5421 31.1048C62.4147 31.3232 62.257 31.5871 62.0689 31.8965L60.4946 34.5354C60.4643 34.5779 60.4279 34.5991 60.3854 34.5991H59.6302ZM69.2501 34.5991C69.1833 34.5991 69.15 34.5658 69.15 34.499V30.2403C69.15 30.1797 69.1833 30.1493 69.2501 30.1493H69.9234C69.9841 30.1493 70.0144 30.1797 70.0144 30.2403V34.499C70.0144 34.5658 69.9841 34.5991 69.9234 34.5991H69.2501ZM66.4564 34.5991C66.3958 34.5991 66.3654 34.5658 66.3654 34.499V30.2403C66.3654 30.1797 66.3958 30.1493 66.4564 30.1493H67.1298C67.1965 30.1493 67.2299 30.1797 67.2299 30.2403V34.499C67.2299 34.5658 67.1965 34.5991 67.1298 34.5991H66.4564ZM67.0843 32.6973V31.9602H69.3138V32.6973H67.0843ZM72.3251 34.5991C72.2644 34.5991 72.2341 34.5658 72.2341 34.499V31.2686C72.2341 31.0987 72.228 30.9258 72.2159 30.7499C72.2098 30.5679 72.1946 30.4041 72.1704 30.2585C72.1582 30.1857 72.1916 30.1493 72.2705 30.1493H72.8802C72.9105 30.1493 72.9317 30.1524 72.9439 30.1584C72.9621 30.1645 72.9742 30.1827 72.9803 30.213C72.9924 30.304 73.0076 30.4011 73.0258 30.5042C73.044 30.6073 73.0561 30.7105 73.0622 30.8136C73.323 30.5527 73.5748 30.3586 73.8174 30.2312C74.0601 30.1038 74.324 30.0401 74.6091 30.0401C74.9185 30.0401 75.1672 30.1099 75.3553 30.2494C75.5434 30.3889 75.6768 30.5952 75.7557 30.8682C76.0348 30.5831 76.2987 30.3738 76.5474 30.2403C76.7961 30.1069 77.0661 30.0401 77.3573 30.0401C77.7698 30.0401 78.0792 30.1675 78.2854 30.4223C78.4978 30.671 78.6039 31.0441 78.6039 31.5416V34.499C78.6039 34.5658 78.5706 34.5991 78.5038 34.5991H77.8305C77.7698 34.5991 77.7395 34.5658 77.7395 34.499V31.6326C77.7395 31.3535 77.6879 31.1442 77.5848 31.0047C77.4877 30.8652 77.33 30.7954 77.1116 30.7954C76.9174 30.7954 76.7233 30.8561 76.5292 30.9774C76.3351 31.0927 76.1076 31.2716 75.8467 31.5143V34.499C75.8467 34.5658 75.8164 34.5991 75.7557 34.5991H75.0823C75.0156 34.5991 74.9822 34.5658 74.9822 34.499V31.6326C74.9822 31.3535 74.9307 31.1442 74.8275 31.0047C74.7305 30.8652 74.5727 30.7954 74.3543 30.7954C74.1663 30.7954 73.9721 30.8561 73.7719 30.9774C73.5778 31.0927 73.3534 31.2716 73.0986 31.5143V34.499C73.0986 34.5658 73.0652 34.5991 72.9985 34.5991H72.3251ZM82.5512 34.7083C81.9445 34.7083 81.4835 34.5688 81.168 34.2897C80.8526 34.0107 80.6948 33.6012 80.6948 33.0613V31.8237C80.6948 31.2413 80.8495 30.7984 81.1589 30.4951C81.4744 30.1918 81.9354 30.0401 82.5421 30.0401C83.1487 30.0401 83.6068 30.1888 83.9162 30.486C84.2316 30.7833 84.3893 31.214 84.3893 31.7782V32.488C84.3893 32.5486 84.359 32.579 84.2983 32.579H81.5502V32.8702C81.5502 33.2524 81.6321 33.5314 81.7959 33.7073C81.9597 33.8833 82.2236 33.9712 82.5876 33.9712C82.8606 33.9712 83.0699 33.9288 83.2155 33.8438C83.3671 33.7528 83.443 33.6194 83.443 33.4434C83.443 33.3767 83.4763 33.3433 83.5431 33.3433H84.2164C84.265 33.3433 84.2953 33.3706 84.3074 33.4252C84.3317 33.8317 84.1861 34.1472 83.8707 34.3716C83.5613 34.5961 83.1214 34.7083 82.5512 34.7083ZM81.5502 31.8965H83.534V31.851C83.534 31.4809 83.4521 31.211 83.2883 31.0411C83.1245 30.8652 82.8818 30.7772 82.5603 30.7772C82.2206 30.7772 81.9658 30.8682 81.7959 31.0502C81.6321 31.2261 81.5502 31.4961 81.5502 31.8601V31.8965ZM88.543 34.7083C88.3186 34.7083 88.082 34.678 87.8333 34.6173C87.5845 34.5567 87.3843 34.4778 87.2327 34.3807L87.2054 33.6618C87.3752 33.7589 87.5603 33.8347 87.7605 33.8893C87.9667 33.9379 88.1578 33.9621 88.3338 33.9621C88.6674 33.9621 88.9101 33.8651 89.0617 33.6709C89.2195 33.4707 89.2983 33.1735 89.2983 32.7792V31.7964C89.2983 31.4506 89.2377 31.1988 89.1163 31.0411C89.0011 30.8773 88.8221 30.7954 88.5794 30.7954C88.3732 30.7954 88.1639 30.8561 87.9516 30.9774C87.7453 31.0987 87.4814 31.308 87.1599 31.6053L87.1417 30.85C87.3419 30.668 87.5299 30.5163 87.7059 30.395C87.8818 30.2737 88.0577 30.1857 88.2337 30.1311C88.4157 30.0705 88.6067 30.0401 88.8069 30.0401C89.2559 30.0401 89.5926 30.1766 89.817 30.4496C90.0475 30.7226 90.1628 31.1412 90.1628 31.7054V32.8793C90.1628 33.4738 90.0233 33.9288 89.7442 34.2442C89.4712 34.5536 89.0708 34.7083 88.543 34.7083ZM86.5684 36.2826C86.5077 36.2826 86.4774 36.2492 86.4774 36.1825V31.1958C86.4774 31.0502 86.4713 30.8925 86.4592 30.7226C86.4471 30.5527 86.4319 30.398 86.4137 30.2585C86.4076 30.1857 86.438 30.1493 86.5047 30.1493H87.1235C87.1902 30.1493 87.2266 30.1797 87.2327 30.2403C87.2448 30.2828 87.2569 30.3434 87.2691 30.4223C87.2812 30.5012 87.2903 30.58 87.2964 30.6589C87.3024 30.7317 87.3024 30.7863 87.2964 30.8227L87.3419 31.2959V36.1825C87.3419 36.2492 87.3085 36.2826 87.2418 36.2826H86.5684ZM95.1685 34.5991C95.1017 34.5991 95.0684 34.5658 95.0684 34.499V30.2403C95.0684 30.1797 95.1017 30.1493 95.1685 30.1493H95.8419C95.9025 30.1493 95.9329 30.1797 95.9329 30.2403V34.499C95.9329 34.5658 95.9025 34.5991 95.8419 34.5991H95.1685ZM92.3748 34.5991C92.3142 34.5991 92.2838 34.5658 92.2838 34.499V30.2403C92.2838 30.1797 92.3142 30.1493 92.3748 30.1493H93.0482C93.115 30.1493 93.1483 30.1797 93.1483 30.2403V34.499C93.1483 34.5658 93.115 34.5991 93.0482 34.5991H92.3748ZM93.0027 32.6973V31.9602H95.2322V32.6973H93.0027ZM99.8906 34.7083C99.2839 34.7083 98.8229 34.5688 98.5074 34.2897C98.1919 34.0107 98.0342 33.6012 98.0342 33.0613V31.8237C98.0342 31.2413 98.1889 30.7984 98.4983 30.4951C98.8138 30.1918 99.2748 30.0401 99.8815 30.0401C100.488 30.0401 100.946 30.1888 101.256 30.486C101.571 30.7833 101.729 31.214 101.729 31.7782V32.488C101.729 32.5486 101.698 32.579 101.638 32.579H98.8896V32.8702C98.8896 33.2524 98.9715 33.5314 99.1353 33.7073C99.2991 33.8833 99.563 33.9712 99.927 33.9712C100.2 33.9712 100.409 33.9288 100.555 33.8438C100.707 33.7528 100.782 33.6194 100.782 33.4434C100.782 33.3767 100.816 33.3433 100.882 33.3433H101.556C101.604 33.3433 101.635 33.3706 101.647 33.4252C101.671 33.8317 101.525 34.1472 101.21 34.3716C100.901 34.5961 100.461 34.7083 99.8906 34.7083ZM98.8896 31.8965H100.873V31.851C100.873 31.4809 100.791 31.211 100.628 31.0411C100.464 30.8652 100.221 30.7772 99.8997 30.7772C99.5599 30.7772 99.3051 30.8682 99.1353 31.0502C98.9715 31.2261 98.8896 31.4961 98.8896 31.8601V31.8965ZM103.908 34.5991C103.847 34.5991 103.817 34.5658 103.817 34.499V31.2686C103.817 31.0987 103.811 30.9258 103.799 30.7499C103.793 30.5679 103.777 30.4041 103.753 30.2585C103.741 30.1857 103.774 30.1493 103.853 30.1493H104.463C104.493 30.1493 104.514 30.1524 104.527 30.1584C104.545 30.1645 104.557 30.1827 104.563 30.213C104.575 30.304 104.59 30.4011 104.608 30.5042C104.627 30.6073 104.639 30.7105 104.645 30.8136C104.906 30.5527 105.157 30.3586 105.4 30.2312C105.643 30.1038 105.907 30.0401 106.192 30.0401C106.501 30.0401 106.75 30.1099 106.938 30.2494C107.126 30.3889 107.26 30.5952 107.338 30.8682C107.617 30.5831 107.881 30.3738 108.13 30.2403C108.379 30.1069 108.649 30.0401 108.94 30.0401C109.352 30.0401 109.662 30.1675 109.868 30.4223C110.08 30.671 110.187 31.0441 110.187 31.5416V34.499C110.187 34.5658 110.153 34.5991 110.087 34.5991H109.413C109.352 34.5991 109.322 34.5658 109.322 34.499V31.6326C109.322 31.3535 109.271 31.1442 109.167 31.0047C109.07 30.8652 108.913 30.7954 108.694 30.7954C108.5 30.7954 108.306 30.8561 108.112 30.9774C107.918 31.0927 107.69 31.2716 107.429 31.5143V34.499C107.429 34.5658 107.399 34.5991 107.338 34.5991H106.665C106.598 34.5991 106.565 34.5658 106.565 34.499V31.6326C106.565 31.3535 106.513 31.1442 106.41 31.0047C106.313 30.8652 106.155 30.7954 105.937 30.7954C105.749 30.7954 105.555 30.8561 105.355 30.9774C105.161 31.0927 104.936 31.2716 104.681 31.5143V34.499C104.681 34.5658 104.648 34.5991 104.581 34.5991H103.908ZM115.208 34.5991C115.147 34.5991 115.117 34.5658 115.117 34.499L115.19 30.2403C115.19 30.1797 115.223 30.1493 115.29 30.1493H116.009C116.051 30.1493 116.084 30.1736 116.109 30.2221L117.41 32.7701L118.702 30.2221C118.732 30.1736 118.769 30.1493 118.811 30.1493H119.53C119.597 30.1493 119.63 30.1797 119.63 30.2403L119.703 34.499C119.703 34.5658 119.67 34.5991 119.603 34.5991H118.975C118.908 34.5991 118.875 34.5658 118.875 34.499L118.857 32.4516C118.857 32.3666 118.86 32.2635 118.866 32.1422C118.872 32.0208 118.878 31.8934 118.884 31.76C118.896 31.6265 118.905 31.5052 118.911 31.396H118.884C118.823 31.5477 118.76 31.6933 118.693 31.8328C118.626 31.9662 118.563 32.0876 118.502 32.1968L117.492 34.0167C117.486 34.0289 117.474 34.041 117.455 34.0531C117.443 34.0592 117.428 34.0622 117.41 34.0622C117.392 34.0622 117.377 34.0592 117.364 34.0531C117.352 34.0471 117.34 34.0349 117.328 34.0167L116.309 32.1968C116.254 32.0876 116.194 31.9662 116.127 31.8328C116.066 31.6933 116.002 31.5477 115.936 31.396H115.908C115.914 31.5052 115.921 31.6265 115.927 31.76C115.933 31.8934 115.939 32.0208 115.945 32.1422C115.951 32.2635 115.954 32.3666 115.954 32.4516L115.945 34.499C115.945 34.5658 115.911 34.5991 115.845 34.5991H115.208ZM124.434 34.5991C124.397 34.5991 124.37 34.587 124.352 34.5627C124.34 34.5385 124.328 34.5081 124.316 34.4717C124.309 34.4232 124.294 34.3201 124.27 34.1623C124.252 34.0046 124.24 33.862 124.234 33.7346L124.197 33.3797V31.5689C124.197 31.2777 124.14 31.0714 124.024 30.9501C123.909 30.8288 123.706 30.7681 123.415 30.7681C122.893 30.7681 122.635 30.9501 122.641 31.3141C122.641 31.3808 122.611 31.4142 122.55 31.4142H121.886C121.819 31.4142 121.783 31.3566 121.777 31.2413C121.746 30.8773 121.883 30.5861 122.186 30.3677C122.49 30.1493 122.908 30.0401 123.442 30.0401C123.994 30.0401 124.4 30.1645 124.661 30.4132C124.928 30.6619 125.062 31.0441 125.062 31.5598V33.4889C125.062 33.6952 125.065 33.8833 125.071 34.0531C125.083 34.2169 125.098 34.3625 125.116 34.4899C125.128 34.5627 125.098 34.5991 125.025 34.5991H124.434ZM122.687 34.7083C122.335 34.7083 122.065 34.6022 121.877 34.3898C121.689 34.1714 121.595 33.859 121.595 33.4525C121.595 33.1371 121.655 32.8823 121.777 32.6882C121.904 32.488 122.104 32.3333 122.377 32.2241C122.656 32.1088 123.026 32.033 123.487 31.9966L124.334 31.9238V32.5335L123.497 32.6063C123.102 32.6427 122.829 32.7185 122.678 32.8338C122.526 32.943 122.45 33.128 122.45 33.3888C122.45 33.583 122.49 33.7316 122.568 33.8347C122.653 33.9318 122.778 33.9803 122.941 33.9803C123.136 33.9803 123.336 33.9136 123.542 33.7801C123.754 33.6467 124.027 33.407 124.361 33.0613L124.379 33.7528C124.173 33.9773 123.979 34.1593 123.797 34.2988C123.615 34.4384 123.433 34.5415 123.251 34.6082C123.075 34.675 122.887 34.7083 122.687 34.7083ZM128.711 34.7083C128.171 34.7083 127.762 34.6264 127.483 34.4626C127.204 34.2928 127.061 33.9925 127.055 33.5617C127.049 33.222 127.125 32.949 127.283 32.7428C127.44 32.5304 127.686 32.3606 128.02 32.2332L129.048 31.8419C129.266 31.763 129.412 31.6781 129.485 31.5871C129.564 31.4961 129.603 31.3748 129.603 31.2231C129.603 31.0532 129.539 30.9349 129.412 30.8682C129.291 30.7954 129.097 30.759 128.83 30.759C128.545 30.759 128.332 30.8015 128.193 30.8864C128.053 30.9713 127.983 31.0957 127.983 31.2595C127.983 31.302 127.977 31.3353 127.965 31.3596C127.953 31.3839 127.932 31.396 127.902 31.396H127.237C127.177 31.396 127.14 31.3505 127.128 31.2595C127.092 30.9016 127.219 30.6104 127.51 30.3859C127.807 30.1554 128.247 30.0401 128.83 30.0401C129.351 30.0401 129.755 30.1372 130.04 30.3313C130.325 30.5254 130.468 30.8227 130.468 31.2231C130.468 31.5325 130.392 31.7843 130.24 31.9784C130.095 32.1725 129.852 32.3333 129.512 32.4607L128.457 32.852C128.256 32.9248 128.114 33.0127 128.029 33.1159C127.95 33.219 127.914 33.3555 127.92 33.5253C127.926 33.7195 127.996 33.8469 128.129 33.9075C128.269 33.9682 128.478 33.9985 128.757 33.9985C129.066 33.9925 129.297 33.9439 129.448 33.8529C129.606 33.7619 129.685 33.6194 129.685 33.4252C129.685 33.3342 129.712 33.2888 129.767 33.2888H130.431C130.462 33.2888 130.483 33.2948 130.495 33.3069C130.513 33.3191 130.525 33.3555 130.531 33.4161C130.562 33.8044 130.437 34.1168 130.158 34.3534C129.879 34.59 129.397 34.7083 128.711 34.7083ZM135.131 34.5991C135.095 34.5991 135.068 34.587 135.05 34.5627C135.037 34.5385 135.025 34.5081 135.013 34.4717C135.007 34.4232 134.992 34.3201 134.968 34.1623C134.949 34.0046 134.937 33.862 134.931 33.7346L134.895 33.3797V31.5689C134.895 31.2777 134.837 31.0714 134.722 30.9501C134.607 30.8288 134.403 30.7681 134.112 30.7681C133.591 30.7681 133.333 30.9501 133.339 31.3141C133.339 31.3808 133.308 31.4142 133.248 31.4142H132.584C132.517 31.4142 132.48 31.3566 132.474 31.2413C132.444 30.8773 132.58 30.5861 132.884 30.3677C133.187 30.1493 133.606 30.0401 134.14 30.0401C134.692 30.0401 135.098 30.1645 135.359 30.4132C135.626 30.6619 135.759 31.0441 135.759 31.5598V33.4889C135.759 33.6952 135.762 33.8833 135.768 34.0531C135.781 34.2169 135.796 34.3625 135.814 34.4899C135.826 34.5627 135.796 34.5991 135.723 34.5991H135.131ZM133.384 34.7083C133.032 34.7083 132.762 34.6022 132.574 34.3898C132.386 34.1714 132.292 33.859 132.292 33.4525C132.292 33.1371 132.353 32.8823 132.474 32.6882C132.602 32.488 132.802 32.3333 133.075 32.2241C133.354 32.1088 133.724 32.033 134.185 31.9966L135.031 31.9238V32.5335L134.194 32.6063C133.8 32.6427 133.527 32.7185 133.375 32.8338C133.224 32.943 133.148 33.128 133.148 33.3888C133.148 33.583 133.187 33.7316 133.266 33.8347C133.351 33.9318 133.475 33.9803 133.639 33.9803C133.833 33.9803 134.033 33.9136 134.24 33.7801C134.452 33.6467 134.725 33.407 135.059 33.0613L135.077 33.7528C134.871 33.9773 134.676 34.1593 134.494 34.2988C134.312 34.4384 134.13 34.5415 133.948 34.6082C133.773 34.675 133.584 34.7083 133.384 34.7083ZM139.3 36.3918C138.924 36.3918 138.602 36.3341 138.335 36.2189C138.074 36.1097 137.88 35.955 137.753 35.7548C137.631 35.5607 137.586 35.3332 137.616 35.0723C137.628 35.0056 137.644 34.9601 137.662 34.9358C137.68 34.9176 137.704 34.9085 137.735 34.9085H138.399C138.454 34.9085 138.481 34.957 138.481 35.0541C138.481 35.2422 138.551 35.3908 138.69 35.5C138.836 35.6153 139.042 35.6729 139.309 35.6729C139.643 35.6729 139.894 35.594 140.064 35.4363C140.234 35.2786 140.319 35.0511 140.319 34.7538V34.2169C140.319 33.95 140.231 33.7528 140.055 33.6254C139.879 33.492 139.609 33.4252 139.245 33.4252H138.526C138.496 33.4252 138.472 33.4161 138.454 33.3979C138.435 33.3737 138.426 33.3494 138.426 33.3251V32.7883C138.426 32.7579 138.435 32.7367 138.454 32.7246C138.472 32.7064 138.496 32.6973 138.526 32.6973H139.172C139.488 32.6973 139.734 32.6154 139.909 32.4516C140.091 32.2817 140.182 32.0542 140.182 31.7691V31.5598C140.182 31.2868 140.11 31.0836 139.964 30.9501C139.825 30.8166 139.606 30.7499 139.309 30.7499C139.06 30.7499 138.869 30.7954 138.736 30.8864C138.608 30.9774 138.545 31.1078 138.545 31.2777C138.545 31.3202 138.535 31.3535 138.517 31.3778C138.505 31.4021 138.484 31.4142 138.454 31.4142H137.789C137.716 31.4142 137.677 31.3596 137.671 31.2504C137.647 31.0077 137.701 30.7984 137.835 30.6225C137.974 30.4405 138.177 30.298 138.444 30.1948C138.717 30.0917 139.039 30.0401 139.409 30.0401C139.937 30.0401 140.334 30.1554 140.601 30.3859C140.874 30.6164 141.011 30.9622 141.011 31.4233V31.7509C141.011 32.0178 140.944 32.2605 140.81 32.4789C140.677 32.6973 140.486 32.8641 140.237 32.9794V32.9885C140.559 33.0673 140.795 33.216 140.947 33.4343C141.099 33.6467 141.174 33.9015 141.174 34.1987V34.6628C141.174 35.0268 141.102 35.3362 140.956 35.591C140.816 35.8519 140.607 36.049 140.328 36.1825C140.049 36.322 139.706 36.3918 139.3 36.3918ZM144.419 34.7083C144.031 34.7083 143.733 34.5809 143.527 34.3261C143.321 34.0653 143.218 33.6891 143.218 33.1978V30.2403C143.218 30.1797 143.248 30.1493 143.309 30.1493H143.982C144.049 30.1493 144.082 30.1797 144.082 30.2403V33.1159C144.082 33.401 144.131 33.6133 144.228 33.7528C144.331 33.8863 144.489 33.953 144.701 33.953C144.919 33.953 145.138 33.8863 145.356 33.7528C145.575 33.6133 145.842 33.3828 146.157 33.0613V33.8074C145.969 33.9955 145.778 34.1593 145.584 34.2988C145.396 34.4323 145.205 34.5324 145.01 34.5991C144.822 34.6719 144.625 34.7083 144.419 34.7083ZM146.239 34.5991C146.203 34.5991 146.175 34.5931 146.157 34.5809C146.139 34.5627 146.127 34.5385 146.121 34.5081C146.102 34.3929 146.087 34.2746 146.075 34.1532C146.063 34.0319 146.054 33.9075 146.048 33.7801L145.993 33.3797V30.2403C145.993 30.1797 146.024 30.1493 146.084 30.1493H146.758C146.824 30.1493 146.858 30.1797 146.858 30.2403V33.4798C146.858 33.6497 146.861 33.8226 146.867 33.9985C146.879 34.1684 146.894 34.3352 146.912 34.499C146.924 34.5658 146.891 34.5991 146.812 34.5991H146.239ZM151.953 34.5991C151.887 34.5991 151.853 34.5658 151.853 34.499V30.2403C151.853 30.1797 151.887 30.1493 151.953 30.1493H152.627C152.687 30.1493 152.718 30.1797 152.718 30.2403V34.499C152.718 34.5658 152.687 34.5991 152.627 34.5991H151.953ZM149.16 34.5991C149.099 34.5991 149.069 34.5658 149.069 34.499V30.2403C149.069 30.1797 149.099 30.1493 149.16 30.1493H149.833C149.9 30.1493 149.933 30.1797 149.933 30.2403V34.499C149.933 34.5658 149.9 34.5991 149.833 34.5991H149.16ZM149.788 32.6973V31.9602H152.017V32.6973H149.788ZM61.2226 44.7083C60.6038 44.7083 60.1337 44.5567 59.8121 44.2533C59.4906 43.9439 59.3299 43.5011 59.3299 42.9248V41.8237C59.3299 41.2474 59.4937 40.8075 59.8212 40.5042C60.1488 40.1948 60.622 40.0401 61.2408 40.0401C61.6109 40.0401 61.9263 40.0978 62.1872 40.213C62.4541 40.3283 62.6573 40.486 62.7969 40.6862C62.9364 40.8864 63.0062 41.12 63.0062 41.3869C63.0062 41.5204 62.9728 41.5871 62.9061 41.5871H62.2418C62.2175 41.5871 62.1963 41.575 62.1781 41.5507C62.1599 41.5264 62.1508 41.4931 62.1508 41.4506C62.1508 41.2383 62.0689 41.0775 61.9051 40.9683C61.7413 40.853 61.5199 40.7954 61.2408 40.7954C60.889 40.7954 60.6251 40.8864 60.4491 41.0684C60.2793 41.2443 60.1943 41.5234 60.1943 41.9056V42.8429C60.1943 43.219 60.2793 43.498 60.4491 43.68C60.6251 43.862 60.8859 43.953 61.2317 43.953C61.5168 43.953 61.7383 43.8924 61.896 43.771C62.0598 43.6436 62.1417 43.4889 62.1417 43.3069C62.1417 43.2099 62.172 43.1614 62.2327 43.1614H62.897C62.9637 43.1614 62.9971 43.1917 62.9971 43.2524C62.9971 43.6952 62.8454 44.0501 62.5421 44.317C62.2388 44.5779 61.7989 44.7083 61.2226 44.7083ZM65.0968 44.5991C65.0361 44.5991 65.0058 44.5658 65.0058 44.499V41.2686C65.0058 41.0987 64.9997 40.9258 64.9876 40.7499C64.9815 40.5679 64.9664 40.4041 64.9421 40.2585C64.93 40.1857 64.9633 40.1493 65.0422 40.1493H65.6519C65.6822 40.1493 65.7034 40.1524 65.7156 40.1584C65.7338 40.1645 65.7459 40.1827 65.752 40.213C65.7641 40.304 65.7793 40.4011 65.7975 40.5042C65.8157 40.6073 65.8278 40.7105 65.8339 40.8136C66.0947 40.5527 66.3465 40.3586 66.5891 40.2312C66.8318 40.1038 67.0957 40.0401 67.3808 40.0401C67.6902 40.0401 67.939 40.1099 68.127 40.2494C68.3151 40.3889 68.4485 40.5952 68.5274 40.8682C68.8065 40.5831 69.0704 40.3738 69.3191 40.2403C69.5678 40.1069 69.8378 40.0401 70.129 40.0401C70.5415 40.0401 70.8509 40.1675 71.0571 40.4223C71.2695 40.671 71.3756 41.0441 71.3756 41.5416V44.499C71.3756 44.5658 71.3423 44.5991 71.2755 44.5991H70.6022C70.5415 44.5991 70.5112 44.5658 70.5112 44.499V41.6326C70.5112 41.3535 70.4596 41.1442 70.3565 41.0047C70.2594 40.8652 70.1017 40.7954 69.8833 40.7954C69.6891 40.7954 69.495 40.8561 69.3009 40.9774C69.1068 41.0927 68.8793 41.2716 68.6184 41.5143V44.499C68.6184 44.5658 68.5881 44.5991 68.5274 44.5991H67.854C67.7873 44.5991 67.7539 44.5658 67.7539 44.499V41.6326C67.7539 41.3535 67.7024 41.1442 67.5992 41.0047C67.5022 40.8652 67.3444 40.7954 67.126 40.7954C66.938 40.7954 66.7438 40.8561 66.5436 40.9774C66.3495 41.0927 66.1251 41.2716 65.8703 41.5143V44.499C65.8703 44.5658 65.8369 44.5991 65.7702 44.5991H65.0968ZM75.6505 44.7083C75.426 44.7083 75.1894 44.678 74.9407 44.6173C74.692 44.5567 74.4918 44.4778 74.3401 44.3807L74.3128 43.6618C74.4827 43.7589 74.6677 43.8347 74.8679 43.8893C75.0742 43.9379 75.2653 43.9621 75.4412 43.9621C75.7748 43.9621 76.0175 43.8651 76.1692 43.6709C76.3269 43.4707 76.4058 43.1735 76.4058 42.7792V41.7964C76.4058 41.4506 76.3451 41.1988 76.2238 41.0411C76.1085 40.8773 75.9295 40.7954 75.6869 40.7954C75.4806 40.7954 75.2713 40.8561 75.059 40.9774C74.8527 41.0987 74.5888 41.308 74.2673 41.6053L74.2491 40.85C74.4493 40.668 74.6374 40.5163 74.8133 40.395C74.9892 40.2737 75.1652 40.1857 75.3411 40.1311C75.5231 40.0705 75.7142 40.0401 75.9144 40.0401C76.3633 40.0401 76.7 40.1766 76.9245 40.4496C77.155 40.7226 77.2702 41.1412 77.2702 41.7054V42.8793C77.2702 43.4738 77.1307 43.9288 76.8517 44.2442C76.5787 44.5536 76.1783 44.7083 75.6505 44.7083ZM73.6758 46.2826C73.6152 46.2826 73.5848 46.2492 73.5848 46.1825V41.1958C73.5848 41.0502 73.5788 40.8925 73.5666 40.7226C73.5545 40.5527 73.5393 40.398 73.5211 40.2585C73.5151 40.1857 73.5454 40.1493 73.6121 40.1493H74.2309C74.2976 40.1493 74.334 40.1797 74.3401 40.2403C74.3522 40.2828 74.3644 40.3434 74.3765 40.4223C74.3886 40.5012 74.3977 40.58 74.4038 40.6589C74.4099 40.7317 74.4099 40.7863 74.4038 40.8227L74.4493 41.2959V46.1825C74.4493 46.2492 74.4159 46.2826 74.3492 46.2826H73.6758ZM81.1839 44.7083C80.5652 44.7083 80.092 44.5597 79.7644 44.2624C79.4368 43.9591 79.273 43.5011 79.273 42.8884V41.8601C79.273 41.2474 79.4337 40.7924 79.7553 40.4951C80.0829 40.1918 80.5591 40.0401 81.1839 40.0401C81.8088 40.0401 82.285 40.1918 82.6126 40.4951C82.9402 40.7924 83.104 41.2474 83.104 41.8601V42.8884C83.104 43.5011 82.9402 43.9591 82.6126 44.2624C82.2911 44.5597 81.8149 44.7083 81.1839 44.7083ZM81.1839 43.953C81.554 43.953 81.8209 43.859 81.9847 43.6709C82.1546 43.4829 82.2395 43.1947 82.2395 42.8065V41.9329C82.2395 41.5507 82.1546 41.2656 81.9847 41.0775C81.8209 40.8894 81.554 40.7954 81.1839 40.7954C80.8139 40.7954 80.547 40.8894 80.3832 41.0775C80.2194 41.2656 80.1375 41.5507 80.1375 41.9329V42.8065C80.1375 43.1947 80.2194 43.4829 80.3832 43.6709C80.547 43.859 80.8139 43.953 81.1839 43.953ZM86.3989 44.7083C86.0106 44.7083 85.7134 44.5809 85.5071 44.3261C85.3009 44.0653 85.1977 43.6891 85.1977 43.1978V40.2403C85.1977 40.1797 85.2281 40.1493 85.2887 40.1493H85.9621C86.0288 40.1493 86.0622 40.1797 86.0622 40.2403V43.1159C86.0622 43.401 86.1107 43.6133 86.2078 43.7528C86.3109 43.8863 86.4687 43.953 86.681 43.953C86.8994 43.953 87.1178 43.8863 87.3362 43.7528C87.5546 43.6133 87.8215 43.3828 88.137 43.0613V43.8074C87.9489 43.9955 87.7578 44.1593 87.5637 44.2988C87.3756 44.4323 87.1845 44.5324 86.9904 44.5991C86.8023 44.6719 86.6052 44.7083 86.3989 44.7083ZM88.2189 44.5991C88.1825 44.5991 88.1552 44.5931 88.137 44.5809C88.1188 44.5627 88.1066 44.5385 88.1006 44.5081C88.0824 44.3929 88.0672 44.2746 88.0551 44.1532C88.0429 44.0319 88.0338 43.9075 88.0278 43.7801L87.9732 43.3797V40.2403C87.9732 40.1797 88.0035 40.1493 88.0642 40.1493H88.7376C88.8043 40.1493 88.8377 40.1797 88.8377 40.2403V43.4798C88.8377 43.6497 88.8407 43.8226 88.8468 43.9985C88.8589 44.1684 88.8741 44.3352 88.8923 44.499C88.9044 44.5658 88.871 44.5991 88.7922 44.5991H88.2189ZM87.0177 39.5396C86.8114 39.5396 86.6325 39.5123 86.4808 39.4577C86.3352 39.3971 86.2139 39.3334 86.1168 39.2666C86.0258 39.1938 85.9561 39.1332 85.9075 39.0846C85.8833 39.0604 85.8711 39.024 85.8711 38.9754V38.4477C85.8711 38.4113 85.8802 38.387 85.8984 38.3749C85.9166 38.3567 85.9439 38.3627 85.9803 38.3931C86.0652 38.478 86.1987 38.5751 86.3807 38.6843C86.5627 38.7935 86.775 38.848 87.0177 38.848C87.2664 38.848 87.4818 38.7935 87.6638 38.6843C87.8458 38.5751 87.9762 38.478 88.0551 38.3931C88.0915 38.3627 88.1188 38.3567 88.137 38.3749C88.1552 38.387 88.1643 38.4113 88.1643 38.4477V38.9754C88.1643 38.9997 88.1612 39.0209 88.1552 39.0391C88.1491 39.0573 88.14 39.0755 88.1279 39.0937C88.0793 39.1362 88.0065 39.1938 87.9095 39.2666C87.8185 39.3334 87.7002 39.3971 87.5546 39.4577C87.409 39.5123 87.23 39.5396 87.0177 39.5396ZM93.8605 44.5991C93.7999 44.5991 93.7695 44.5658 93.7695 44.499L93.8423 40.2403C93.8423 40.1797 93.8757 40.1493 93.9424 40.1493H94.6613C94.7038 40.1493 94.7371 40.1736 94.7614 40.2221L96.0627 42.7701L97.3549 40.2221C97.3852 40.1736 97.4216 40.1493 97.464 40.1493H98.1829C98.2497 40.1493 98.283 40.1797 98.283 40.2403L98.3558 44.499C98.3558 44.5658 98.3225 44.5991 98.2557 44.5991H97.6278C97.5611 44.5991 97.5277 44.5658 97.5277 44.499L97.5095 42.4516C97.5095 42.3666 97.5126 42.2635 97.5186 42.1422C97.5247 42.0208 97.5308 41.8934 97.5368 41.76C97.549 41.6265 97.5581 41.5052 97.5641 41.396H97.5368C97.4762 41.5477 97.4125 41.6933 97.3458 41.8328C97.279 41.9662 97.2153 42.0876 97.1547 42.1968L96.1446 44.0167C96.1385 44.0289 96.1264 44.041 96.1082 44.0531C96.096 44.0592 96.0809 44.0622 96.0627 44.0622C96.0445 44.0622 96.0293 44.0592 96.0172 44.0531C96.005 44.0471 95.9929 44.0349 95.9808 44.0167L94.9616 42.1968C94.907 42.0876 94.8463 41.9662 94.7796 41.8328C94.7189 41.6933 94.6552 41.5477 94.5885 41.396H94.5612C94.5673 41.5052 94.5733 41.6265 94.5794 41.76C94.5855 41.8934 94.5915 42.0208 94.5976 42.1422C94.6037 42.2635 94.6067 42.3666 94.6067 42.4516L94.5976 44.499C94.5976 44.5658 94.5642 44.5991 94.4975 44.5991H93.8605ZM103.087 44.5991C103.05 44.5991 103.023 44.587 103.005 44.5627C102.993 44.5385 102.98 44.5081 102.968 44.4717C102.962 44.4232 102.947 44.3201 102.923 44.1623C102.905 44.0046 102.893 43.862 102.886 43.7346L102.85 43.3797V41.5689C102.85 41.2777 102.792 41.0714 102.677 40.9501C102.562 40.8288 102.359 40.7681 102.067 40.7681C101.546 40.7681 101.288 40.9501 101.294 41.3141C101.294 41.3808 101.264 41.4142 101.203 41.4142H100.539C100.472 41.4142 100.436 41.3566 100.43 41.2413C100.399 40.8773 100.536 40.5861 100.839 40.3677C101.142 40.1493 101.561 40.0401 102.095 40.0401C102.647 40.0401 103.053 40.1645 103.314 40.4132C103.581 40.6619 103.715 41.0441 103.715 41.5598V43.4889C103.715 43.6952 103.718 43.8833 103.724 44.0531C103.736 44.2169 103.751 44.3625 103.769 44.4899C103.781 44.5627 103.751 44.5991 103.678 44.5991H103.087ZM101.339 44.7083C100.988 44.7083 100.718 44.6022 100.53 44.3898C100.342 44.1714 100.248 43.859 100.248 43.4525C100.248 43.1371 100.308 42.8823 100.43 42.6882C100.557 42.488 100.757 42.3333 101.03 42.2241C101.309 42.1088 101.679 42.033 102.14 41.9966L102.987 41.9238V42.5335L102.149 42.6063C101.755 42.6427 101.482 42.7185 101.33 42.8338C101.179 42.943 101.103 43.128 101.103 43.3888C101.103 43.583 101.142 43.7316 101.221 43.8347C101.306 43.9318 101.43 43.9803 101.594 43.9803C101.788 43.9803 101.989 43.9136 102.195 43.7801C102.407 43.6467 102.68 43.407 103.014 43.0613L103.032 43.7528C102.826 43.9773 102.632 44.1593 102.45 44.2988C102.268 44.4384 102.086 44.5415 101.904 44.6082C101.728 44.675 101.54 44.7083 101.339 44.7083ZM106.017 44.5991C105.957 44.5991 105.926 44.5658 105.926 44.499V41.2686C105.926 41.0987 105.92 40.9258 105.908 40.7499C105.902 40.5679 105.887 40.4041 105.863 40.2585C105.851 40.1857 105.884 40.1493 105.963 40.1493H106.573C106.603 40.1493 106.624 40.1524 106.636 40.1584C106.654 40.1645 106.667 40.1827 106.673 40.213C106.685 40.304 106.7 40.4011 106.718 40.5042C106.736 40.6073 106.748 40.7105 106.755 40.8136C107.015 40.5527 107.267 40.3586 107.51 40.2312C107.752 40.1038 108.016 40.0401 108.301 40.0401C108.611 40.0401 108.86 40.1099 109.048 40.2494C109.236 40.3889 109.369 40.5952 109.448 40.8682C109.727 40.5831 109.991 40.3738 110.24 40.2403C110.488 40.1069 110.758 40.0401 111.05 40.0401C111.462 40.0401 111.772 40.1675 111.978 40.4223C112.19 40.671 112.296 41.0441 112.296 41.5416V44.499C112.296 44.5658 112.263 44.5991 112.196 44.5991H111.523C111.462 44.5991 111.432 44.5658 111.432 44.499V41.6326C111.432 41.3535 111.38 41.1442 111.277 41.0047C111.18 40.8652 111.022 40.7954 110.804 40.7954C110.61 40.7954 110.416 40.8561 110.222 40.9774C110.027 41.0927 109.8 41.2716 109.539 41.5143V44.499C109.539 44.5658 109.509 44.5991 109.448 44.5991H108.775C108.708 44.5991 108.675 44.5658 108.675 44.499V41.6326C108.675 41.3535 108.623 41.1442 108.52 41.0047C108.423 40.8652 108.265 40.7954 108.047 40.7954C107.859 40.7954 107.664 40.8561 107.464 40.9774C107.27 41.0927 107.046 41.2716 106.791 41.5143V44.499C106.791 44.5658 106.758 44.5991 106.691 44.5991H106.017ZM116.244 44.7083C115.637 44.7083 115.176 44.5688 114.86 44.2897C114.545 44.0107 114.387 43.6012 114.387 43.0613V41.8237C114.387 41.2413 114.542 40.7984 114.851 40.4951C115.167 40.1918 115.628 40.0401 116.234 40.0401C116.841 40.0401 117.299 40.1888 117.609 40.486C117.924 40.7833 118.082 41.214 118.082 41.7782V42.488C118.082 42.5486 118.051 42.579 117.991 42.579H115.243V42.8702C115.243 43.2524 115.324 43.5314 115.488 43.7073C115.652 43.8833 115.916 43.9712 116.28 43.9712C116.553 43.9712 116.762 43.9288 116.908 43.8438C117.059 43.7528 117.135 43.6194 117.135 43.4434C117.135 43.3767 117.169 43.3433 117.235 43.3433H117.909C117.957 43.3433 117.988 43.3706 118 43.4252C118.024 43.8317 117.878 44.1472 117.563 44.3716C117.254 44.5961 116.814 44.7083 116.244 44.7083ZM115.243 41.8965H117.226V41.851C117.226 41.4809 117.144 41.211 116.981 41.0411C116.817 40.8652 116.574 40.7772 116.253 40.7772C115.913 40.7772 115.658 40.8682 115.488 41.0502C115.324 41.2261 115.243 41.4961 115.243 41.8601V41.8965ZM122.235 44.7083C122.011 44.7083 121.774 44.678 121.526 44.6173C121.277 44.5567 121.077 44.4778 120.925 44.3807L120.898 43.6618C121.068 43.7589 121.253 43.8347 121.453 43.8893C121.659 43.9379 121.85 43.9621 122.026 43.9621C122.36 43.9621 122.602 43.8651 122.754 43.6709C122.912 43.4707 122.991 43.1735 122.991 42.7792V41.7964C122.991 41.4506 122.93 41.1988 122.809 41.0411C122.693 40.8773 122.514 40.7954 122.272 40.7954C122.066 40.7954 121.856 40.8561 121.644 40.9774C121.438 41.0987 121.174 41.308 120.852 41.6053L120.834 40.85C121.034 40.668 121.222 40.5163 121.398 40.395C121.574 40.2737 121.75 40.1857 121.926 40.1311C122.108 40.0705 122.299 40.0401 122.499 40.0401C122.948 40.0401 123.285 40.1766 123.509 40.4496C123.74 40.7226 123.855 41.1412 123.855 41.7054V42.8793C123.855 43.4738 123.716 43.9288 123.437 44.2442C123.164 44.5536 122.763 44.7083 122.235 44.7083ZM120.261 46.2826C120.2 46.2826 120.17 46.2492 120.17 46.1825V41.1958C120.17 41.0502 120.164 40.8925 120.152 40.7226C120.139 40.5527 120.124 40.398 120.106 40.2585C120.1 40.1857 120.13 40.1493 120.197 40.1493H120.816C120.883 40.1493 120.919 40.1797 120.925 40.2403C120.937 40.2828 120.949 40.3434 120.961 40.4223C120.974 40.5012 120.983 40.58 120.989 40.6589C120.995 40.7317 120.995 40.7863 120.989 40.8227L121.034 41.2959V46.1825C121.034 46.2492 121.001 46.2826 120.934 46.2826H120.261ZM127.177 44.7083C126.789 44.7083 126.492 44.5809 126.286 44.3261C126.079 44.0653 125.976 43.6891 125.976 43.1978V40.2403C125.976 40.1797 126.007 40.1493 126.067 40.1493H126.741C126.807 40.1493 126.841 40.1797 126.841 40.2403V43.1159C126.841 43.401 126.889 43.6133 126.986 43.7528C127.089 43.8863 127.247 43.953 127.459 43.953C127.678 43.953 127.896 43.8863 128.115 43.7528C128.333 43.6133 128.6 43.3828 128.915 43.0613V43.8074C128.727 43.9955 128.536 44.1593 128.342 44.2988C128.154 44.4323 127.963 44.5324 127.769 44.5991C127.581 44.6719 127.384 44.7083 127.177 44.7083ZM128.997 44.5991C128.961 44.5991 128.934 44.5931 128.915 44.5809C128.897 44.5627 128.885 44.5385 128.879 44.5081C128.861 44.3929 128.846 44.2746 128.834 44.1532C128.821 44.0319 128.812 43.9075 128.806 43.7801L128.752 43.3797V40.2403C128.752 40.1797 128.782 40.1493 128.843 40.1493H129.516C129.583 40.1493 129.616 40.1797 129.616 40.2403V43.4798C129.616 43.6497 129.619 43.8226 129.625 43.9985C129.637 44.1684 129.653 44.3352 129.671 44.499C129.683 44.5658 129.649 44.5991 129.571 44.5991H128.997ZM134.421 44.5991C134.384 44.5991 134.357 44.587 134.339 44.5627C134.326 44.5385 134.314 44.5081 134.302 44.4717C134.296 44.4232 134.281 44.3201 134.257 44.1623C134.239 44.0046 134.226 43.862 134.22 43.7346L134.184 43.3797V41.5689C134.184 41.2777 134.126 41.0714 134.011 40.9501C133.896 40.8288 133.693 40.7681 133.401 40.7681C132.88 40.7681 132.622 40.9501 132.628 41.3141C132.628 41.3808 132.598 41.4142 132.537 41.4142H131.873C131.806 41.4142 131.769 41.3566 131.763 41.2413C131.733 40.8773 131.87 40.5861 132.173 40.3677C132.476 40.1493 132.895 40.0401 133.429 40.0401C133.981 40.0401 134.387 40.1645 134.648 40.4132C134.915 40.6619 135.048 41.0441 135.048 41.5598V43.4889C135.048 43.6952 135.051 43.8833 135.058 44.0531C135.07 44.2169 135.085 44.3625 135.103 44.4899C135.115 44.5627 135.085 44.5991 135.012 44.5991H134.421ZM132.673 44.7083C132.322 44.7083 132.052 44.6022 131.863 44.3898C131.675 44.1714 131.581 43.859 131.581 43.4525C131.581 43.1371 131.642 42.8823 131.763 42.6882C131.891 42.488 132.091 42.3333 132.364 42.2241C132.643 42.1088 133.013 42.033 133.474 41.9966L134.32 41.9238V42.5335L133.483 42.6063C133.089 42.6427 132.816 42.7185 132.664 42.8338C132.513 42.943 132.437 43.128 132.437 43.3888C132.437 43.583 132.476 43.7316 132.555 43.8347C132.64 43.9318 132.764 43.9803 132.928 43.9803C133.122 43.9803 133.322 43.9136 133.529 43.7801C133.741 43.6467 134.014 43.407 134.348 43.0613L134.366 43.7528C134.16 43.9773 133.966 44.1593 133.784 44.2988C133.602 44.4384 133.42 44.5415 133.238 44.6082C133.062 44.675 132.874 44.7083 132.673 44.7083ZM136.723 44.5991C136.645 44.5991 136.62 44.5597 136.651 44.4808L138.198 40.2767C138.222 40.1918 138.273 40.1493 138.352 40.1493H139.071C139.144 40.1493 139.196 40.1918 139.226 40.2767L140.764 44.4808C140.794 44.5597 140.77 44.5991 140.691 44.5991H139.972C139.924 44.5991 139.89 44.5718 139.872 44.5172L139.071 42.1513C139.01 41.9753 138.95 41.8025 138.889 41.6326C138.828 41.4567 138.771 41.2807 138.716 41.1048H138.698C138.65 41.2868 138.595 41.4658 138.534 41.6417C138.48 41.8115 138.419 41.9875 138.352 42.1695L137.542 44.5172C137.524 44.5718 137.491 44.5991 137.442 44.5991H136.723ZM144.157 44.7083C143.539 44.7083 143.065 44.5597 142.738 44.2624C142.41 43.9591 142.246 43.5011 142.246 42.8884V41.8601C142.246 41.2474 142.407 40.7924 142.729 40.4951C143.056 40.1918 143.533 40.0401 144.157 40.0401C144.782 40.0401 145.258 40.1918 145.586 40.4951C145.914 40.7924 146.077 41.2474 146.077 41.8601V42.8884C146.077 43.5011 145.914 43.9591 145.586 44.2624C145.265 44.5597 144.788 44.7083 144.157 44.7083ZM144.157 43.953C144.527 43.953 144.794 43.859 144.958 43.6709C145.128 43.4829 145.213 43.1947 145.213 42.8065V41.9329C145.213 41.5507 145.128 41.2656 144.958 41.0775C144.794 40.8894 144.527 40.7954 144.157 40.7954C143.787 40.7954 143.52 40.8894 143.357 41.0775C143.193 41.2656 143.111 41.5507 143.111 41.9329V42.8065C143.111 43.1947 143.193 43.4829 143.357 43.6709C143.52 43.859 143.787 43.953 144.157 43.953ZM149.955 44.7083C149.36 44.7083 148.911 44.5597 148.608 44.2624C148.311 43.9652 148.162 43.5193 148.162 42.9248V39.9218C148.162 39.5639 148.229 39.2636 148.362 39.0209C148.496 38.7783 148.696 38.5933 148.963 38.4659C149.23 38.3385 149.563 38.2748 149.964 38.2748C150.51 38.2748 150.916 38.387 151.183 38.6115C151.45 38.8359 151.584 39.1696 151.584 39.6124C151.584 39.94 151.517 40.2252 151.383 40.4678C151.25 40.7105 151.068 40.8803 150.837 40.9774V40.9865C151.214 41.0472 151.48 41.1988 151.638 41.4415C151.802 41.6842 151.884 42.0057 151.884 42.4061V42.8429C151.884 43.4556 151.717 43.9197 151.383 44.2351C151.056 44.5506 150.58 44.7083 149.955 44.7083ZM149.982 43.953C150.334 43.953 150.595 43.859 150.765 43.6709C150.934 43.4829 151.019 43.2008 151.019 42.8247V42.3606C151.019 42.0694 150.953 41.857 150.819 41.7236C150.692 41.5901 150.489 41.5234 150.21 41.5234C150.106 41.5234 149.991 41.5325 149.864 41.5507C149.736 41.5628 149.603 41.5841 149.463 41.6144C149.324 41.6447 149.175 41.6842 149.017 41.7327V42.852C149.017 43.2342 149.093 43.5132 149.245 43.6891C149.397 43.8651 149.642 43.953 149.982 43.953ZM149.017 41.0684L149.709 40.9319C150.018 40.8652 150.264 40.7469 150.446 40.577C150.634 40.4071 150.728 40.1554 150.728 39.8217C150.728 39.5366 150.661 39.3303 150.528 39.2029C150.401 39.0755 150.197 39.0118 149.918 39.0118C149.627 39.0118 149.403 39.0846 149.245 39.2302C149.093 39.3758 149.017 39.5912 149.017 39.8763V41.0684Z" fill="black"/>
<defs>
<linearGradient id="paint0_linear_36_4" x1="24.4995" y1="-1.19574e-09" x2="24.5195" y2="32.4252" gradientUnits="userSpaceOnUse">
<stop stop-color="#FFA509"/>
<stop offset="1" stop-color="#F66C4F"/>
</linearGradient>
<linearGradient id="paint1_linear_36_4" x1="24.8625" y1="31.23" x2="24.8625" y2="49.0005" gradientUnits="userSpaceOnUse">
<stop stop-color="#411515"/>
<stop offset="1"/>
</linearGradient>
<linearGradient id="paint2_linear_36_4" x1="106.602" y1="3.5" x2="106.604" y2="18.7203" gradientUnits="userSpaceOnUse">
<stop stop-color="#FFA509"/>
<stop offset="1" stop-color="#F66C4F"/>
</linearGradient>
</defs>
</svg>
