<svg width="24" height="24" viewBox="0 0 24 24" fill="none" xmlns="http://www.w3.org/2000/svg">
<path d="M6.16732 2.66665C6.16732 2.04781 6.41315 1.45432 6.85074 1.01673C7.28832 0.579146 7.88181 0.333313 8.50065 0.333313H15.5007C16.1195 0.333313 16.713 0.579146 17.1506 1.01673C17.5882 1.45432 17.834 2.04781 17.834 2.66665V4.99998H22.5007C22.8101 4.99998 23.1068 5.1229 23.3256 5.34169C23.5444 5.56048 23.6673 5.85723 23.6673 6.16665C23.6673 6.47607 23.5444 6.77281 23.3256 6.9916C23.1068 7.2104 22.8101 7.33331 22.5007 7.33331H21.2535L20.242 21.499C20.2001 22.0877 19.9367 22.6386 19.5048 23.0408C19.0729 23.443 18.5047 23.6667 17.9145 23.6666H6.08565C5.49548 23.6667 4.92723 23.443 4.49535 23.0408C4.06347 22.6386 3.80005 22.0877 3.75815 21.499L2.74898 7.33331H1.50065C1.19123 7.33331 0.894486 7.2104 0.675693 6.9916C0.456901 6.77281 0.333984 6.47607 0.333984 6.16665C0.333984 5.85723 0.456901 5.56048 0.675693 5.34169C0.894486 5.1229 1.19123 4.99998 1.50065 4.99998H6.16732V2.66665ZM8.50065 4.99998H15.5007V2.66665H8.50065V4.99998ZM5.08698 7.33331L6.08682 21.3333H17.9157L18.9155 7.33331H5.08698ZM9.66732 9.66665C9.97674 9.66665 10.2735 9.78956 10.4923 10.0084C10.7111 10.2271 10.834 10.5239 10.834 10.8333V17.8333C10.834 18.1427 10.7111 18.4395 10.4923 18.6583C10.2735 18.8771 9.97674 19 9.66732 19C9.3579 19 9.06115 18.8771 8.84236 18.6583C8.62357 18.4395 8.50065 18.1427 8.50065 17.8333V10.8333C8.50065 10.5239 8.62357 10.2271 8.84236 10.0084C9.06115 9.78956 9.3579 9.66665 9.66732 9.66665ZM14.334 9.66665C14.6434 9.66665 14.9402 9.78956 15.1589 10.0084C15.3777 10.2271 15.5007 10.5239 15.5007 10.8333V17.8333C15.5007 18.1427 15.3777 18.4395 15.1589 18.6583C14.9402 18.8771 14.6434 19 14.334 19C14.0246 19 13.7278 18.8771 13.509 18.6583C13.2902 18.4395 13.1673 18.1427 13.1673 17.8333V10.8333C13.1673 10.5239 13.2902 10.2271 13.509 10.0084C13.7278 9.78956 14.0246 9.66665 14.334 9.66665Z" fill="#E1E1E1"/>
</svg>
