<svg width="28" height="28" viewBox="0 0 28 28" fill="none" xmlns="http://www.w3.org/2000/svg">
<path d="M8.16663 25.6667C7.52496 25.6667 6.97585 25.4384 6.51929 24.9819C6.06196 24.5245 5.83329 23.975 5.83329 23.3334C5.83329 22.6917 6.06196 22.1422 6.51929 21.6849C6.97585 21.2283 7.52496 21 8.16663 21C8.80829 21 9.3574 21.2283 9.81396 21.6849C10.2713 22.1422 10.5 22.6917 10.5 23.3334C10.5 23.975 10.2713 24.5245 9.81396 24.9819C9.3574 25.4384 8.80829 25.6667 8.16663 25.6667ZM19.8333 25.6667C19.1916 25.6667 18.6425 25.4384 18.186 24.9819C17.7286 24.5245 17.5 23.975 17.5 23.3334C17.5 22.6917 17.7286 22.1422 18.186 21.6849C18.6425 21.2283 19.1916 21 19.8333 21C20.475 21 21.0245 21.2283 21.4818 21.6849C21.9383 22.1422 22.1666 22.6917 22.1666 23.3334C22.1666 23.975 21.9383 24.5245 21.4818 24.9819C21.0245 25.4384 20.475 25.6667 19.8333 25.6667ZM7.17496 7.00004L9.97496 12.8334H18.1416L21.35 7.00004H7.17496ZM8.16663 19.8334C7.29163 19.8334 6.63052 19.4492 6.18329 18.6807C5.73607 17.913 5.71663 17.15 6.12496 16.3917L7.69996 13.5334L3.49996 4.66671H2.30413C1.97357 4.66671 1.70135 4.55471 1.48746 4.33071C1.27357 4.10749 1.16663 3.8306 1.16663 3.50004C1.16663 3.16949 1.27863 2.89221 1.50263 2.66821C1.72585 2.44499 2.00274 2.33337 2.33329 2.33337H4.22913C4.44301 2.33337 4.64718 2.39171 4.84163 2.50837C5.03607 2.62504 5.1819 2.79032 5.27913 3.00421L6.06663 4.66671H23.275C23.8 4.66671 24.1597 4.86115 24.3541 5.25004C24.5486 5.63893 24.5388 6.04726 24.325 6.47504L20.1833 13.9417C19.9694 14.3306 19.6875 14.632 19.3375 14.8459C18.9875 15.0598 18.5888 15.1667 18.1416 15.1667H9.44996L8.16663 17.5H21.0291C21.3597 17.5 21.6319 17.6117 21.8458 17.8349C22.0597 18.0589 22.1666 18.3362 22.1666 18.6667C22.1666 18.9973 22.0546 19.2742 21.8306 19.4974C21.6074 19.7214 21.3305 19.8334 21 19.8334H8.16663ZM9.97496 12.8334H18.1416H9.97496Z" fill="white"/>
</svg>
