<svg width="28" height="28" viewBox="0 0 28 28" fill="none" xmlns="http://www.w3.org/2000/svg">
<g clip-path="url(#clip0_1_3646)">
<path d="M14.0008 5.28381C16.7413 2.82331 20.9763 2.90498 23.6165 5.54981C26.2555 8.19581 26.3465 12.4098 23.8918 15.1585L13.9985 25.0658L4.10751 15.1585C1.65285 12.4098 1.74502 8.18881 4.38285 5.54981C7.02535 2.90848 11.2522 2.81981 14.0008 5.28381ZM21.9645 7.19831C20.2145 5.44598 17.3912 5.37481 15.5595 7.01981L14.002 8.41748L12.4433 7.02098C10.6058 5.37364 7.78835 5.44598 6.03368 7.20064C4.29535 8.93898 4.20785 11.7215 5.80968 13.5601L13.9997 21.763L22.1897 13.5613C23.7927 11.7215 23.7052 8.94248 21.9645 7.19831Z" fill="white"/>
</g>
<defs>
<clipPath id="clip0_1_3646">
<rect width="28" height="28" fill="white"/>
</clipPath>
</defs>
</svg>
