<svg width="120" height="120" viewBox="0 0 120 120" fill="none" xmlns="http://www.w3.org/2000/svg">
<circle cx="60" cy="60" r="57.5" stroke="#FFB12A" stroke-width="5"/>
<path d="M59.7298 43.2802C58.0816 43.2802 56.4705 43.7689 55.1001 44.6846C53.7297 45.6002 52.6616 46.9017 52.0308 48.4245C51.4001 49.9472 51.2351 51.6227 51.5566 53.2392C51.8782 54.8557 52.6718 56.3406 53.8373 57.506C55.0027 58.6715 56.4876 59.4652 58.1041 59.7867C59.7206 60.1082 61.3961 59.9432 62.9189 59.3125C64.4416 58.6818 65.7431 57.6136 66.6587 56.2432C67.5744 54.8728 68.0632 53.2617 68.0632 51.6135C68.0606 49.4041 67.1819 47.286 65.6196 45.7237C64.0573 44.1614 61.9392 43.2827 59.7298 43.2802ZM59.7298 55.7802C58.9057 55.7802 58.1002 55.5358 57.4149 55.0779C56.7297 54.6201 56.1957 53.9694 55.8803 53.208C55.565 52.4466 55.4824 51.6089 55.6432 50.8006C55.804 49.9924 56.2008 49.2499 56.7835 48.6672C57.3663 48.0845 58.1087 47.6877 58.9169 47.5269C59.7252 47.3661 60.563 47.4486 61.3243 47.764C62.0857 48.0794 62.7364 48.6134 63.1943 49.2986C63.6521 49.9838 63.8965 50.7894 63.8965 51.6135C63.8952 52.7182 63.4558 53.7772 62.6747 54.5584C61.8936 55.3395 60.8345 55.7789 59.7298 55.7802Z" fill="black"/>
<path d="M75.7433 35.5878C71.784 31.6296 66.4988 29.2782 60.9078 28.9875C55.3168 28.6969 49.8163 30.4875 45.4679 34.0139C41.1195 37.5403 38.2315 42.5524 37.3613 48.0829C36.491 53.6135 37.7002 59.2703 40.7555 63.9617L56.4986 88.13C56.8489 88.6678 57.328 89.1097 57.8922 89.4155C58.4565 89.7214 59.0882 89.8816 59.7301 89.8816C60.3719 89.8816 61.0036 89.7214 61.5679 89.4155C62.1321 89.1097 62.6112 88.6678 62.9615 88.13L78.7051 63.9617C81.5401 59.6097 82.7929 54.4156 82.2537 49.2498C81.7144 44.0839 79.4159 39.2605 75.7433 35.5878ZM75.214 61.6873L59.7301 85.4569L44.2461 61.6873C39.5065 54.4114 40.5231 44.6744 46.6632 38.5341C48.3791 36.8181 50.4163 35.4569 52.6583 34.5282C54.9004 33.5995 57.3034 33.1215 59.7301 33.1215C62.1569 33.1215 64.5599 33.5995 66.8019 34.5282C69.0439 35.4569 71.0811 36.8181 72.797 38.5341C78.9371 44.6744 79.9536 54.4114 75.214 61.6873Z" fill="black"/>
</svg>
