<svg width="120" height="120" viewBox="0 0 120 120" fill="none" xmlns="http://www.w3.org/2000/svg">
<circle cx="60" cy="60" r="57.5" stroke="#FFB12A" stroke-width="5"/>
<g clip-path="url(#clip0_1_5430)">
<path d="M72.9617 34.0742H47.0357C46.0535 34.0742 45.1114 34.4644 44.4168 35.1589C43.7222 35.8535 43.332 36.7956 43.332 37.7779V82.2223C43.332 83.2046 43.7222 84.1466 44.4168 84.8412C45.1114 85.5358 46.0535 85.926 47.0357 85.926H72.9617C73.9439 85.926 74.886 85.5358 75.5806 84.8412C76.2752 84.1466 76.6654 83.2046 76.6654 82.2223V37.7779C76.6654 36.7956 76.2752 35.8535 75.5806 35.1589C74.886 34.4644 73.9439 34.0742 72.9617 34.0742ZM47.0357 37.7779H72.9617V71.1112H47.0357V37.7779ZM47.0357 82.2223V74.8149H72.9617V82.2223H47.0357Z" fill="black"/>
<path d="M58.1484 76.6667H61.8521V80.3705H58.1484V76.6667Z" fill="black"/>
</g>
<defs>
<clipPath id="clip0_1_5430">
<rect width="66.6667" height="66.6667" fill="white" transform="translate(26.666 26.6667)"/>
</clipPath>
</defs>
</svg>
