<svg width="120" height="120" viewBox="0 0 120 120" fill="none" xmlns="http://www.w3.org/2000/svg">
<circle cx="60" cy="60" r="57.5" stroke="#FFB12A" stroke-width="5"/>
<path d="M51.75 82H43.5C40.5826 82 37.7847 80.8411 35.7218 78.7782C33.6589 76.7153 32.5 73.9174 32.5 71V46.25C32.5 43.3326 33.6589 40.5347 35.7218 38.4718C37.7847 36.4089 40.5826 35.25 43.5 35.25H73.75C76.6674 35.25 79.4653 36.4089 81.5282 38.4718C83.5911 40.5347 84.75 43.3326 84.75 46.25V54.5M49 32.5V38M68.25 32.5V38M32.5 49H84.75M77.875 70.0182L73.75 74.1432" stroke="black" stroke-width="4" stroke-linecap="round" stroke-linejoin="round"/>
<path d="M73.75 87.5C81.3439 87.5 87.5 81.3439 87.5 73.75C87.5 66.1561 81.3439 60 73.75 60C66.1561 60 60 66.1561 60 73.75C60 81.3439 66.1561 87.5 73.75 87.5Z" stroke="black" stroke-width="4" stroke-linecap="round" stroke-linejoin="round"/>
</svg>
