<svg width="120" height="120" viewBox="0 0 120 120" fill="none" xmlns="http://www.w3.org/2000/svg">
<circle cx="60" cy="60" r="57.5" stroke="#FFB12A" stroke-width="5"/>
<path d="M60 88.875C54.2891 88.875 48.7064 87.1815 43.9579 84.0087C39.2095 80.8359 35.5085 76.3262 33.323 71.05C31.1375 65.7738 30.5657 59.968 31.6798 54.3668C32.794 48.7656 35.5441 43.6205 39.5823 39.5823C43.6205 35.5441 48.7656 32.794 54.3668 31.6798C59.968 30.5657 65.7738 31.1375 71.05 33.323C76.3262 35.5085 80.8359 39.2095 84.0087 43.9579C87.1815 48.7064 88.875 54.2891 88.875 60C88.875 67.6581 85.8328 75.0026 80.4177 80.4177C75.0026 85.8328 67.6581 88.875 60 88.875ZM60 35.25C55.1049 35.25 50.3198 36.7016 46.2497 39.4211C42.1795 42.1407 39.0073 46.0061 37.134 50.5286C35.2607 55.0511 34.7706 60.0275 35.7256 64.8285C36.6806 69.6295 39.0378 74.0396 42.4991 77.5009C45.9605 80.9623 50.3705 83.3195 55.1715 84.2744C59.9726 85.2294 64.949 84.7393 69.4714 82.866C73.9939 80.9928 77.8593 77.8205 80.5789 73.7504C83.2984 69.6803 84.75 64.8951 84.75 60C84.75 53.4359 82.1424 47.1406 77.5009 42.4991C72.8594 37.8576 66.5641 35.25 60 35.25Z" fill="black"/>
<path d="M70.9217 70.9202C70.1182 71.7237 68.8155 71.7237 68.0121 70.9202L58.8162 61.7243C58.2536 61.1617 57.9375 60.3986 57.9375 59.603V43.5C57.9375 42.3609 58.8609 41.4375 60 41.4375C61.1391 41.4375 62.0625 42.3609 62.0625 43.5V58.3065C62.0625 58.8362 62.2727 59.3443 62.6469 59.7193L70.9231 68.0121C71.7252 68.8158 71.7246 70.1173 70.9217 70.9202Z" fill="black"/>
</svg>
