<svg width="49" height="49" viewBox="0 0 49 49" fill="none" xmlns="http://www.w3.org/2000/svg">
<path fill-rule="evenodd" clip-rule="evenodd" d="M23.0214 0.00720605C19.898 0.220814 17.0751 0.929202 14.2806 2.20075C13.5958 2.51229 13.4695 2.57578 12.7505 2.96992C9.86145 4.55343 7.35534 6.66473 5.30798 9.23996C2.13479 13.2313 0.312222 18.0386 0.0195707 23.1891C-0.0180659 23.8516 0.00181067 25.7714 0.051688 26.2899C0.223796 28.0791 0.359462 28.9466 0.668048 30.2312C1.20973 32.4865 2.07868 34.6746 3.22537 36.6711C3.75682 37.5965 4.22876 38.3222 4.29101 38.3098C4.35004 38.298 7.54465 35.1354 7.54465 35.0887C7.54465 35.0648 7.41862 34.8297 7.26462 34.5663C6.7675 33.7165 6.33194 32.8268 5.94337 31.8676C5.58723 30.9884 5.17611 29.6341 4.97656 28.6828C3.92998 23.6934 4.78462 18.5373 7.37226 14.2294C9.3295 10.971 12.1745 8.33351 15.5644 6.63464C16.6943 6.06846 17.7189 5.66472 18.906 5.31802C20.0612 4.98064 21.1213 4.77231 22.441 4.62328C23.0512 4.55438 23.3243 4.54386 24.4987 4.54386C25.6732 4.54386 25.9463 4.55438 26.5564 4.62328C27.8761 4.77231 28.9363 4.98064 30.0915 5.31802C31.2785 5.66472 32.3032 6.06846 33.433 6.63464C36.1935 8.01803 38.5909 10.0186 40.4561 12.4951C43.2135 16.1563 44.6376 20.72 44.4422 25.2693C44.3835 26.6373 44.1705 28.1768 43.8921 29.2459C43.3615 31.2834 42.6962 32.9246 41.7396 34.5561C41.5819 34.825 41.4528 35.0648 41.4528 35.0887C41.4528 35.1354 44.6474 38.298 44.7064 38.3098C44.8199 38.3324 45.9011 36.5159 46.4987 35.2987C47.9704 32.3012 48.7864 29.1595 48.9802 25.7444C49.0172 25.0924 48.996 23.2505 48.945 22.6828C48.8337 21.4451 48.7749 20.9998 48.5871 19.9731C47.6918 15.0792 45.2159 10.4443 41.6345 6.95784C37.9277 3.34945 33.3181 1.0466 28.2096 0.251112C26.9702 0.058126 26.316 0.0116389 24.7098 0.00248932C23.8876 -0.00219105 23.1278 -7.84342e-05 23.0214 0.00720605ZM20.7438 13.3308L17.0066 17.0699V15.1337V13.1976L16.7867 13.0789C16.1672 12.7446 15.6049 12.4393 15.1824 12.2075C14.9239 12.0657 14.7061 11.9496 14.6985 11.9496C14.6909 11.9496 14.487 11.8388 14.2454 11.7033C14.0037 11.5678 13.7862 11.4574 13.7619 11.458C13.7376 11.4585 13.6386 11.5858 13.5419 11.7409C13.4452 11.896 13.271 12.1688 13.155 12.3472C13.0389 12.5255 12.8181 12.8693 12.6642 13.1111C12.5104 13.3529 12.2879 13.7013 12.1697 13.8851C12.0516 14.069 11.8893 14.3224 11.8091 14.4482C11.7288 14.574 11.5053 14.9222 11.3124 15.222C11.1194 15.5217 10.9678 15.7732 10.9754 15.7808C10.983 15.7884 11.3894 15.573 11.8786 15.302C12.3678 15.031 12.8472 14.7658 12.9439 14.7125C13.0407 14.6592 13.2009 14.57 13.3 14.5143C13.399 14.4586 13.49 14.413 13.5022 14.413C13.5143 14.413 13.5238 16.6419 13.5232 19.3661L13.5221 24.3192L13.4192 24.0729C13.3626 23.9374 13.1961 23.5177 13.0492 23.1403C12.5817 21.9397 12.4916 21.7159 12.4615 21.6808C12.4441 21.6604 11.4033 22.6759 9.8829 24.1969C7.52527 26.5554 7.3336 26.756 7.3336 26.8647C7.3336 27.0622 7.50761 28.1235 7.63459 28.7004C7.83076 29.592 8.05398 30.3355 8.39334 31.2284C8.56591 31.6824 8.91631 32.4659 8.94684 32.4659C8.95912 32.4659 12.4633 28.9701 16.7339 24.6975L24.4987 16.9292L32.2708 24.7048C36.5455 28.9814 40.0511 32.4723 40.0612 32.4623C40.0935 32.4299 40.3658 31.8251 40.5111 31.4629C40.8595 30.5946 41.1416 29.6882 41.3491 28.7708C41.4676 28.2465 41.6634 27.0639 41.6637 26.8705C41.6639 26.7534 41.2377 26.321 33.09 18.1696C28.3745 13.4518 24.5084 9.59186 24.4987 9.59186C24.489 9.59186 22.7993 11.2744 20.7438 13.3308ZM22.9967 23.3514C22.6732 23.4362 22.2855 23.6064 22.0571 23.764C21.6415 24.0507 21.1963 24.5739 21.0135 24.9905C20.8935 25.2639 20.7702 25.7744 20.7702 25.9977V26.2019H22.23H23.6897V24.7415V23.2811L23.4699 23.283C23.349 23.2841 23.136 23.3148 22.9967 23.3514ZM25.3077 24.7415V26.2019H26.7675H28.2272V25.9977C28.2272 25.7744 28.1039 25.2639 27.9839 24.9905C27.8011 24.5739 27.3559 24.0507 26.9403 23.764C26.5618 23.5029 25.9063 23.2811 25.5132 23.2811H25.3077V24.7415ZM20.7702 28.9116V30.3896H22.23H23.6897V28.9116V27.4336H22.23H20.7702V28.9116ZM25.3077 28.9116V30.3896H26.7675H28.2272V28.9116V27.4336H26.7675H25.3077V28.9116ZM30.2512 31.6296C30.2415 31.6734 30.2293 31.7647 30.2241 31.8324L30.2146 31.9556L29.1874 31.9732C28.5739 31.9837 28.1462 32.005 28.1254 32.026C28.1062 32.0453 28.0857 32.1483 28.0797 32.2547L28.0689 32.4483L24.657 32.4683C21.0524 32.4895 21.1083 32.4871 20.3657 32.6577C19.5805 32.8381 18.5471 33.2991 17.7765 33.8127C16.6775 34.5451 15.5073 35.7273 14.6946 36.926C14.5471 37.1435 14.4341 37.3291 14.4433 37.3384C14.4525 37.3476 14.6789 37.2453 14.9463 37.1111C16.2428 36.4601 17.7398 36.0052 18.9913 35.882C20.0917 35.7736 21.3833 35.907 21.8429 36.1765C22.4475 36.531 22.8197 37.5186 22.9138 39.0175C22.9467 39.5423 22.9859 39.6582 23.1669 39.7652L23.2676 39.8247V42.1325V44.4404L22.9598 44.4166C18.8755 44.1005 15.0268 42.5531 11.8359 39.9438C10.9522 39.2212 10.0657 38.3489 9.26622 37.415L8.93896 37.0328L8.65606 37.327C5.81407 40.2829 5.8211 40.2755 5.8211 40.3313C5.8211 40.3825 6.55808 41.1914 7.12256 41.7598C9.25954 43.9117 11.5967 45.5399 14.4007 46.83C18.5456 48.7369 23.491 49.4267 28.0865 48.7387C32.922 48.0148 37.2783 45.9551 40.9428 42.6599C41.6817 41.9955 43.1763 40.4296 43.1763 40.3199C43.1763 40.2996 42.9429 40.0402 42.6575 39.7433C42.0394 39.1003 40.7755 37.7818 40.3578 37.3443L40.0597 37.0322L39.7325 37.4147C36.9682 40.6461 33.3731 42.88 29.3164 43.887C28.5757 44.0709 27.6565 44.2403 26.9433 44.3243C26.7692 44.3449 26.5753 44.3683 26.5125 44.3764L26.3981 44.3911V42.1053V39.8196L26.5125 39.7645C26.6795 39.684 26.761 39.5541 26.7739 39.3481C26.8477 38.1658 26.9097 37.7461 27.0875 37.224C27.2526 36.7393 27.541 36.2855 27.8182 36.0739C27.9181 35.9978 27.9545 35.9871 28.0115 36.0176C28.05 36.0382 28.0867 36.0908 28.0928 36.1344L28.1041 36.2137L29.1212 36.223C29.7999 36.2293 30.1539 36.2453 30.1852 36.2713C30.2133 36.2946 30.2322 36.3835 30.2322 36.4924C30.2322 36.5927 30.2511 36.6937 30.2744 36.7169C30.3398 36.7824 32.882 36.777 32.9365 36.7113C32.9654 36.6764 32.9738 35.9686 32.9672 34.1159L32.9582 31.5685L31.6135 31.5593L30.2689 31.55L30.2512 31.6296Z" fill="url(#paint0_linear_1_8305)"/>
<path d="M30.2245 31.8338C30.2297 31.7661 30.242 31.6748 30.2517 31.631L30.2693 31.5514L31.614 31.5607L32.9586 31.5699L32.9677 34.1173C32.9742 35.97 32.9659 36.6778 32.937 36.7127C32.8825 36.7784 30.3403 36.7838 30.2748 36.7183C30.2516 36.6951 30.2326 36.5941 30.2326 36.4938C30.2326 36.3849 30.2138 36.296 30.1857 36.2727C30.1544 36.2467 29.8004 36.2306 29.1217 36.2244L28.1046 36.2151L28.0933 36.1358C28.0871 36.0922 28.0505 36.0396 28.0119 36.019C27.955 35.9885 27.9185 35.9992 27.8187 36.0753C27.5414 36.2869 27.2531 36.7407 27.088 37.2253C26.9101 37.7475 26.8481 38.1672 26.7743 39.3495C26.7615 39.5555 26.6799 39.6854 26.5129 39.7659L26.3986 39.821V42.1067V44.3925L26.5129 44.3778C26.5758 44.3697 26.7697 44.3463 26.9438 44.3257C27.657 44.2416 28.5761 44.0723 29.3168 43.8884C33.3735 42.8814 36.9687 40.6475 39.733 37.4161L40.0602 37.0336L40.3582 37.3457C40.7759 37.7832 42.0399 39.1017 42.658 39.7447C42.9434 40.0416 43.1768 40.301 43.1768 40.3213C43.1768 40.4309 41.6821 41.9969 40.9432 42.6613C37.2788 45.9565 32.9225 48.0162 28.087 48.7401C23.4914 49.4281 18.546 48.7383 14.4012 46.8314C11.5972 45.5413 9.26001 43.9131 7.12302 41.7612C6.55854 41.1928 5.82156 40.3839 5.82156 40.3327C5.82156 40.2769 5.81453 40.2843 8.65652 37.3284L8.93943 37.0342L9.26669 37.4164C10.0662 38.3503 10.9527 39.2226 11.8364 39.9452C15.0273 42.5545 18.8759 44.1019 22.9603 44.4179L23.2681 44.4418V42.1339V39.8261L23.1673 39.7665C22.9864 39.6596 22.9471 39.5436 22.9142 39.0189C22.8202 37.52 22.448 36.5324 21.8434 36.1779C21.3837 35.9084 20.0922 35.775 18.9917 35.8834C17.7403 36.0066 16.2433 36.4615 14.9468 37.1125C14.6794 37.2467 14.453 37.349 14.4438 37.3398C14.4345 37.3305 14.5476 37.1449 14.6951 36.9274C15.5077 35.7286 16.678 34.5465 17.7769 33.8141C18.5476 33.3005 19.581 32.8395 20.3662 32.6591C21.1088 32.4885 21.0528 32.4909 24.6575 32.4697L28.0694 32.4496L28.0802 32.2561C28.0861 32.1496 28.1067 32.0467 28.1259 32.0274C28.1467 32.0063 28.5744 31.9851 29.1879 31.9746L30.215 31.957L30.2245 31.8338Z" fill="url(#paint1_linear_1_8305)"/>
<defs>
<linearGradient id="paint0_linear_1_8305" x1="24.4995" y1="-1.19574e-09" x2="24.5195" y2="32.4252" gradientUnits="userSpaceOnUse">
<stop stop-color="#FFA509"/>
<stop offset="1" stop-color="#F66C4F"/>
</linearGradient>
<linearGradient id="paint1_linear_1_8305" x1="24.8625" y1="31.2298" x2="24.8625" y2="49.0003" gradientUnits="userSpaceOnUse">
<stop stop-color="#411515"/>
<stop offset="1"/>
</linearGradient>
</defs>
</svg>
