<svg width="227" height="70" viewBox="0 0 227 70" fill="none" xmlns="http://www.w3.org/2000/svg">
<path fill-rule="evenodd" clip-rule="evenodd" d="M32.8885 0.0102946C28.4263 0.315455 24.3935 1.32746 20.4012 3.144C19.4231 3.58907 19.2426 3.67977 18.2154 4.24283C14.0881 6.50504 10.5079 9.52126 7.58299 13.2002C3.04976 18.9022 0.446041 25.7699 0.0279588 33.128C-0.025809 34.0745 0.00258673 36.8171 0.0738417 37.5578C0.319716 40.1139 0.513529 41.3532 0.954375 43.1884C1.72823 46.4103 2.96961 49.5363 4.60777 52.3885C5.367 53.7105 6.04121 54.7472 6.13016 54.7295C6.21448 54.7127 10.7783 50.1946 10.7783 50.1279C10.7783 50.0936 10.5983 49.7578 10.3783 49.3816C9.66808 48.1674 9.04583 46.8965 8.49071 45.5262C7.98193 44.2701 7.39461 42.3354 7.10954 40.9764C5.61439 33.8485 6.83532 26.4824 10.532 20.3282C13.3282 15.6732 17.3925 11.9053 22.2354 9.47827C23.8495 8.66942 25.3133 8.09263 27.0092 7.59734C28.6595 7.11536 30.174 6.81774 32.0593 6.60483C32.931 6.5064 33.3211 6.49137 34.999 6.49137C36.6768 6.49137 37.067 6.5064 37.9386 6.60483C39.8239 6.81774 41.3384 7.11536 42.9888 7.59734C44.6846 8.09263 46.1484 8.66942 47.7625 9.47827C51.7061 11.4546 55.1311 14.3126 57.7957 17.8505C61.735 23.081 63.7694 29.6007 63.4903 36.0999C63.4064 38.0542 63.1021 40.2535 62.7044 41.7808C61.9464 44.6916 60.996 47.0361 59.6293 49.3669C59.404 49.7512 59.2196 50.0936 59.2196 50.1279C59.2196 50.1946 63.7834 54.7127 63.8678 54.7295C64.0299 54.7617 65.5745 52.1667 66.4282 50.4278C68.5306 46.1456 69.6963 41.6574 69.9733 36.7786C70.0262 35.847 69.9959 33.2157 69.923 32.4048C69.764 30.6365 69.68 30.0004 69.4117 28.5337C68.1327 21.5422 64.5956 14.9207 59.4792 9.93999C54.1836 4.78503 47.5984 1.49517 40.3004 0.358739C38.5297 0.0830389 37.5952 0.0166274 35.3005 0.00355625C34.1259 -0.00313014 33.0405 -0.000112051 32.8885 0.0102946ZM29.6347 19.0445L24.2956 24.3861V21.6201V18.8541L23.9816 18.6846C23.0965 18.207 22.2933 17.7708 21.6896 17.4396C21.3203 17.2371 21.0092 17.0713 20.9984 17.0713C20.9875 17.0713 20.6962 16.9129 20.351 16.7194C20.0058 16.5258 19.695 16.3681 19.6603 16.3689C19.6256 16.3696 19.4842 16.5516 19.346 16.7731C19.2078 16.9947 18.9591 17.3845 18.7932 17.6392C18.6274 17.894 18.3119 18.3851 18.0921 18.7306C17.8723 19.0761 17.5545 19.5737 17.3857 19.8363C17.217 20.099 16.9851 20.461 16.8705 20.6407C16.7558 20.8205 16.4365 21.3179 16.1609 21.7461C15.8853 22.1744 15.6686 22.5336 15.6795 22.5445C15.6903 22.5553 16.271 22.2476 16.9699 21.8605C17.6687 21.4734 18.3535 21.0944 18.4917 21.0183C18.6299 20.9422 18.8588 20.8148 19.0004 20.7352C19.1419 20.6556 19.2719 20.5905 19.2893 20.5905C19.3066 20.5905 19.3202 23.7747 19.3193 27.6665L19.3177 34.7425L19.1707 34.3906C19.0899 34.197 18.852 33.5975 18.6421 33.0583C17.9742 31.3431 17.8455 31.0234 17.8026 30.9733C17.7776 30.9441 16.2908 32.3949 14.1187 34.5677C10.7506 37.9372 10.4768 38.2237 10.4768 38.379C10.4768 38.6612 10.7254 40.1773 10.9068 41.0015C11.187 42.2752 11.5059 43.3375 11.9908 44.613C12.2373 45.2616 12.7379 46.3808 12.7815 46.3808C12.799 46.3808 17.8051 41.3868 23.9062 35.283L34.999 24.1851L46.1022 35.2934C52.209 41.403 57.2172 46.39 57.2315 46.3757C57.2777 46.3294 57.6667 45.4655 57.8744 44.948C58.3721 43.7075 58.7751 42.4127 59.0714 41.1021C59.2408 40.3531 59.5205 38.6635 59.5209 38.3873C59.5211 38.22 58.9124 37.6022 47.2726 25.9571C40.5358 19.2173 35.0127 13.703 34.9989 13.703C34.9851 13.703 32.5712 16.1066 29.6347 19.0445ZM32.8532 33.3599C32.391 33.4811 31.8371 33.7242 31.5109 33.9493C30.9172 34.3589 30.2811 35.1064 30.02 35.7014C29.8486 36.0921 29.6724 36.8213 29.6724 37.1404V37.4321H31.7578H33.8432V35.3458V33.2594L33.5291 33.2622C33.3564 33.2637 33.0522 33.3076 32.8532 33.3599ZM36.1547 35.3458V37.4321H38.2401H40.3255V37.1404C40.3255 36.8213 40.1494 36.0921 39.9779 35.7014C39.7168 35.1064 39.0807 34.3589 38.487 33.9493C37.9463 33.5763 37.0098 33.2594 36.4482 33.2594H36.1547V35.3458ZM29.6724 41.3032V43.4147H31.7578H33.8432V41.3032V39.1917H31.7578H29.6724V41.3032ZM36.1547 41.3032V43.4147H38.2401H40.3255V41.3032V39.1917H38.2401H36.1547V41.3032ZM43.217 45.1862C43.2031 45.2488 43.1856 45.3791 43.1782 45.4759L43.1646 45.6519L41.6972 45.677C40.8208 45.692 40.2098 45.7224 40.1801 45.7524C40.1527 45.78 40.1233 45.9271 40.1148 46.0792L40.0994 46.3557L35.2251 46.3844C30.0755 46.4147 30.1554 46.4111 29.0946 46.6549C27.9728 46.9126 26.4965 47.5711 25.3955 48.3049C23.8256 49.3512 22.1537 51.0401 20.9928 52.7525C20.7821 53.0633 20.6205 53.3285 20.6338 53.3417C20.6469 53.3549 20.9703 53.2088 21.3523 53.017C23.2045 52.087 25.3432 51.4371 27.131 51.2611C28.7031 51.1063 30.5482 51.2969 31.2049 51.6819C32.0686 52.1883 32.6004 53.5992 32.7347 55.7405C32.7817 56.4902 32.8378 56.6559 33.0963 56.8086L33.2402 56.8937V60.1907V63.4877L32.8005 63.4536C26.9655 63.0022 21.4674 60.7915 16.9088 57.0639C15.6464 56.0316 14.38 54.7853 13.2378 53.4512L12.7702 52.9051L12.3661 53.3255C8.306 57.5483 8.31605 57.5377 8.31605 57.6174C8.31605 57.6905 9.36889 58.8462 10.1753 59.6582C13.2282 62.7325 16.5671 65.0584 20.5729 66.9015C26.4942 69.6257 33.5593 70.6111 40.1245 69.6282C47.0325 68.5941 53.2559 65.6516 58.491 60.9441C59.5466 59.9949 61.6819 57.7578 61.6819 57.6011C61.6819 57.5722 61.3484 57.2015 60.9407 56.7775C60.0576 55.8588 58.252 53.9752 57.6553 53.3502L57.2295 52.9043L56.762 53.4508C52.8129 58.0672 47.6769 61.2585 41.8815 62.6971C40.8233 62.9598 39.5102 63.2018 38.4914 63.3219C38.2426 63.3512 37.9656 63.3847 37.8758 63.3962L37.7125 63.4172V60.1518V56.8864L37.8758 56.8077C38.1144 56.6926 38.2309 56.5071 38.2492 56.2128C38.3547 54.5238 38.4432 53.9242 38.6973 53.1783C38.9332 52.4859 39.3451 51.8376 39.7412 51.5353C39.8838 51.4265 39.936 51.4113 40.0173 51.4548C40.0724 51.4843 40.1247 51.5595 40.1335 51.6217L40.1496 51.735L41.6027 51.7483C42.5723 51.7572 43.078 51.7802 43.1227 51.8173C43.1628 51.8506 43.1898 51.9776 43.1898 52.1332C43.1898 52.2764 43.2169 52.4207 43.2501 52.4539C43.3436 52.5474 46.9753 52.5397 47.0532 52.4458C47.0945 52.3961 47.1064 51.3848 47.0971 48.7381L47.0842 45.0988L45.1632 45.0857L43.2422 45.0725L43.217 45.1862Z" fill="url(#paint0_linear_5_2)"/>
<path d="M43.1779 45.4759C43.1853 45.3792 43.2028 45.2488 43.2166 45.1863L43.2419 45.0725L45.1628 45.0857L47.0838 45.0989L47.0967 48.7382C47.1061 51.3848 47.0941 52.3961 47.0529 52.4459C46.975 52.5398 43.3432 52.5475 43.2497 52.4539C43.2165 52.4207 43.1894 52.2764 43.1894 52.1333C43.1894 51.9777 43.1625 51.8506 43.1224 51.8173C43.0777 51.7802 42.5719 51.7573 41.6023 51.7484L40.1493 51.735L40.1332 51.6218C40.1243 51.5595 40.072 51.4844 40.0169 51.4549C39.9356 51.4113 39.8835 51.4266 39.7409 51.5354C39.3448 51.8377 38.9328 52.486 38.697 53.1783C38.4429 53.9243 38.3543 54.5239 38.2489 56.2129C38.2305 56.5071 38.114 56.6927 37.8754 56.8077L37.7121 56.8864V60.1519V63.4173L37.8754 63.3963C37.9652 63.3847 38.2423 63.3513 38.491 63.3219C39.5098 63.2018 40.8229 62.9598 41.8811 62.6972C47.6765 61.2586 52.8125 58.0672 56.7616 53.4508L57.2291 52.9043L57.6549 53.3503C58.2516 53.9752 60.0573 55.8588 60.9403 56.7775C61.348 57.2015 61.6815 57.5722 61.6815 57.6011C61.6815 57.7578 59.5462 59.995 58.4906 60.9442C53.2556 65.6516 47.0322 68.5942 40.1241 69.6283C33.5589 70.6111 26.4939 69.6258 20.5726 66.9015C16.5667 65.0585 13.2279 62.7325 10.175 59.6582C9.36854 58.8462 8.3157 57.6906 8.3157 57.6175C8.3157 57.5377 8.30565 57.5484 12.3657 53.3255L12.7699 52.9052L13.2374 53.4512C14.3796 54.7853 15.646 56.0316 16.9084 57.0639C21.4671 60.7915 26.9652 63.0022 32.8002 63.4537L33.2399 63.4877V60.1907V56.8937L33.0959 56.8087C32.8374 56.6559 32.7814 56.4902 32.7343 55.7405C32.6 53.5992 32.0682 52.1883 31.2046 51.682C30.5479 51.297 28.7027 51.1064 27.1306 51.2612C25.3428 51.4372 23.2042 52.087 21.352 53.017C20.97 53.2088 20.6466 53.355 20.6334 53.3417C20.6202 53.3285 20.7817 53.0634 20.9924 52.7526C22.1534 51.0401 23.8252 49.3512 25.3952 48.3049C26.4962 47.5712 27.9725 46.9127 29.0942 46.6549C30.155 46.4112 30.0751 46.4147 35.2247 46.3844L40.099 46.3557L40.1144 46.0792C40.1229 45.9271 40.1523 45.7801 40.1797 45.7524C40.2095 45.7224 40.8204 45.6921 41.6969 45.677L43.1643 45.6519L43.1779 45.4759Z" fill="url(#paint1_linear_5_2)"/>
<path d="M78.624 13.946V11.06H93.106V13.946H87.464V29H84.266V13.946H78.624ZM97.2522 29V11.06H109.316V13.946H100.424V18.262H108.536V21.148H100.424V26.114H109.316V29H97.2522ZM114.117 29V11.06H122.749C125.574 11.06 126.987 12.4727 126.987 15.298V18.756C126.987 21.564 125.574 22.968 122.749 22.968H117.289V29H114.117ZM117.289 20.082H122.671C123.433 20.082 123.815 19.7007 123.815 18.938V15.064C123.815 14.3187 123.433 13.946 122.671 13.946H117.289V20.082ZM131.921 29V11.06H135.093V26.114H143.205V29H131.921ZM147.078 24.762V15.298C147.078 12.4727 148.49 11.06 151.316 11.06H157.27C160.095 11.06 161.508 12.4727 161.508 15.298V24.762C161.508 27.5873 160.095 29 157.27 29H151.316C148.49 29 147.078 27.5873 147.078 24.762ZM150.25 24.996C150.25 25.7413 150.631 26.114 151.394 26.114H157.192C157.954 26.114 158.336 25.7413 158.336 24.996V15.064C158.336 14.3187 157.954 13.946 157.192 13.946H151.394C150.631 13.946 150.25 14.3187 150.25 15.064V24.996ZM166.97 29V11.06H173.86C178.54 11.06 180.88 13.4087 180.88 18.106V21.954C180.88 26.6513 178.54 29 173.86 29H166.97ZM170.142 26.114H174.042C176.486 26.114 177.708 24.892 177.708 22.448V17.612C177.708 15.168 176.486 13.946 174.042 13.946H170.142V26.114ZM185.809 24.762V15.298C185.809 12.4727 187.221 11.06 190.047 11.06H196.001C198.826 11.06 200.239 12.4727 200.239 15.298V24.762C200.239 27.5873 198.826 29 196.001 29H190.047C187.221 29 185.809 27.5873 185.809 24.762ZM188.981 24.996C188.981 25.7413 189.362 26.114 190.125 26.114H195.923C196.685 26.114 197.067 25.7413 197.067 24.996V15.064C197.067 14.3187 196.685 13.946 195.923 13.946H190.125C189.362 13.946 188.981 14.3187 188.981 15.064V24.996ZM205.701 29V11.06H209.601L214.983 22.552L220.365 11.06H224.265V29H221.067V16.468L216.335 26.556H213.605L208.873 16.468V29H205.701Z" fill="url(#paint2_linear_5_2)"/>
<path d="M85.196 49C85.1093 49 85.066 48.9523 85.066 48.857V40.628C85.066 40.5327 85.1093 40.485 85.196 40.485H86.132C86.2273 40.485 86.275 40.5327 86.275 40.628V44.502C86.275 45.0133 86.2663 45.4423 86.249 45.789C86.2403 46.127 86.2273 46.4173 86.21 46.66C86.2013 46.894 86.1927 47.115 86.184 47.323H86.21C86.3227 47.115 86.4397 46.894 86.561 46.66C86.6823 46.426 86.8383 46.14 87.029 45.802C87.2283 45.4553 87.484 45.022 87.796 44.502L90.149 40.576C90.1923 40.5153 90.2443 40.485 90.305 40.485H91.384C91.4793 40.485 91.527 40.5327 91.527 40.628V48.857C91.527 48.9523 91.4793 49 91.384 49H90.448C90.3527 49 90.305 48.9523 90.305 48.857V45.139C90.305 44.5063 90.318 43.93 90.344 43.41C90.37 42.89 90.3917 42.474 90.409 42.162H90.383C90.279 42.3613 90.162 42.578 90.032 42.812C89.9107 43.046 89.746 43.345 89.538 43.709C89.33 44.0643 89.044 44.541 88.68 45.139L86.431 48.909C86.3877 48.9697 86.3357 49 86.275 49H85.196ZM98.939 49C98.8437 49 98.796 48.9523 98.796 48.857V42.773C98.796 42.6863 98.8437 42.643 98.939 42.643H99.901C99.9877 42.643 100.031 42.6863 100.031 42.773V48.857C100.031 48.9523 99.9877 49 99.901 49H98.939ZM94.948 49C94.8614 49 94.818 48.9523 94.818 48.857V42.773C94.818 42.6863 94.8614 42.643 94.948 42.643H95.91C96.0054 42.643 96.053 42.6863 96.053 42.773V48.857C96.053 48.9523 96.0054 49 95.91 49H94.948ZM95.845 46.283V45.23H99.03V46.283H95.845ZM103.332 49C103.245 49 103.202 48.9523 103.202 48.857V44.242C103.202 43.9993 103.193 43.7523 103.176 43.501C103.167 43.241 103.146 43.007 103.111 42.799C103.094 42.695 103.141 42.643 103.254 42.643H104.125C104.212 42.643 104.259 42.6733 104.268 42.734C104.285 42.864 104.307 43.0027 104.333 43.15C104.359 43.2973 104.376 43.4447 104.385 43.592C104.758 43.2193 105.117 42.942 105.464 42.76C105.811 42.578 106.188 42.487 106.595 42.487C107.037 42.487 107.392 42.5867 107.661 42.786C107.93 42.9853 108.12 43.28 108.233 43.67C108.632 43.2627 109.009 42.9637 109.364 42.773C109.719 42.5823 110.105 42.487 110.521 42.487C111.11 42.487 111.552 42.669 111.847 43.033C112.15 43.3883 112.302 43.9213 112.302 44.632V48.857C112.302 48.9523 112.254 49 112.159 49H111.197C111.11 49 111.067 48.9523 111.067 48.857V44.762C111.067 44.3633 110.993 44.0643 110.846 43.865C110.707 43.6657 110.482 43.566 110.17 43.566C109.893 43.566 109.615 43.6527 109.338 43.826C109.061 43.9907 108.736 44.2463 108.363 44.593V48.857C108.363 48.9523 108.32 49 108.233 49H107.271C107.176 49 107.128 48.9523 107.128 48.857V44.762C107.128 44.3633 107.054 44.0643 106.907 43.865C106.768 43.6657 106.543 43.566 106.231 43.566C105.962 43.566 105.685 43.6527 105.399 43.826C105.122 43.9907 104.801 44.2463 104.437 44.593V48.857C104.437 48.9523 104.389 49 104.294 49H103.332ZM117.941 49.156C117.074 49.156 116.416 48.9567 115.965 48.558C115.514 48.1593 115.289 47.5743 115.289 46.803V45.035C115.289 44.203 115.51 43.5703 115.952 43.137C116.403 42.7037 117.061 42.487 117.928 42.487C118.795 42.487 119.449 42.6993 119.891 43.124C120.342 43.5487 120.567 44.164 120.567 44.97V45.984C120.567 46.0707 120.524 46.114 120.437 46.114H116.511V46.53C116.511 47.076 116.628 47.4747 116.862 47.726C117.096 47.9773 117.473 48.103 117.993 48.103C118.383 48.103 118.682 48.0423 118.89 47.921C119.107 47.791 119.215 47.6003 119.215 47.349C119.215 47.2537 119.263 47.206 119.358 47.206H120.32C120.389 47.206 120.433 47.245 120.45 47.323C120.485 47.9037 120.277 48.3543 119.826 48.675C119.384 48.9957 118.756 49.156 117.941 49.156ZM116.511 45.139H119.345V45.074C119.345 44.5453 119.228 44.1597 118.994 43.917C118.76 43.6657 118.413 43.54 117.954 43.54C117.469 43.54 117.105 43.67 116.862 43.93C116.628 44.1813 116.511 44.567 116.511 45.087V45.139ZM126.501 49.156C126.18 49.156 125.842 49.1127 125.487 49.026C125.132 48.9393 124.846 48.8267 124.629 48.688L124.59 47.661C124.833 47.7997 125.097 47.908 125.383 47.986C125.678 48.0553 125.951 48.09 126.202 48.09C126.679 48.09 127.025 47.9513 127.242 47.674C127.467 47.388 127.58 46.9633 127.58 46.4V44.996C127.58 44.502 127.493 44.1423 127.32 43.917C127.155 43.683 126.9 43.566 126.553 43.566C126.258 43.566 125.959 43.6527 125.656 43.826C125.361 43.9993 124.984 44.2983 124.525 44.723L124.499 43.644C124.785 43.384 125.054 43.1673 125.305 42.994C125.556 42.8207 125.808 42.695 126.059 42.617C126.319 42.5303 126.592 42.487 126.878 42.487C127.519 42.487 128 42.682 128.321 43.072C128.65 43.462 128.815 44.06 128.815 44.866V46.543C128.815 47.3923 128.616 48.0423 128.217 48.493C127.827 48.935 127.255 49.156 126.501 49.156ZM123.68 51.405C123.593 51.405 123.55 51.3573 123.55 51.262V44.138C123.55 43.93 123.541 43.7047 123.524 43.462C123.507 43.2193 123.485 42.9983 123.459 42.799C123.45 42.695 123.494 42.643 123.589 42.643H124.473C124.568 42.643 124.62 42.6863 124.629 42.773C124.646 42.8337 124.664 42.9203 124.681 43.033C124.698 43.1457 124.711 43.2583 124.72 43.371C124.729 43.475 124.729 43.553 124.72 43.605L124.785 44.281V51.262C124.785 51.3573 124.737 51.405 124.642 51.405H123.68ZM135.966 49C135.871 49 135.823 48.9523 135.823 48.857V42.773C135.823 42.6863 135.871 42.643 135.966 42.643H136.928C137.015 42.643 137.058 42.6863 137.058 42.773V48.857C137.058 48.9523 137.015 49 136.928 49H135.966ZM131.975 49C131.889 49 131.845 48.9523 131.845 48.857V42.773C131.845 42.6863 131.889 42.643 131.975 42.643H132.937C133.033 42.643 133.08 42.6863 133.08 42.773V48.857C133.08 48.9523 133.033 49 132.937 49H131.975ZM132.872 46.283V45.23H136.057V46.283H132.872ZM142.712 49.156C141.845 49.156 141.187 48.9567 140.736 48.558C140.285 48.1593 140.06 47.5743 140.06 46.803V45.035C140.06 44.203 140.281 43.5703 140.723 43.137C141.174 42.7037 141.832 42.487 142.699 42.487C143.566 42.487 144.22 42.6993 144.662 43.124C145.113 43.5487 145.338 44.164 145.338 44.97V45.984C145.338 46.0707 145.295 46.114 145.208 46.114H141.282V46.53C141.282 47.076 141.399 47.4747 141.633 47.726C141.867 47.9773 142.244 48.103 142.764 48.103C143.154 48.103 143.453 48.0423 143.661 47.921C143.878 47.791 143.986 47.6003 143.986 47.349C143.986 47.2537 144.034 47.206 144.129 47.206H145.091C145.16 47.206 145.204 47.245 145.221 47.323C145.256 47.9037 145.048 48.3543 144.597 48.675C144.155 48.9957 143.527 49.156 142.712 49.156ZM141.282 45.139H144.116V45.074C144.116 44.5453 143.999 44.1597 143.765 43.917C143.531 43.6657 143.184 43.54 142.725 43.54C142.24 43.54 141.876 43.67 141.633 43.93C141.399 44.1813 141.282 44.567 141.282 45.087V45.139ZM148.451 49C148.364 49 148.321 48.9523 148.321 48.857V44.242C148.321 43.9993 148.312 43.7523 148.295 43.501C148.286 43.241 148.265 43.007 148.23 42.799C148.213 42.695 148.26 42.643 148.373 42.643H149.244C149.331 42.643 149.378 42.6733 149.387 42.734C149.404 42.864 149.426 43.0027 149.452 43.15C149.478 43.2973 149.495 43.4447 149.504 43.592C149.877 43.2193 150.236 42.942 150.583 42.76C150.93 42.578 151.307 42.487 151.714 42.487C152.156 42.487 152.511 42.5867 152.78 42.786C153.049 42.9853 153.239 43.28 153.352 43.67C153.751 43.2627 154.128 42.9637 154.483 42.773C154.838 42.5823 155.224 42.487 155.64 42.487C156.229 42.487 156.671 42.669 156.966 43.033C157.269 43.3883 157.421 43.9213 157.421 44.632V48.857C157.421 48.9523 157.373 49 157.278 49H156.316C156.229 49 156.186 48.9523 156.186 48.857V44.762C156.186 44.3633 156.112 44.0643 155.965 43.865C155.826 43.6657 155.601 43.566 155.289 43.566C155.012 43.566 154.734 43.6527 154.457 43.826C154.18 43.9907 153.855 44.2463 153.482 44.593V48.857C153.482 48.9523 153.439 49 153.352 49H152.39C152.295 49 152.247 48.9523 152.247 48.857V44.762C152.247 44.3633 152.173 44.0643 152.026 43.865C151.887 43.6657 151.662 43.566 151.35 43.566C151.081 43.566 150.804 43.6527 150.518 43.826C150.241 43.9907 149.92 44.2463 149.556 44.593V48.857C149.556 48.9523 149.508 49 149.413 49H148.451ZM164.594 49C164.508 49 164.464 48.9523 164.464 48.857L164.568 42.773C164.568 42.6863 164.616 42.643 164.711 42.643H165.738C165.799 42.643 165.847 42.6777 165.881 42.747L167.74 46.387L169.586 42.747C169.63 42.6777 169.682 42.643 169.742 42.643H170.769C170.865 42.643 170.912 42.6863 170.912 42.773L171.016 48.857C171.016 48.9523 170.969 49 170.873 49H169.976C169.881 49 169.833 48.9523 169.833 48.857L169.807 45.932C169.807 45.8107 169.812 45.6633 169.82 45.49C169.829 45.3167 169.838 45.1347 169.846 44.944C169.864 44.7533 169.877 44.58 169.885 44.424H169.846C169.76 44.6407 169.669 44.8487 169.573 45.048C169.478 45.2387 169.387 45.412 169.3 45.568L167.857 48.168C167.831 48.2113 167.792 48.233 167.74 48.233C167.714 48.233 167.693 48.2287 167.675 48.22C167.658 48.2113 167.641 48.194 167.623 48.168L166.167 45.568C166.089 45.412 166.003 45.2387 165.907 45.048C165.821 44.8487 165.73 44.6407 165.634 44.424H165.595C165.604 44.58 165.613 44.7533 165.621 44.944C165.63 45.1347 165.639 45.3167 165.647 45.49C165.656 45.6633 165.66 45.8107 165.66 45.932L165.647 48.857C165.647 48.9523 165.6 49 165.504 49H164.594ZM177.775 49C177.723 49 177.684 48.9827 177.658 48.948C177.64 48.9133 177.623 48.87 177.606 48.818C177.597 48.7487 177.575 48.6013 177.541 48.376C177.515 48.1507 177.497 47.947 177.489 47.765L177.437 47.258V44.671C177.437 44.255 177.354 43.9603 177.19 43.787C177.025 43.6137 176.735 43.527 176.319 43.527C175.573 43.527 175.205 43.787 175.214 44.307C175.214 44.4023 175.17 44.45 175.084 44.45H174.135C174.039 44.45 173.987 44.3677 173.979 44.203C173.935 43.683 174.13 43.267 174.564 42.955C174.997 42.643 175.595 42.487 176.358 42.487C177.146 42.487 177.727 42.6647 178.1 43.02C178.481 43.3753 178.672 43.9213 178.672 44.658V47.414C178.672 47.7087 178.676 47.9773 178.685 48.22C178.702 48.454 178.724 48.662 178.75 48.844C178.767 48.948 178.724 49 178.62 49H177.775ZM175.279 49.156C174.776 49.156 174.39 49.0043 174.122 48.701C173.853 48.389 173.719 47.9427 173.719 47.362C173.719 46.9113 173.805 46.5473 173.979 46.27C174.161 45.984 174.447 45.763 174.837 45.607C175.235 45.4423 175.764 45.334 176.423 45.282L177.632 45.178V46.049L176.436 46.153C175.872 46.205 175.482 46.3133 175.266 46.478C175.049 46.634 174.941 46.8983 174.941 47.271C174.941 47.5483 174.997 47.7607 175.11 47.908C175.231 48.0467 175.409 48.116 175.643 48.116C175.92 48.116 176.206 48.0207 176.501 47.83C176.804 47.6393 177.194 47.297 177.671 46.803L177.697 47.791C177.402 48.1117 177.125 48.3717 176.865 48.571C176.605 48.7703 176.345 48.9177 176.085 49.013C175.833 49.1083 175.565 49.156 175.279 49.156ZM183.886 49.156C183.114 49.156 182.529 49.039 182.131 48.805C181.732 48.5623 181.528 48.1333 181.52 47.518C181.511 47.0327 181.619 46.6427 181.845 46.348C182.07 46.0447 182.421 45.802 182.898 45.62L184.367 45.061C184.679 44.9483 184.887 44.827 184.991 44.697C185.103 44.567 185.16 44.3937 185.16 44.177C185.16 43.9343 185.069 43.7653 184.887 43.67C184.713 43.566 184.436 43.514 184.055 43.514C183.647 43.514 183.344 43.5747 183.145 43.696C182.945 43.8173 182.846 43.995 182.846 44.229C182.846 44.359 182.807 44.424 182.729 44.424H181.78C181.693 44.424 181.641 44.359 181.624 44.229C181.572 43.7177 181.754 43.3017 182.17 42.981C182.594 42.6517 183.223 42.487 184.055 42.487C184.8 42.487 185.376 42.6257 185.784 42.903C186.191 43.1803 186.395 43.605 186.395 44.177C186.395 44.619 186.286 44.9787 186.07 45.256C185.862 45.5333 185.515 45.763 185.03 45.945L183.522 46.504C183.236 46.608 183.032 46.7337 182.911 46.881C182.798 47.0283 182.746 47.2233 182.755 47.466C182.763 47.7433 182.863 47.9253 183.054 48.012C183.253 48.0987 183.552 48.142 183.951 48.142C184.393 48.1333 184.722 48.064 184.939 47.934C185.164 47.804 185.277 47.6003 185.277 47.323C185.277 47.193 185.316 47.128 185.394 47.128H186.343C186.386 47.128 186.416 47.1367 186.434 47.154C186.46 47.1713 186.477 47.2233 186.486 47.31C186.529 47.8647 186.351 48.311 185.953 48.649C185.554 48.987 184.865 49.156 183.886 49.156ZM193.057 49C193.005 49 192.966 48.9827 192.94 48.948C192.923 48.9133 192.906 48.87 192.888 48.818C192.88 48.7487 192.858 48.6013 192.823 48.376C192.797 48.1507 192.78 47.947 192.771 47.765L192.719 47.258V44.671C192.719 44.255 192.637 43.9603 192.472 43.787C192.308 43.6137 192.017 43.527 191.601 43.527C190.856 43.527 190.488 43.787 190.496 44.307C190.496 44.4023 190.453 44.45 190.366 44.45H189.417C189.322 44.45 189.27 44.3677 189.261 44.203C189.218 43.683 189.413 43.267 189.846 42.955C190.28 42.643 190.878 42.487 191.64 42.487C192.429 42.487 193.01 42.6647 193.382 43.02C193.764 43.3753 193.954 43.9213 193.954 44.658V47.414C193.954 47.7087 193.959 47.9773 193.967 48.22C193.985 48.454 194.006 48.662 194.032 48.844C194.05 48.948 194.006 49 193.902 49H193.057ZM190.561 49.156C190.059 49.156 189.673 49.0043 189.404 48.701C189.136 48.389 189.001 47.9427 189.001 47.362C189.001 46.9113 189.088 46.5473 189.261 46.27C189.443 45.984 189.729 45.763 190.119 45.607C190.518 45.4423 191.047 45.334 191.705 45.282L192.914 45.178V46.049L191.718 46.153C191.155 46.205 190.765 46.3133 190.548 46.478C190.332 46.634 190.223 46.8983 190.223 47.271C190.223 47.5483 190.28 47.7607 190.392 47.908C190.514 48.0467 190.691 48.116 190.925 48.116C191.203 48.116 191.489 48.0207 191.783 47.83C192.087 47.6393 192.477 47.297 192.953 46.803L192.979 47.791C192.685 48.1117 192.407 48.3717 192.147 48.571C191.887 48.7703 191.627 48.9177 191.367 49.013C191.116 49.1083 190.847 49.156 190.561 49.156ZM199.012 51.561C198.475 51.561 198.016 51.4787 197.634 51.314C197.262 51.158 196.984 50.937 196.802 50.651C196.629 50.3737 196.564 50.0487 196.607 49.676C196.625 49.5807 196.646 49.5157 196.672 49.481C196.698 49.455 196.733 49.442 196.776 49.442H197.725C197.803 49.442 197.842 49.5113 197.842 49.65C197.842 49.9187 197.942 50.131 198.141 50.287C198.349 50.4517 198.644 50.534 199.025 50.534C199.502 50.534 199.862 50.4213 200.104 50.196C200.347 49.9707 200.468 49.6457 200.468 49.221V48.454C200.468 48.0727 200.343 47.791 200.091 47.609C199.84 47.4183 199.454 47.323 198.934 47.323H197.907C197.864 47.323 197.829 47.31 197.803 47.284C197.777 47.2493 197.764 47.2147 197.764 47.18V46.413C197.764 46.3697 197.777 46.3393 197.803 46.322C197.829 46.296 197.864 46.283 197.907 46.283H198.83C199.281 46.283 199.632 46.166 199.883 45.932C200.143 45.6893 200.273 45.3643 200.273 44.957V44.658C200.273 44.268 200.169 43.9777 199.961 43.787C199.762 43.5963 199.45 43.501 199.025 43.501C198.67 43.501 198.397 43.566 198.206 43.696C198.024 43.826 197.933 44.0123 197.933 44.255C197.933 44.3157 197.92 44.3633 197.894 44.398C197.877 44.4327 197.847 44.45 197.803 44.45H196.854C196.75 44.45 196.694 44.372 196.685 44.216C196.651 43.8693 196.729 43.5703 196.919 43.319C197.119 43.059 197.409 42.8553 197.79 42.708C198.18 42.5607 198.64 42.487 199.168 42.487C199.922 42.487 200.49 42.6517 200.871 42.981C201.261 43.3103 201.456 43.8043 201.456 44.463V44.931C201.456 45.3123 201.361 45.659 201.17 45.971C200.98 46.283 200.707 46.5213 200.351 46.686V46.699C200.811 46.8117 201.149 47.024 201.365 47.336C201.582 47.6393 201.69 48.0033 201.69 48.428V49.091C201.69 49.611 201.586 50.053 201.378 50.417C201.179 50.7897 200.88 51.0713 200.481 51.262C200.083 51.4613 199.593 51.561 199.012 51.561ZM206.326 49.156C205.771 49.156 205.346 48.974 205.052 48.61C204.757 48.2373 204.61 47.7 204.61 46.998V42.773C204.61 42.6863 204.653 42.643 204.74 42.643H205.702C205.797 42.643 205.845 42.6863 205.845 42.773V46.881C205.845 47.2883 205.914 47.5917 206.053 47.791C206.2 47.9817 206.425 48.077 206.729 48.077C207.041 48.077 207.353 47.9817 207.665 47.791C207.977 47.5917 208.358 47.2623 208.809 46.803V47.869C208.54 48.1377 208.267 48.3717 207.99 48.571C207.721 48.7617 207.448 48.9047 207.171 49C206.902 49.104 206.62 49.156 206.326 49.156ZM208.926 49C208.822 49 208.765 48.9567 208.757 48.87C208.731 48.7053 208.709 48.5363 208.692 48.363C208.674 48.1897 208.661 48.012 208.653 47.83L208.575 47.258V42.773C208.575 42.6863 208.618 42.643 208.705 42.643H209.667C209.762 42.643 209.81 42.6863 209.81 42.773V47.401C209.81 47.6437 209.814 47.8907 209.823 48.142C209.84 48.3847 209.862 48.623 209.888 48.857C209.905 48.9523 209.857 49 209.745 49H208.926ZM217.089 49C216.994 49 216.946 48.9523 216.946 48.857V42.773C216.946 42.6863 216.994 42.643 217.089 42.643H218.051C218.138 42.643 218.181 42.6863 218.181 42.773V48.857C218.181 48.9523 218.138 49 218.051 49H217.089ZM213.098 49C213.012 49 212.968 48.9523 212.968 48.857V42.773C212.968 42.6863 213.012 42.643 213.098 42.643H214.06C214.156 42.643 214.203 42.6863 214.203 42.773V48.857C214.203 48.9523 214.156 49 214.06 49H213.098ZM213.995 46.283V45.23H217.18V46.283H213.995ZM87.471 63.156C86.587 63.156 85.9153 62.9393 85.456 62.506C84.9967 62.064 84.767 61.4313 84.767 60.608V59.035C84.767 58.2117 85.001 57.5833 85.469 57.15C85.937 56.708 86.613 56.487 87.497 56.487C88.0257 56.487 88.4763 56.5693 88.849 56.734C89.2303 56.8987 89.5207 57.124 89.72 57.41C89.9193 57.696 90.019 58.0297 90.019 58.411C90.019 58.6017 89.9713 58.697 89.876 58.697H88.927C88.8403 58.697 88.797 58.632 88.797 58.502C88.797 58.1987 88.68 57.969 88.446 57.813C88.212 57.6483 87.8957 57.566 87.497 57.566C86.9943 57.566 86.6173 57.696 86.366 57.956C86.1233 58.2073 86.002 58.606 86.002 59.152V60.491C86.002 61.0283 86.1233 61.427 86.366 61.687C86.6173 61.947 86.99 62.077 87.484 62.077C87.8913 62.077 88.2077 61.9903 88.433 61.817C88.667 61.635 88.784 61.414 88.784 61.154C88.784 61.0153 88.8273 60.946 88.914 60.946H89.863C89.9583 60.946 90.006 60.9893 90.006 61.076C90.006 61.7087 89.7893 62.2157 89.356 62.597C88.9227 62.9697 88.2943 63.156 87.471 63.156ZM93.0056 63C92.919 63 92.8756 62.9523 92.8756 62.857V58.242C92.8756 57.9993 92.867 57.7523 92.8496 57.501C92.841 57.241 92.8193 57.007 92.7846 56.799C92.7673 56.695 92.815 56.643 92.9276 56.643H93.7986C93.8853 56.643 93.933 56.6733 93.9416 56.734C93.959 56.864 93.9806 57.0027 94.0066 57.15C94.0326 57.2973 94.05 57.4447 94.0586 57.592C94.4313 57.2193 94.791 56.942 95.1376 56.76C95.4843 56.578 95.8613 56.487 96.2686 56.487C96.7106 56.487 97.066 56.5867 97.3346 56.786C97.6033 56.9853 97.794 57.28 97.9066 57.67C98.3053 57.2627 98.6823 56.9637 99.0376 56.773C99.393 56.5823 99.7786 56.487 100.195 56.487C100.784 56.487 101.226 56.669 101.521 57.033C101.824 57.3883 101.976 57.9213 101.976 58.632V62.857C101.976 62.9523 101.928 63 101.833 63H100.871C100.784 63 100.741 62.9523 100.741 62.857V58.762C100.741 58.3633 100.667 58.0643 100.52 57.865C100.381 57.6657 100.156 57.566 99.8436 57.566C99.5663 57.566 99.289 57.6527 99.0116 57.826C98.7343 57.9907 98.4093 58.2463 98.0366 58.593V62.857C98.0366 62.9523 97.9933 63 97.9066 63H96.9446C96.8493 63 96.8016 62.9523 96.8016 62.857V58.762C96.8016 58.3633 96.728 58.0643 96.5806 57.865C96.442 57.6657 96.2166 57.566 95.9046 57.566C95.636 57.566 95.3586 57.6527 95.0726 57.826C94.7953 57.9907 94.4746 58.2463 94.1106 58.593V62.857C94.1106 62.9523 94.063 63 93.9676 63H93.0056ZM108.083 63.156C107.762 63.156 107.424 63.1127 107.069 63.026C106.713 62.9393 106.427 62.8267 106.211 62.688L106.172 61.661C106.414 61.7997 106.679 61.908 106.965 61.986C107.259 62.0553 107.532 62.09 107.784 62.09C108.26 62.09 108.607 61.9513 108.824 61.674C109.049 61.388 109.162 60.9633 109.162 60.4V58.996C109.162 58.502 109.075 58.1423 108.902 57.917C108.737 57.683 108.481 57.566 108.135 57.566C107.84 57.566 107.541 57.6527 107.238 57.826C106.943 57.9993 106.566 58.2983 106.107 58.723L106.081 57.644C106.367 57.384 106.635 57.1673 106.887 56.994C107.138 56.8207 107.389 56.695 107.641 56.617C107.901 56.5303 108.174 56.487 108.46 56.487C109.101 56.487 109.582 56.682 109.903 57.072C110.232 57.462 110.397 58.06 110.397 58.866V60.543C110.397 61.3923 110.197 62.0423 109.799 62.493C109.409 62.935 108.837 63.156 108.083 63.156ZM105.262 65.405C105.175 65.405 105.132 65.3573 105.132 65.262V58.138C105.132 57.93 105.123 57.7047 105.106 57.462C105.088 57.2193 105.067 56.9983 105.041 56.799C105.032 56.695 105.075 56.643 105.171 56.643H106.055C106.15 56.643 106.202 56.6863 106.211 56.773C106.228 56.8337 106.245 56.9203 106.263 57.033C106.28 57.1457 106.293 57.2583 106.302 57.371C106.31 57.475 106.31 57.553 106.302 57.605L106.367 58.281V65.262C106.367 65.3573 106.319 65.405 106.224 65.405H105.262ZM115.988 63.156C115.104 63.156 114.428 62.9437 113.96 62.519C113.492 62.0857 113.258 61.4313 113.258 60.556V59.087C113.258 58.2117 113.487 57.5617 113.947 57.137C114.415 56.7037 115.095 56.487 115.988 56.487C116.88 56.487 117.561 56.7037 118.029 57.137C118.497 57.5617 118.731 58.2117 118.731 59.087V60.556C118.731 61.4313 118.497 62.0857 118.029 62.519C117.569 62.9437 116.889 63.156 115.988 63.156ZM115.988 62.077C116.516 62.077 116.898 61.9427 117.132 61.674C117.374 61.4053 117.496 60.9937 117.496 60.439V59.191C117.496 58.645 117.374 58.2377 117.132 57.969C116.898 57.7003 116.516 57.566 115.988 57.566C115.459 57.566 115.078 57.7003 114.844 57.969C114.61 58.2377 114.493 58.645 114.493 59.191V60.439C114.493 60.9937 114.61 61.4053 114.844 61.674C115.078 61.9427 115.459 62.077 115.988 62.077ZM123.438 63.156C122.883 63.156 122.459 62.974 122.164 62.61C121.869 62.2373 121.722 61.7 121.722 60.998V56.773C121.722 56.6863 121.765 56.643 121.852 56.643H122.814C122.909 56.643 122.957 56.6863 122.957 56.773V60.881C122.957 61.2883 123.026 61.5917 123.165 61.791C123.312 61.9817 123.538 62.077 123.841 62.077C124.153 62.077 124.465 61.9817 124.777 61.791C125.089 61.5917 125.47 61.2623 125.921 60.803V61.869C125.652 62.1377 125.379 62.3717 125.102 62.571C124.833 62.7617 124.56 62.9047 124.283 63C124.014 63.104 123.733 63.156 123.438 63.156ZM126.038 63C125.934 63 125.878 62.9567 125.869 62.87C125.843 62.7053 125.821 62.5363 125.804 62.363C125.787 62.1897 125.774 62.012 125.765 61.83L125.687 61.258V56.773C125.687 56.6863 125.73 56.643 125.817 56.643H126.779C126.874 56.643 126.922 56.6863 126.922 56.773V61.401C126.922 61.6437 126.926 61.8907 126.935 62.142C126.952 62.3847 126.974 62.623 127 62.857C127.017 62.9523 126.97 63 126.857 63H126.038ZM124.322 55.772C124.027 55.772 123.772 55.733 123.555 55.655C123.347 55.5683 123.174 55.4773 123.035 55.382C122.905 55.278 122.805 55.1913 122.736 55.122C122.701 55.0873 122.684 55.0353 122.684 54.966V54.212C122.684 54.16 122.697 54.1253 122.723 54.108C122.749 54.082 122.788 54.0907 122.84 54.134C122.961 54.2553 123.152 54.394 123.412 54.55C123.672 54.706 123.975 54.784 124.322 54.784C124.677 54.784 124.985 54.706 125.245 54.55C125.505 54.394 125.691 54.2553 125.804 54.134C125.856 54.0907 125.895 54.082 125.921 54.108C125.947 54.1253 125.96 54.16 125.96 54.212V54.966C125.96 55.0007 125.956 55.031 125.947 55.057C125.938 55.083 125.925 55.109 125.908 55.135C125.839 55.1957 125.735 55.278 125.596 55.382C125.466 55.4773 125.297 55.5683 125.089 55.655C124.881 55.733 124.625 55.772 124.322 55.772ZM134.098 63C134.011 63 133.968 62.9523 133.968 62.857L134.072 56.773C134.072 56.6863 134.119 56.643 134.215 56.643H135.242C135.302 56.643 135.35 56.6777 135.385 56.747L137.244 60.387L139.09 56.747C139.133 56.6777 139.185 56.643 139.246 56.643H140.273C140.368 56.643 140.416 56.6863 140.416 56.773L140.52 62.857C140.52 62.9523 140.472 63 140.377 63H139.48C139.384 63 139.337 62.9523 139.337 62.857L139.311 59.932C139.311 59.8107 139.315 59.6633 139.324 59.49C139.332 59.3167 139.341 59.1347 139.35 58.944C139.367 58.7533 139.38 58.58 139.389 58.424H139.35C139.263 58.6407 139.172 58.8487 139.077 59.048C138.981 59.2387 138.89 59.412 138.804 59.568L137.361 62.168C137.335 62.2113 137.296 62.233 137.244 62.233C137.218 62.233 137.196 62.2287 137.179 62.22C137.161 62.2113 137.144 62.194 137.127 62.168L135.671 59.568C135.593 59.412 135.506 59.2387 135.411 59.048C135.324 58.8487 135.233 58.6407 135.138 58.424H135.099C135.107 58.58 135.116 58.7533 135.125 58.944C135.133 59.1347 135.142 59.3167 135.151 59.49C135.159 59.6633 135.164 59.8107 135.164 59.932L135.151 62.857C135.151 62.9523 135.103 63 135.008 63H134.098ZM147.278 63C147.226 63 147.187 62.9827 147.161 62.948C147.144 62.9133 147.126 62.87 147.109 62.818C147.1 62.7487 147.079 62.6013 147.044 62.376C147.018 62.1507 147.001 61.947 146.992 61.765L146.94 61.258V58.671C146.94 58.255 146.858 57.9603 146.693 57.787C146.528 57.6137 146.238 57.527 145.822 57.527C145.077 57.527 144.708 57.787 144.717 58.307C144.717 58.4023 144.674 58.45 144.587 58.45H143.638C143.543 58.45 143.491 58.3677 143.482 58.203C143.439 57.683 143.634 57.267 144.067 56.955C144.5 56.643 145.098 56.487 145.861 56.487C146.65 56.487 147.23 56.6647 147.603 57.02C147.984 57.3753 148.175 57.9213 148.175 58.658V61.414C148.175 61.7087 148.179 61.9773 148.188 62.22C148.205 62.454 148.227 62.662 148.253 62.844C148.27 62.948 148.227 63 148.123 63H147.278ZM144.782 63.156C144.279 63.156 143.894 63.0043 143.625 62.701C143.356 62.389 143.222 61.9427 143.222 61.362C143.222 60.9113 143.309 60.5473 143.482 60.27C143.664 59.984 143.95 59.763 144.34 59.607C144.739 59.4423 145.267 59.334 145.926 59.282L147.135 59.178V60.049L145.939 60.153C145.376 60.205 144.986 60.3133 144.769 60.478C144.552 60.634 144.444 60.8983 144.444 61.271C144.444 61.5483 144.5 61.7607 144.613 61.908C144.734 62.0467 144.912 62.116 145.146 62.116C145.423 62.116 145.709 62.0207 146.004 61.83C146.307 61.6393 146.697 61.297 147.174 60.803L147.2 61.791C146.905 62.1117 146.628 62.3717 146.368 62.571C146.108 62.7703 145.848 62.9177 145.588 63.013C145.337 63.1083 145.068 63.156 144.782 63.156ZM151.465 63C151.378 63 151.335 62.9523 151.335 62.857V58.242C151.335 57.9993 151.326 57.7523 151.309 57.501C151.3 57.241 151.279 57.007 151.244 56.799C151.227 56.695 151.274 56.643 151.387 56.643H152.258C152.345 56.643 152.392 56.6733 152.401 56.734C152.418 56.864 152.44 57.0027 152.466 57.15C152.492 57.2973 152.509 57.4447 152.518 57.592C152.891 57.2193 153.25 56.942 153.597 56.76C153.944 56.578 154.321 56.487 154.728 56.487C155.17 56.487 155.525 56.5867 155.794 56.786C156.063 56.9853 156.253 57.28 156.366 57.67C156.765 57.2627 157.142 56.9637 157.497 56.773C157.852 56.5823 158.238 56.487 158.654 56.487C159.243 56.487 159.685 56.669 159.98 57.033C160.283 57.3883 160.435 57.9213 160.435 58.632V62.857C160.435 62.9523 160.387 63 160.292 63H159.33C159.243 63 159.2 62.9523 159.2 62.857V58.762C159.2 58.3633 159.126 58.0643 158.979 57.865C158.84 57.6657 158.615 57.566 158.303 57.566C158.026 57.566 157.748 57.6527 157.471 57.826C157.194 57.9907 156.869 58.2463 156.496 58.593V62.857C156.496 62.9523 156.453 63 156.366 63H155.404C155.309 63 155.261 62.9523 155.261 62.857V58.762C155.261 58.3633 155.187 58.0643 155.04 57.865C154.901 57.6657 154.676 57.566 154.364 57.566C154.095 57.566 153.818 57.6527 153.532 57.826C153.255 57.9907 152.934 58.2463 152.57 58.593V62.857C152.57 62.9523 152.522 63 152.427 63H151.465ZM166.074 63.156C165.207 63.156 164.549 62.9567 164.098 62.558C163.647 62.1593 163.422 61.5743 163.422 60.803V59.035C163.422 58.203 163.643 57.5703 164.085 57.137C164.536 56.7037 165.194 56.487 166.061 56.487C166.928 56.487 167.582 56.6993 168.024 57.124C168.475 57.5487 168.7 58.164 168.7 58.97V59.984C168.7 60.0707 168.657 60.114 168.57 60.114H164.644V60.53C164.644 61.076 164.761 61.4747 164.995 61.726C165.229 61.9773 165.606 62.103 166.126 62.103C166.516 62.103 166.815 62.0423 167.023 61.921C167.24 61.791 167.348 61.6003 167.348 61.349C167.348 61.2537 167.396 61.206 167.491 61.206H168.453C168.522 61.206 168.566 61.245 168.583 61.323C168.618 61.9037 168.41 62.3543 167.959 62.675C167.517 62.9957 166.889 63.156 166.074 63.156ZM164.644 59.139H167.478V59.074C167.478 58.5453 167.361 58.1597 167.127 57.917C166.893 57.6657 166.546 57.54 166.087 57.54C165.602 57.54 165.238 57.67 164.995 57.93C164.761 58.1813 164.644 58.567 164.644 59.087V59.139ZM174.634 63.156C174.313 63.156 173.975 63.1127 173.62 63.026C173.265 62.9393 172.979 62.8267 172.762 62.688L172.723 61.661C172.966 61.7997 173.23 61.908 173.516 61.986C173.811 62.0553 174.084 62.09 174.335 62.09C174.812 62.09 175.158 61.9513 175.375 61.674C175.6 61.388 175.713 60.9633 175.713 60.4V58.996C175.713 58.502 175.626 58.1423 175.453 57.917C175.288 57.683 175.033 57.566 174.686 57.566C174.391 57.566 174.092 57.6527 173.789 57.826C173.494 57.9993 173.117 58.2983 172.658 58.723L172.632 57.644C172.918 57.384 173.187 57.1673 173.438 56.994C173.689 56.8207 173.941 56.695 174.192 56.617C174.452 56.5303 174.725 56.487 175.011 56.487C175.652 56.487 176.133 56.682 176.454 57.072C176.783 57.462 176.948 58.06 176.948 58.866V60.543C176.948 61.3923 176.749 62.0423 176.35 62.493C175.96 62.935 175.388 63.156 174.634 63.156ZM171.813 65.405C171.726 65.405 171.683 65.3573 171.683 65.262V58.138C171.683 57.93 171.674 57.7047 171.657 57.462C171.64 57.2193 171.618 56.9983 171.592 56.799C171.583 56.695 171.627 56.643 171.722 56.643H172.606C172.701 56.643 172.753 56.6863 172.762 56.773C172.779 56.8337 172.797 56.9203 172.814 57.033C172.831 57.1457 172.844 57.2583 172.853 57.371C172.862 57.475 172.862 57.553 172.853 57.605L172.918 58.281V65.262C172.918 65.3573 172.87 65.405 172.775 65.405H171.813ZM181.694 63.156C181.14 63.156 180.715 62.974 180.42 62.61C180.126 62.2373 179.978 61.7 179.978 60.998V56.773C179.978 56.6863 180.022 56.643 180.108 56.643H181.07C181.166 56.643 181.213 56.6863 181.213 56.773V60.881C181.213 61.2883 181.283 61.5917 181.421 61.791C181.569 61.9817 181.794 62.077 182.097 62.077C182.409 62.077 182.721 61.9817 183.033 61.791C183.345 61.5917 183.727 61.2623 184.177 60.803V61.869C183.909 62.1377 183.636 62.3717 183.358 62.571C183.09 62.7617 182.817 62.9047 182.539 63C182.271 63.104 181.989 63.156 181.694 63.156ZM184.294 63C184.19 63 184.134 62.9567 184.125 62.87C184.099 62.7053 184.078 62.5363 184.06 62.363C184.043 62.1897 184.03 62.012 184.021 61.83L183.943 61.258V56.773C183.943 56.6863 183.987 56.643 184.073 56.643H185.035C185.131 56.643 185.178 56.6863 185.178 56.773V61.401C185.178 61.6437 185.183 61.8907 185.191 62.142C185.209 62.3847 185.23 62.623 185.256 62.857C185.274 62.9523 185.226 63 185.113 63H184.294ZM192.042 63C191.99 63 191.951 62.9827 191.925 62.948C191.907 62.9133 191.89 62.87 191.873 62.818C191.864 62.7487 191.842 62.6013 191.808 62.376C191.782 62.1507 191.764 61.947 191.756 61.765L191.704 61.258V58.671C191.704 58.255 191.621 57.9603 191.457 57.787C191.292 57.6137 191.002 57.527 190.586 57.527C189.84 57.527 189.472 57.787 189.481 58.307C189.481 58.4023 189.437 58.45 189.351 58.45H188.402C188.306 58.45 188.254 58.3677 188.246 58.203C188.202 57.683 188.397 57.267 188.831 56.955C189.264 56.643 189.862 56.487 190.625 56.487C191.413 56.487 191.994 56.6647 192.367 57.02C192.748 57.3753 192.939 57.9213 192.939 58.658V61.414C192.939 61.7087 192.943 61.9773 192.952 62.22C192.969 62.454 192.991 62.662 193.017 62.844C193.034 62.948 192.991 63 192.887 63H192.042ZM189.546 63.156C189.043 63.156 188.657 63.0043 188.389 62.701C188.12 62.389 187.986 61.9427 187.986 61.362C187.986 60.9113 188.072 60.5473 188.246 60.27C188.428 59.984 188.714 59.763 189.104 59.607C189.502 59.4423 190.031 59.334 190.69 59.282L191.899 59.178V60.049L190.703 60.153C190.139 60.205 189.749 60.3133 189.533 60.478C189.316 60.634 189.208 60.8983 189.208 61.271C189.208 61.5483 189.264 61.7607 189.377 61.908C189.498 62.0467 189.676 62.116 189.91 62.116C190.187 62.116 190.473 62.0207 190.768 61.83C191.071 61.6393 191.461 61.297 191.938 60.803L191.964 61.791C191.669 62.1117 191.392 62.3717 191.132 62.571C190.872 62.7703 190.612 62.9177 190.352 63.013C190.1 63.1083 189.832 63.156 189.546 63.156ZM195.332 63C195.219 63 195.184 62.9437 195.228 62.831L197.438 56.825C197.472 56.7037 197.546 56.643 197.659 56.643H198.686C198.79 56.643 198.863 56.7037 198.907 56.825L201.104 62.831C201.147 62.9437 201.112 63 201 63H199.973C199.903 63 199.856 62.961 199.83 62.883L198.686 59.503C198.599 59.2517 198.512 59.0047 198.426 58.762C198.339 58.5107 198.257 58.2593 198.179 58.008H198.153C198.083 58.268 198.005 58.5237 197.919 58.775C197.841 59.0177 197.754 59.269 197.659 59.529L196.502 62.883C196.476 62.961 196.428 63 196.359 63H195.332ZM205.952 63.156C205.068 63.156 204.392 62.9437 203.924 62.519C203.456 62.0857 203.222 61.4313 203.222 60.556V59.087C203.222 58.2117 203.452 57.5617 203.911 57.137C204.379 56.7037 205.059 56.487 205.952 56.487C206.845 56.487 207.525 56.7037 207.993 57.137C208.461 57.5617 208.695 58.2117 208.695 59.087V60.556C208.695 61.4313 208.461 62.0857 207.993 62.519C207.534 62.9437 206.853 63.156 205.952 63.156ZM205.952 62.077C206.481 62.077 206.862 61.9427 207.096 61.674C207.339 61.4053 207.46 60.9937 207.46 60.439V59.191C207.46 58.645 207.339 58.2377 207.096 57.969C206.862 57.7003 206.481 57.566 205.952 57.566C205.423 57.566 205.042 57.7003 204.808 57.969C204.574 58.2377 204.457 58.645 204.457 59.191V60.439C204.457 60.9937 204.574 61.4053 204.808 61.674C205.042 61.9427 205.423 62.077 205.952 62.077ZM214.234 63.156C213.385 63.156 212.743 62.9437 212.31 62.519C211.885 62.0943 211.673 61.4573 211.673 60.608V56.318C211.673 55.8067 211.768 55.3777 211.959 55.031C212.15 54.6843 212.436 54.42 212.817 54.238C213.198 54.056 213.675 53.965 214.247 53.965C215.027 53.965 215.608 54.1253 215.989 54.446C216.37 54.7667 216.561 55.2433 216.561 55.876C216.561 56.344 216.466 56.7513 216.275 57.098C216.084 57.4447 215.824 57.6873 215.495 57.826V57.839C216.032 57.9257 216.414 58.1423 216.639 58.489C216.873 58.8357 216.99 59.295 216.99 59.867V60.491C216.99 61.3663 216.752 62.0293 216.275 62.48C215.807 62.9307 215.127 63.156 214.234 63.156ZM214.273 62.077C214.776 62.077 215.148 61.9427 215.391 61.674C215.634 61.4053 215.755 61.0023 215.755 60.465V59.802C215.755 59.386 215.66 59.0827 215.469 58.892C215.287 58.7013 214.997 58.606 214.598 58.606C214.451 58.606 214.286 58.619 214.104 58.645C213.922 58.6623 213.731 58.6927 213.532 58.736C213.333 58.7793 213.12 58.8357 212.895 58.905V60.504C212.895 61.05 213.003 61.4487 213.22 61.7C213.437 61.9513 213.788 62.077 214.273 62.077ZM212.895 57.956L213.883 57.761C214.325 57.6657 214.676 57.4967 214.936 57.254C215.205 57.0113 215.339 56.6517 215.339 56.175C215.339 55.7677 215.244 55.473 215.053 55.291C214.871 55.109 214.581 55.018 214.182 55.018C213.766 55.018 213.445 55.122 213.22 55.33C213.003 55.538 212.895 55.8457 212.895 56.253V57.956Z" fill="black"/>
<defs>
<linearGradient id="paint0_linear_5_2" x1="35" y1="-1.70824e-09" x2="35.0287" y2="46.3227" gradientUnits="userSpaceOnUse">
<stop stop-color="#FFA509"/>
<stop offset="1" stop-color="#F66C4F"/>
</linearGradient>
<linearGradient id="paint1_linear_5_2" x1="35.5176" y1="44.613" x2="35.5176" y2="70" gradientUnits="userSpaceOnUse">
<stop stop-color="#411515"/>
<stop offset="1"/>
</linearGradient>
<linearGradient id="paint2_linear_5_2" x1="152.5" y1="5" x2="152.503" y2="26.8378" gradientUnits="userSpaceOnUse">
<stop stop-color="#FFA509"/>
<stop offset="1" stop-color="#F66C4F"/>
</linearGradient>
</defs>
</svg>
