<svg width="28" height="28" viewBox="0 0 28 28" fill="none" xmlns="http://www.w3.org/2000/svg">
<g opacity="0.3">
<path d="M11.6667 21C13.7375 20.9996 15.7486 20.3063 17.3799 19.0307L21.6837 23.3345C22.1393 23.79 22.8778 23.79 23.3334 23.3345C23.7889 22.879 23.7889 22.1404 23.3334 21.6848L19.0295 17.381C20.3059 15.7496 20.9995 13.738 21 11.6667C21 6.52049 16.8129 2.33333 11.6667 2.33333C6.52054 2.33333 2.33337 6.52049 2.33337 11.6667C2.33337 16.8128 6.52054 21 11.6667 21ZM11.6667 4.66666C15.5272 4.66666 18.6667 7.80616 18.6667 11.6667C18.6667 15.5272 15.5272 18.6667 11.6667 18.6667C7.80621 18.6667 4.66671 15.5272 4.66671 11.6667C4.66671 7.80616 7.80621 4.66666 11.6667 4.66666Z" fill="black"/>
<path d="M13.314 10.017C13.4735 10.177 13.6073 10.3555 13.713 10.5475C14.0242 11.1124 14.5227 11.6667 15.1676 11.6667C15.8117 11.6667 16.3486 11.1371 16.1896 10.513C16.1347 10.2976 16.0643 10.086 15.9787 9.87989C15.7436 9.31358 15.3986 8.79949 14.9636 8.36733C13.4767 6.88232 11.0711 6.64745 9.29427 7.66272C8.73506 7.98224 8.73804 8.73678 9.19281 9.19284C9.64796 9.64928 10.3962 9.61495 11.0177 9.44391C11.8115 9.22546 12.7128 9.41747 13.314 10.017Z" fill="black"/>
</g>
</svg>
