<svg width="28" height="28" viewBox="0 0 28 28" fill="none" xmlns="http://www.w3.org/2000/svg">
<path d="M13.9998 14C17.2215 14 19.8332 11.3883 19.8332 8.16665C19.8332 4.94499 17.2215 2.33331 13.9998 2.33331C10.7782 2.33331 8.1665 4.94499 8.1665 8.16665C8.1665 11.3883 10.7782 14 13.9998 14Z" stroke="black" stroke-width="1.5"/>
<path d="M19.8331 16.3333H20.2437C21.0967 16.3336 21.9202 16.6452 22.5595 17.2098C23.1988 17.7744 23.61 18.553 23.7157 19.3993L24.1719 23.044C24.2129 23.3723 24.1837 23.7056 24.086 24.0218C23.9884 24.3379 23.8247 24.6297 23.6056 24.8777C23.3866 25.1258 23.1174 25.3244 22.8157 25.4604C22.5141 25.5964 22.187 25.6667 21.8561 25.6666H6.14341C5.81252 25.6667 5.48541 25.5964 5.18377 25.4604C4.88213 25.3244 4.61286 25.1258 4.39385 24.8777C4.17484 24.6297 4.01108 24.3379 3.91345 24.0218C3.81582 23.7056 3.78655 23.3723 3.82758 23.044L4.28258 19.3993C4.38839 18.5526 4.7999 17.7737 5.43972 17.209C6.07953 16.6444 6.90359 16.333 7.75691 16.3333H8.16641" stroke="black" stroke-width="1.5" stroke-linecap="round" stroke-linejoin="round"/>
</svg>
