<svg width="72" height="72" viewBox="0 0 72 72" fill="none" xmlns="http://www.w3.org/2000/svg">
<circle cx="36" cy="36" r="36" fill="#FFA30B" fill-opacity="0.15"/>
<path d="M40.5317 16.1013C40.7544 15.8708 40.8776 15.5621 40.8748 15.2416C40.872 14.9212 40.7435 14.6146 40.5169 14.388C40.2902 14.1614 39.9837 14.0329 39.6633 14.0301C39.3428 14.0273 39.0341 14.1505 38.8036 14.3731L36.0011 17.1756L33.1986 14.3731C33.0858 14.2564 32.951 14.1633 32.8019 14.0992C32.6528 14.0352 32.4924 14.0015 32.3301 14C32.1678 13.9986 32.0069 14.0296 31.8567 14.091C31.7065 14.1525 31.57 14.2432 31.4553 14.358C31.3405 14.4727 31.2498 14.6092 31.1883 14.7594C31.1268 14.9096 31.0959 15.0705 31.0973 15.2328C31.0987 15.3951 31.1325 15.5555 31.1965 15.7046C31.2606 15.8537 31.3537 15.9886 31.4704 16.1013L34.2729 18.9038L31.4704 21.7063C31.2478 21.9368 31.1246 22.2455 31.1274 22.566C31.1302 22.8864 31.2587 23.193 31.4853 23.4196C31.7119 23.6462 32.0184 23.7747 32.3389 23.7775C32.6594 23.7803 32.9681 23.6571 33.1986 23.4344L36.0011 20.632L38.8036 23.4344C39.0329 23.6636 39.3439 23.7923 39.6681 23.7922C39.9923 23.7921 40.3032 23.6632 40.5324 23.4338C40.7615 23.2045 40.8902 22.8935 40.8901 22.5693C40.89 22.2451 40.7611 21.9342 40.5317 21.705L37.7293 18.9038L40.5317 16.1013Z" fill="#FFA509"/>
<path fill-rule="evenodd" clip-rule="evenodd" d="M14.8365 39.0075L18.8893 40.358V50.6806C18.8893 50.9348 18.9685 51.1826 19.116 51.3896C19.2634 51.5966 19.4717 51.7525 19.7119 51.8356L35.5906 57.3318C35.8415 57.422 36.1152 57.4267 36.3691 57.3453L36.3862 57.3404L36.4045 57.3343L52.2882 51.8356C52.5283 51.7525 52.7366 51.5966 52.884 51.3896C53.0315 51.1826 53.1107 50.9348 53.1107 50.6806V40.358L57.1635 39.0075C57.3504 38.9453 57.5196 38.8389 57.6565 38.6972C57.7934 38.5556 57.8941 38.383 57.9499 38.194C58.0057 38.0051 58.0151 37.8054 57.9771 37.6121C57.9391 37.4188 57.8549 37.2375 57.7318 37.0838L52.843 30.9728C52.698 30.7923 52.5048 30.6566 52.2857 30.5817L36.3997 25.0818C36.1407 24.9923 35.8593 24.9923 35.6003 25.0818L19.7143 30.5817C19.4952 30.6566 19.3019 30.7922 19.157 30.9728L14.2682 37.0838C14.1451 37.2375 14.0609 37.4188 14.0229 37.6121C13.9849 37.8054 13.9943 38.0051 14.0501 38.194C14.1059 38.383 14.2066 38.5556 14.3435 38.6972C14.4804 38.8389 14.6496 38.9453 14.8365 39.0075ZM32.7233 44.0478L34.7778 41.1146V54.4646L21.3337 49.8104V41.172L31.3361 44.5061C31.586 44.5892 31.856 44.5893 32.106 44.5065C32.3559 44.4237 32.5724 44.2624 32.7233 44.0466V44.0478ZM23.8477 31.7367L36 35.9435L48.1523 31.7367L36 27.5299L23.8477 31.7367ZM39.2767 44.0478L37.2222 41.1158V54.4658L50.6663 49.8117V41.172L40.6639 44.5061C40.414 44.5892 40.144 44.5893 39.894 44.5065C39.6441 44.4237 39.4276 44.2624 39.2767 44.0466V44.0478ZM20.5271 33.174L17.2724 37.2426L24.0079 39.4878L31.2432 41.8992L34.0702 37.8623L33.9052 37.8049L20.5271 33.1727V33.174ZM54.7276 37.2426L51.4729 33.1727L37.9298 37.8623L40.7568 41.8992L54.7276 37.2426Z" fill="#FFA509"/>
</svg>
