<svg width="72" height="72" viewBox="0 0 72 72" fill="none" xmlns="http://www.w3.org/2000/svg">
<circle cx="36" cy="36" r="36" fill="#0053E0" fill-opacity="0.15"/>
<g clip-path="url(#clip0_93_2)">
<path d="M48.2533 57.3333C47.664 57.3328 47.0884 57.1564 46.6 56.8267L36.6533 50.16C36.6043 50.1262 36.5462 50.108 36.4866 50.108C36.4271 50.108 36.369 50.1262 36.32 50.16L26.3733 56.8267C25.8738 57.1602 25.2847 57.3338 24.6842 57.3246C24.0837 57.3154 23.5002 57.1237 23.0112 56.7751C22.5222 56.4264 22.1508 55.9372 21.9463 55.3725C21.7419 54.8078 21.7141 54.1942 21.8666 53.6133L25.1333 42.0933C25.1487 42.0354 25.1469 41.9742 25.1279 41.9173C25.109 41.8605 25.0737 41.8104 25.0266 41.7733L15.6133 34.3733C15.1177 34.0042 14.7502 33.4892 14.5621 32.9005C14.374 32.3119 14.3748 31.6792 14.5645 31.0911C14.7542 30.503 15.1231 29.989 15.6197 29.6211C16.1162 29.2533 16.7154 29.0501 17.3333 29.04L29.3333 28.5867C29.3923 28.5826 29.4489 28.5615 29.4962 28.5261C29.5435 28.4906 29.5795 28.4422 29.6 28.3867L33.7333 17.1467C33.9416 16.5768 34.32 16.0848 34.8173 15.7372C35.3145 15.3896 35.9066 15.2031 36.5133 15.2031C37.12 15.2031 37.7121 15.3896 38.2093 15.7372C38.7065 16.0848 39.085 16.5768 39.2933 17.1467L43.4266 28.3867C43.4471 28.4422 43.4831 28.4906 43.5304 28.5261C43.5777 28.5615 43.6343 28.5826 43.6933 28.5867L55.6933 29.04C56.3112 29.0501 56.9104 29.2533 57.4069 29.6211C57.9034 29.989 58.2724 30.503 58.4621 31.0911C58.6517 31.6792 58.6526 32.3119 58.4645 32.9005C58.2764 33.4892 57.9088 34.0042 57.4133 34.3733L48 41.7733C47.9514 41.8092 47.9151 41.8592 47.896 41.9165C47.8769 41.9737 47.876 42.0355 47.8933 42.0933L51.16 53.6133C51.2746 54.0552 51.286 54.5175 51.1932 54.9645C51.1004 55.4115 50.9059 55.8311 50.6249 56.1908C50.3438 56.5505 49.9837 56.8407 49.5724 57.0388C49.1611 57.237 48.7098 57.3377 48.2533 57.3333ZM36.4933 47.44C37.0837 47.4581 37.6551 47.6532 38.1333 48L48.08 54.6667C48.1304 54.705 48.1918 54.7259 48.2551 54.7265C48.3184 54.727 48.3802 54.707 48.4312 54.6694C48.4822 54.6319 48.5197 54.5789 48.5381 54.5184C48.5565 54.4578 48.5548 54.3929 48.5333 54.3333L45.2666 42.8133C45.1059 42.2482 45.1177 41.6479 45.3007 41.0896C45.4836 40.5313 45.8293 40.0404 46.2933 39.68L55.7066 32.28C55.758 32.2439 55.7964 32.1923 55.8163 32.1328C55.8361 32.0733 55.8364 32.009 55.817 31.9493C55.7976 31.8896 55.7596 31.8377 55.7085 31.8013C55.6575 31.7648 55.596 31.7456 55.5333 31.7467L43.5333 31.2933C42.9457 31.2704 42.3783 31.073 41.9033 30.7263C41.4284 30.3796 41.0675 29.8993 40.8666 29.3467L36.7333 18.1067C36.7147 18.047 36.6774 17.9948 36.6271 17.9578C36.5767 17.9207 36.5158 17.9008 36.4533 17.9008C36.3908 17.9008 36.3299 17.9207 36.2795 17.9578C36.2291 17.9948 36.1919 18.047 36.1733 18.1067L32.08 29.3333C31.8791 29.886 31.5182 30.3663 31.0433 30.713C30.5683 31.0597 30.0009 31.2571 29.4133 31.28L17.4133 31.7333C17.3506 31.7323 17.2891 31.7514 17.2381 31.7879C17.187 31.8244 17.149 31.8763 17.1296 31.936C17.1102 31.9956 17.1104 32.06 17.1303 32.1195C17.1502 32.179 17.1886 32.2306 17.24 32.2667L26.6666 39.68C27.1292 40.0416 27.4738 40.5325 27.6566 41.0905C27.8395 41.6484 27.8522 42.2481 27.6933 42.8133L24.44 54.3333C24.4205 54.391 24.4205 54.4535 24.4397 54.5112C24.4589 54.5689 24.4965 54.6188 24.5466 54.6533C24.5949 54.6946 24.6564 54.7173 24.72 54.7173C24.7835 54.7173 24.845 54.6946 24.8933 54.6533L34.84 47.9867C35.3261 47.6642 35.8966 47.4926 36.48 47.4933L36.4933 47.44Z" fill="#0053E0"/>
</g>
<defs>
<clipPath id="clip0_93_2">
<rect width="48" height="48" fill="white" transform="translate(12 12)"/>
</clipPath>
</defs>
</svg>
