<svg width="72" height="72" viewBox="0 0 72 72" fill="none" xmlns="http://www.w3.org/2000/svg">
<circle cx="36" cy="36" r="36" fill="#8500B4" fill-opacity="0.15"/>
<g clip-path="url(#clip0_93_3)">
<path d="M59.6934 22.8799C59.5912 22.231 59.2942 21.6285 58.8418 21.1523C58.3894 20.676 57.8029 20.3485 57.16 20.2133L49.3334 18.4933C48.4941 18.3102 47.6252 18.3095 46.7856 18.4913C45.946 18.673 45.1552 19.0329 44.4667 19.5466L21.3334 36.3999L14.8534 36.1333C14.3325 36.1146 13.8189 36.2606 13.3857 36.5504C12.9525 36.8403 12.6215 37.2592 12.44 37.7478C12.2584 38.2364 12.2354 38.7698 12.3743 39.2722C12.5131 39.7747 12.8067 40.2206 13.2134 40.5466L19.8801 45.7866C20.68 46.7599 21.2134 46.5733 34.4534 39.3599L35.6934 51.9199C35.714 52.2626 35.8315 52.5923 36.0321 52.8708C36.2327 53.1493 36.5083 53.3652 36.8267 53.4933C37.0558 53.5838 37.3004 53.6291 37.5467 53.6266C38.0426 53.6114 38.5162 53.4173 38.88 53.0799L42.0667 50.1733C42.384 49.8793 42.5989 49.4915 42.68 49.0666L45.6 33.1999C50.3601 30.5333 54.8667 28.0266 58.0801 26.1999C58.6549 25.8766 59.1174 25.3854 59.4057 24.7921C59.694 24.1989 59.7944 23.5318 59.6934 22.8799ZM56.76 23.8799C53.4267 25.7733 48.76 28.4266 43.7467 31.1733L43.2 31.4799L40.0934 48.3733L38.1334 50.1599L36.6667 35.0933L34.8934 35.9999C25.3334 41.3333 22.1467 42.8799 21.0534 43.3599L15.3201 38.8133L22.0934 39.1066L46.0934 21.6933C46.4706 21.4112 46.9031 21.212 47.3627 21.1086C47.8222 21.0052 48.2984 21 48.76 21.0933L56.56 22.7733C56.6802 22.7951 56.7903 22.8547 56.8743 22.9434C56.9582 23.0322 57.0116 23.1454 57.0267 23.2666C57.0542 23.3839 57.043 23.507 56.995 23.6174C56.947 23.7279 56.8646 23.82 56.76 23.8799Z" fill="#8500B4"/>
<path d="M21.3335 28.7201L26.0801 30.0534L28.2668 28.4668L22.9335 26.9201L25.3335 25.4534L32.6268 25.2401L35.6935 23.0134L25.3335 23.3334C25.0068 23.3158 24.6822 23.3946 24.4001 23.5601L20.8935 25.6001C20.6035 25.7718 20.371 26.0256 20.225 26.3293C20.0791 26.633 20.0263 26.9731 20.0734 27.3068C20.1204 27.6404 20.2652 27.9527 20.4894 28.2042C20.7137 28.4557 21.0074 28.6352 21.3335 28.7201Z" fill="#8500B4"/>
</g>
<defs>
<clipPath id="clip0_93_3">
<rect width="48" height="48" fill="white" transform="translate(12 12)"/>
</clipPath>
</defs>
</svg>
