<svg width="72" height="72" viewBox="0 0 72 72" fill="none" xmlns="http://www.w3.org/2000/svg">
<circle cx="36" cy="36" r="36" fill="#31CEFF" fill-opacity="0.15"/>
<path d="M38.9499 39.1749V46.5249C38.9499 46.8498 39.079 47.1614 39.3087 47.3911C39.5384 47.6208 39.85 47.7499 40.1749 47.7499H47.5249C47.8498 47.7499 48.1614 47.6208 48.3911 47.3911C48.6208 47.1614 48.7499 46.8498 48.7499 46.5249V39.1749C48.7499 38.85 48.6208 38.5384 48.3911 38.3087C48.1614 38.079 47.8498 37.9499 47.5249 37.9499H40.1749C39.85 37.9499 39.5384 38.079 39.3087 38.3087C39.079 38.5384 38.9499 38.85 38.9499 39.1749ZM41.3999 45.2999V40.3999H46.2999V45.2999H41.3999ZM24.2499 15.8999C24.0704 15.9 23.893 15.9395 23.7304 16.0157C23.5679 16.0919 23.424 16.2029 23.3091 16.3409L17.1841 23.6909C17.0006 23.911 16.9 24.1884 16.8999 24.4749V28.1499C16.8999 30.3255 17.8456 32.2831 19.3499 33.6281V53.8749C19.3499 54.1998 19.479 54.5114 19.7087 54.7411C19.9384 54.9708 20.25 55.0999 20.5749 55.0999H52.4249C52.7498 55.0999 53.0614 54.9708 53.2911 54.7411C53.5208 54.5114 53.6499 54.1998 53.6499 53.8749V33.6281C55.1542 32.2806 56.0999 30.3255 56.0999 28.1499V24.4308C56.0999 24.2103 56.0999 24.0339 55.8157 23.6909L49.6907 16.3409C49.5758 16.2029 49.432 16.0919 49.2694 16.0157C49.1068 15.9395 48.9295 15.9 48.7499 15.8999H24.2499ZM24.2499 33.0499C22.9503 33.0499 21.704 32.5337 20.7851 31.6147C19.8662 30.6958 19.3499 29.4495 19.3499 28.1499V25.6999H29.1499V28.1499C29.1499 29.4495 28.6337 30.6958 27.7147 31.6147C26.7958 32.5337 25.5495 33.0499 24.2499 33.0499ZM36.4999 33.0499C35.2003 33.0499 33.954 32.5337 33.0351 31.6147C32.1162 30.6958 31.5999 29.4495 31.5999 28.1499V25.6999H41.3999V28.1499C41.3999 29.4495 40.8837 30.6958 39.9647 31.6147C39.0458 32.5337 37.7995 33.0499 36.4999 33.0499ZM48.7499 33.0499C47.4503 33.0499 46.204 32.5337 45.2851 31.6147C44.3662 30.6958 43.8499 29.4495 43.8499 28.1499V25.6999H53.6499V28.1499C53.6499 29.4495 53.1337 30.6958 52.2147 31.6147C51.2958 32.5337 50.0495 33.0499 48.7499 33.0499ZM24.2499 52.6499H21.7999V35.0834C23.3441 35.6308 25.0271 35.6459 26.5809 35.1265C28.1348 34.6071 29.4703 33.5829 30.3749 32.2169C31.0454 33.2273 31.9556 34.056 33.0244 34.6289C34.0932 35.2018 35.2873 35.501 36.4999 35.4999C37.7128 35.5007 38.907 35.2011 39.9758 34.6278C41.0446 34.0545 41.9547 33.2254 42.6249 32.2145C43.5295 33.5804 44.865 34.6046 46.4189 35.1241C47.9727 35.6435 49.6557 35.6283 51.1999 35.081V52.6499H36.4999V39.1749C36.4999 38.85 36.3708 38.5384 36.1411 38.3087C35.9114 38.079 35.5998 37.9499 35.2749 37.9499H25.4749C25.15 37.9499 24.8384 38.079 24.6087 38.3087C24.379 38.5384 24.2499 38.85 24.2499 39.1749V52.6499ZM29.4929 23.2499H20.7415L24.8232 18.3499H31.1246L29.4929 23.2499ZM40.9246 23.2499H32.0752L33.7069 18.3499H39.2929L40.9246 23.2499ZM43.5069 23.2499L41.8752 18.3499H48.1766L52.2608 23.2499H43.5069ZM26.6999 52.6499V40.3999H34.0499V52.6499H26.6999Z" fill="#31CEFF"/>
</svg>
