<svg width="72" height="72" viewBox="0 0 72 72" fill="none" xmlns="http://www.w3.org/2000/svg">
<circle cx="36" cy="36" r="36" fill="#00E016" fill-opacity="0.15"/>
<path d="M18 37.5C18 36.6716 18.6716 36 19.5 36H34.5C35.3284 36 36 36.6716 36 37.5C36 38.3284 35.3284 39 34.5 39H19.5C18.6716 39 18 38.3284 18 37.5ZM15 30C15 29.1716 15.6716 28.5 16.5 28.5H28.5C29.3284 28.5 30 29.1716 30 30C30 30.8284 29.3284 31.5 28.5 31.5H16.5C15.6716 31.5 15 30.8284 15 30Z" fill="#00E016"/>
<path d="M56.8785 36.909L52.3785 26.409C52.263 26.1391 52.0708 25.9091 51.8258 25.7475C51.5807 25.5859 51.2936 25.4998 51 25.5H46.5V22.5C46.5 22.1022 46.342 21.7206 46.0607 21.4393C45.7794 21.158 45.3978 21 45 21H22.5C21.6716 21 21 21.6716 21 22.5C21 23.3284 21.6716 24 22.5 24H43.5V42.834C42.8165 43.2309 42.2183 43.7592 41.74 44.3884C41.2617 45.0176 40.9126 45.7352 40.713 46.5H31.287C30.9219 45.086 30.0537 43.8537 28.845 43.0341C27.6363 42.2145 26.1702 41.8638 24.7215 42.0478C23.2728 42.2318 21.9409 42.9379 20.9755 44.0337C20.0101 45.1294 19.4775 46.5396 19.4775 48C19.4775 49.4604 20.0101 50.8706 20.9755 51.9663C21.9409 53.0621 23.2728 53.7682 24.7215 53.9522C26.1702 54.1362 27.6363 53.7855 28.845 52.9659C30.0537 52.1463 30.9219 50.914 31.287 49.5H40.713C41.0393 50.7874 41.7856 51.9292 42.8337 52.7448C43.8818 53.5604 45.1719 54.0032 46.5 54.0032C47.8281 54.0032 49.1182 53.5604 50.1663 52.7448C51.2145 51.9292 51.9607 50.7874 52.287 49.5H55.5C55.8978 49.5 56.2794 49.342 56.5607 49.0607C56.842 48.7794 57 48.3978 57 48V37.5C57.0001 37.2968 56.9587 37.0957 56.8785 36.909ZM25.5 51C24.9067 51 24.3267 50.8241 23.8333 50.4944C23.34 50.1648 22.9554 49.6962 22.7284 49.1481C22.5013 48.5999 22.4419 47.9967 22.5577 47.4147C22.6734 46.8328 22.9591 46.2982 23.3787 45.8787C23.7983 45.4591 24.3328 45.1734 24.9147 45.0576C25.4967 44.9419 26.0999 45.0013 26.6481 45.2284C27.1962 45.4554 27.6648 45.8399 27.9944 46.3333C28.3241 46.8266 28.5 47.4067 28.5 48C28.4992 48.7954 28.1829 49.558 27.6205 50.1204C27.058 50.6829 26.2954 50.9992 25.5 51ZM46.5 28.5H50.01L53.226 36H46.5V28.5ZM46.5 51C45.9067 51 45.3267 50.8241 44.8333 50.4944C44.34 50.1648 43.9554 49.6962 43.7284 49.1481C43.5013 48.5999 43.4419 47.9967 43.5577 47.4147C43.6734 46.8328 43.9591 46.2982 44.3787 45.8787C44.7983 45.4591 45.3328 45.1734 45.9147 45.0576C46.4967 44.9419 47.0999 45.0013 47.6481 45.2284C48.1962 45.4554 48.6648 45.8399 48.9944 46.3333C49.3241 46.8266 49.5 47.4067 49.5 48C49.4992 48.7954 49.1829 49.558 48.6205 50.1204C48.058 50.6829 47.2954 50.9992 46.5 51ZM54 46.5H52.287C51.9566 45.2151 51.2092 44.0763 50.1619 43.2619C49.1146 42.4475 47.8267 42.0037 46.5 42V39H54V46.5Z" fill="#00E016"/>
</svg>
