<svg width="243" height="80" viewBox="0 0 243 80" fill="none" xmlns="http://www.w3.org/2000/svg">
<path fill-rule="evenodd" clip-rule="evenodd" d="M37.5868 0.0117652C32.4872 0.360521 27.8783 1.5171 23.3157 3.59314C22.1978 4.10179 21.9916 4.20545 20.8176 4.84895C16.1007 7.43433 12.009 10.8814 8.66628 15.086C3.48544 21.6025 0.509762 29.4514 0.0319529 37.8606C-0.029496 38.9423 0.00295626 42.0767 0.0843905 42.9232C0.36539 45.8445 0.586891 47.2607 1.09071 49.3582C1.97512 53.0403 3.39384 56.6129 5.26603 59.8726C6.13372 61.3834 6.90424 62.5682 7.00589 62.5479C7.10226 62.5288 12.3181 57.3652 12.3181 57.289C12.3181 57.2499 12.1123 56.8661 11.8609 56.4361C11.0492 55.0485 10.3381 53.596 9.70367 52.0299C9.1222 50.5944 8.45098 48.3833 8.12518 46.8302C6.41644 38.684 7.81179 30.2656 12.0366 23.2322C15.2322 17.9123 19.8772 13.606 25.4119 10.8323C27.2565 9.90791 28.9295 9.24872 30.8676 8.68267C32.7537 8.13184 34.4845 7.79171 36.6392 7.54838C37.6354 7.43588 38.0813 7.4187 39.9988 7.4187C41.9164 7.4187 42.3622 7.43588 43.3584 7.54838C45.5131 7.79171 47.2439 8.13184 49.13 8.68267C51.0681 9.24872 52.7411 9.90791 54.5858 10.8323C59.0927 13.0909 63.007 16.3572 66.0522 20.4006C70.5543 26.3783 72.8793 33.8294 72.5603 41.257C72.4644 43.4905 72.1167 46.004 71.6621 47.7495C70.7959 51.0761 69.7097 53.7556 68.1478 56.4193C67.8903 56.8585 67.6796 57.2499 67.6796 57.289C67.6796 57.3652 72.8954 62.5288 72.9917 62.5479C73.177 62.5848 74.9423 59.6191 75.918 57.6318C78.3207 52.7379 79.653 47.6084 79.9695 42.0326C80.0299 40.968 79.9953 37.9608 79.912 37.034C79.7303 35.0131 79.6343 34.2862 79.3276 32.6099C77.8659 24.6196 73.8235 17.0522 67.9762 11.36C61.9241 5.46861 54.3982 1.70877 46.0576 0.409988C44.034 0.0949016 42.9659 0.0190027 40.3434 0.00406429C39.001 -0.0035773 37.7605 -0.000128059 37.5868 0.0117652ZM33.8682 21.7651L27.7664 27.8698V24.7086V21.5475L27.4075 21.3539C26.396 20.808 25.478 20.3094 24.7881 19.931C24.366 19.6995 24.0105 19.5101 23.9981 19.5101C23.9857 19.5101 23.6528 19.3291 23.2583 19.1079C22.8637 18.8867 22.5085 18.7064 22.4689 18.7073C22.4293 18.7081 22.2676 18.9161 22.1097 19.1693C21.9518 19.4225 21.6675 19.8679 21.478 20.1591C21.2885 20.4503 20.9279 21.0115 20.6767 21.4064C20.4255 21.8012 20.0622 22.3699 19.8694 22.6701C19.6766 22.9703 19.4116 23.384 19.2805 23.5894C19.1495 23.7948 18.7846 24.3633 18.4696 24.8527C18.1546 25.3421 17.907 25.7527 17.9194 25.7651C17.9318 25.7775 18.5954 25.4258 19.3941 24.9834C20.1928 24.541 20.9755 24.1079 21.1334 24.0209C21.2913 23.934 21.5529 23.7883 21.7147 23.6974C21.8765 23.6064 22.025 23.5319 22.0449 23.5319C22.0647 23.5319 22.0802 27.1711 22.0791 31.6188L22.0773 39.7057L21.9094 39.3035C21.817 39.0823 21.5452 38.3971 21.3052 37.7809C20.5419 35.8207 20.3949 35.4553 20.3458 35.398C20.3173 35.3647 18.618 37.0227 16.1357 39.506C12.2864 43.3568 11.9735 43.6842 11.9735 43.8617C11.9735 44.1842 12.2576 45.9169 12.4649 46.8589C12.7852 48.3145 13.1496 49.5285 13.7037 50.9863C13.9855 51.7275 14.5576 53.0066 14.6074 53.0066C14.6275 53.0066 20.3487 47.2992 27.3213 40.3234L39.9988 27.6401L52.6882 40.3353C59.6674 47.3177 65.3911 53.0172 65.4074 53.0008C65.4602 52.9479 65.9048 51.9606 66.1421 51.3692C66.711 49.9514 67.1715 48.4717 67.5102 46.9738C67.7037 46.1178 68.0234 44.1869 68.0238 43.8712C68.0241 43.68 67.3284 42.974 54.0258 29.6653C46.3267 21.9627 40.0145 15.6605 39.9988 15.6605C39.983 15.6605 37.2243 18.4076 33.8682 21.7651ZM37.5465 38.1255C37.0182 38.2641 36.3853 38.542 36.0124 38.7992C35.3339 39.2673 34.607 40.1216 34.3086 40.8016C34.1126 41.2481 33.9113 42.0815 33.9113 42.4461V42.7796H36.2946H38.6779V40.3952V38.0107L38.319 38.0139C38.1216 38.0156 37.774 38.0658 37.5465 38.1255ZM41.3197 40.3952V42.7796H43.703H46.0863V42.4461C46.0863 42.0815 45.885 41.2481 45.689 40.8016C45.3906 40.1216 44.6637 39.2673 43.9852 38.7992C43.3672 38.3729 42.297 38.0107 41.6551 38.0107H41.3197V40.3952ZM33.9113 47.2036V49.6168H36.2946H38.6779V47.2036V44.7905H36.2946H33.9113V47.2036ZM41.3197 47.2036V49.6168H43.703H46.0863V47.2036V44.7905H43.703H41.3197V47.2036ZM49.3909 51.6414C49.375 51.7129 49.355 51.8618 49.3465 51.9725L49.331 52.1735L47.654 52.2023C46.6523 52.2194 45.9541 52.2542 45.9201 52.2885C45.8888 52.3201 45.8552 52.4881 45.8455 52.6619L45.8278 52.9779L40.2572 53.0107C34.372 53.0453 34.4633 53.0413 33.2509 53.3199C31.9689 53.6144 30.2817 54.367 29.0235 55.2056C27.2292 56.4014 25.3185 58.3315 23.9918 60.2886C23.751 60.6438 23.5663 60.9468 23.5814 60.9619C23.5965 60.9771 23.9661 60.81 24.4027 60.5908C26.5194 59.528 28.9636 58.7853 31.0068 58.5841C32.8035 58.4072 34.9123 58.6251 35.6628 59.065C36.6498 59.6437 37.2576 61.2562 37.4111 63.7034C37.4648 64.5602 37.5289 64.7496 37.8243 64.9241L37.9888 65.0214V68.7893V72.5573L37.4863 72.5184C30.8178 72.0025 24.5342 69.476 19.3243 65.2158C17.8816 64.0361 16.4342 62.6118 15.1289 61.0871L14.5946 60.463L14.1327 60.9434C9.49257 65.7695 9.50405 65.7574 9.50405 65.8485C9.50405 65.932 10.7073 67.2528 11.6289 68.1808C15.118 71.6942 18.9338 74.3525 23.5119 76.4588C30.2791 79.5723 38.3535 80.6984 45.8566 79.5751C53.7514 78.3933 60.8639 75.0303 66.8468 69.6504C68.0532 68.5656 70.4936 66.0089 70.4936 65.8298C70.4936 65.7968 70.1124 65.3732 69.6465 64.8885C68.6373 63.8386 66.5737 61.6859 65.8917 60.9717L65.4051 60.462L64.8708 61.0866C60.3576 66.3625 54.4878 70.0098 47.8645 71.6539C46.6552 71.9541 45.1545 72.2306 43.9901 72.3679C43.7058 72.4014 43.3892 72.4396 43.2866 72.4528L43.1 72.4768V68.7449V65.013L43.2866 64.923C43.5593 64.7916 43.6924 64.5795 43.7134 64.2432C43.8339 62.313 43.9351 61.6277 44.2255 60.7752C44.495 59.9839 44.9658 59.243 45.4186 58.8975C45.5815 58.7732 45.6411 58.7558 45.734 58.8055C45.797 58.8392 45.8568 58.9251 45.8669 58.9963L45.8853 59.1257L47.5459 59.1409C48.654 59.1511 49.232 59.1773 49.2831 59.2198C49.3289 59.2578 49.3597 59.403 49.3597 59.5808C49.3597 59.7445 49.3907 59.9094 49.4286 59.9473C49.5355 60.0542 53.6861 60.0454 53.7751 59.9381C53.8222 59.8812 53.8359 58.7255 53.8252 55.7007L53.8105 51.5415L51.6151 51.5265L49.4197 51.5114L49.3909 51.6414Z" fill="white"/>
<path d="M94.624 20.946V18.06H109.106V20.946H103.464V36H100.266V20.946H94.624ZM113.252 36V18.06H125.316V20.946H116.424V25.262H124.536V28.148H116.424V33.114H125.316V36H113.252ZM130.117 36V18.06H138.749C141.574 18.06 142.987 19.4727 142.987 22.298V25.756C142.987 28.564 141.574 29.968 138.749 29.968H133.289V36H130.117ZM133.289 27.082H138.671C139.433 27.082 139.815 26.7007 139.815 25.938V22.064C139.815 21.3187 139.433 20.946 138.671 20.946H133.289V27.082ZM147.921 36V18.06H151.093V33.114H159.205V36H147.921ZM163.078 31.762V22.298C163.078 19.4727 164.49 18.06 167.316 18.06H173.27C176.095 18.06 177.508 19.4727 177.508 22.298V31.762C177.508 34.5873 176.095 36 173.27 36H167.316C164.49 36 163.078 34.5873 163.078 31.762ZM166.25 31.996C166.25 32.7413 166.631 33.114 167.394 33.114H173.192C173.954 33.114 174.336 32.7413 174.336 31.996V22.064C174.336 21.3187 173.954 20.946 173.192 20.946H167.394C166.631 20.946 166.25 21.3187 166.25 22.064V31.996ZM182.97 36V18.06H189.86C194.54 18.06 196.88 20.4087 196.88 25.106V28.954C196.88 33.6513 194.54 36 189.86 36H182.97ZM186.142 33.114H190.042C192.486 33.114 193.708 31.892 193.708 29.448V24.612C193.708 22.168 192.486 20.946 190.042 20.946H186.142V33.114ZM201.809 31.762V22.298C201.809 19.4727 203.221 18.06 206.047 18.06H212.001C214.826 18.06 216.239 19.4727 216.239 22.298V31.762C216.239 34.5873 214.826 36 212.001 36H206.047C203.221 36 201.809 34.5873 201.809 31.762ZM204.981 31.996C204.981 32.7413 205.362 33.114 206.125 33.114H211.923C212.685 33.114 213.067 32.7413 213.067 31.996V22.064C213.067 21.3187 212.685 20.946 211.923 20.946H206.125C205.362 20.946 204.981 21.3187 204.981 22.064V31.996ZM221.701 36V18.06H225.601L230.983 29.552L236.365 18.06H240.265V36H237.067V23.468L232.335 33.556H229.605L224.873 23.468V36H221.701Z" fill="white"/>
<path d="M101.196 53C101.109 53 101.066 52.9523 101.066 52.857V44.628C101.066 44.5327 101.109 44.485 101.196 44.485H102.132C102.227 44.485 102.275 44.5327 102.275 44.628V48.502C102.275 48.892 102.271 49.23 102.262 49.516C102.262 49.7933 102.253 50.0403 102.236 50.257C102.227 50.4737 102.219 50.6687 102.21 50.842C102.201 51.0067 102.193 51.167 102.184 51.323H102.21C102.288 51.167 102.37 51.0067 102.457 50.842C102.552 50.6773 102.656 50.4867 102.769 50.27C102.89 50.0533 103.033 49.802 103.198 49.516C103.363 49.23 103.562 48.892 103.796 48.502L106.149 44.576C106.192 44.5153 106.244 44.485 106.305 44.485H107.384C107.479 44.485 107.527 44.5327 107.527 44.628V52.857C107.527 52.9523 107.479 53 107.384 53H106.448C106.353 53 106.305 52.9523 106.305 52.857V49.139C106.305 48.8183 106.309 48.515 106.318 48.229C106.327 47.9343 106.335 47.6613 106.344 47.41C106.353 47.1587 106.361 46.929 106.37 46.721C106.387 46.5043 106.4 46.318 106.409 46.162H106.383C106.305 46.318 106.218 46.4783 106.123 46.643C106.036 46.8077 105.932 46.9983 105.811 47.215C105.69 47.4317 105.538 47.696 105.356 48.008C105.174 48.32 104.949 48.697 104.68 49.139L102.431 52.909C102.388 52.9697 102.336 53 102.275 53H101.196ZM114.939 53C114.844 53 114.796 52.9523 114.796 52.857V46.773C114.796 46.6863 114.844 46.643 114.939 46.643H115.901C115.988 46.643 116.031 46.6863 116.031 46.773V52.857C116.031 52.9523 115.988 53 115.901 53H114.939ZM110.948 53C110.861 53 110.818 52.9523 110.818 52.857V46.773C110.818 46.6863 110.861 46.643 110.948 46.643H111.91C112.005 46.643 112.053 46.6863 112.053 46.773V52.857C112.053 52.9523 112.005 53 111.91 53H110.948ZM111.845 50.283V49.23H115.03V50.283H111.845ZM119.332 53C119.245 53 119.202 52.9523 119.202 52.857V48.242C119.202 47.9993 119.193 47.7523 119.176 47.501C119.167 47.241 119.146 47.007 119.111 46.799C119.094 46.695 119.141 46.643 119.254 46.643H120.125C120.168 46.643 120.199 46.6473 120.216 46.656C120.242 46.6647 120.259 46.6907 120.268 46.734C120.285 46.864 120.307 47.0027 120.333 47.15C120.359 47.2973 120.376 47.4447 120.385 47.592C120.758 47.2193 121.117 46.942 121.464 46.76C121.811 46.578 122.188 46.487 122.595 46.487C123.037 46.487 123.392 46.5867 123.661 46.786C123.93 46.9853 124.12 47.28 124.233 47.67C124.632 47.2627 125.009 46.9637 125.364 46.773C125.719 46.5823 126.105 46.487 126.521 46.487C127.11 46.487 127.552 46.669 127.847 47.033C128.15 47.3883 128.302 47.9213 128.302 48.632V52.857C128.302 52.9523 128.254 53 128.159 53H127.197C127.11 53 127.067 52.9523 127.067 52.857V48.762C127.067 48.3633 126.993 48.0643 126.846 47.865C126.707 47.6657 126.482 47.566 126.17 47.566C125.893 47.566 125.615 47.6527 125.338 47.826C125.061 47.9907 124.736 48.2463 124.363 48.593V52.857C124.363 52.9523 124.32 53 124.233 53H123.271C123.176 53 123.128 52.9523 123.128 52.857V48.762C123.128 48.3633 123.054 48.0643 122.907 47.865C122.768 47.6657 122.543 47.566 122.231 47.566C121.962 47.566 121.685 47.6527 121.399 47.826C121.122 47.9907 120.801 48.2463 120.437 48.593V52.857C120.437 52.9523 120.389 53 120.294 53H119.332ZM133.941 53.156C133.074 53.156 132.416 52.9567 131.965 52.558C131.514 52.1593 131.289 51.5743 131.289 50.803V49.035C131.289 48.203 131.51 47.5703 131.952 47.137C132.403 46.7037 133.061 46.487 133.928 46.487C134.795 46.487 135.449 46.6993 135.891 47.124C136.342 47.5487 136.567 48.164 136.567 48.97V49.984C136.567 50.0707 136.524 50.114 136.437 50.114H132.511V50.53C132.511 51.076 132.628 51.4747 132.862 51.726C133.096 51.9773 133.473 52.103 133.993 52.103C134.383 52.103 134.682 52.0423 134.89 51.921C135.107 51.791 135.215 51.6003 135.215 51.349C135.215 51.2537 135.263 51.206 135.358 51.206H136.32C136.389 51.206 136.433 51.245 136.45 51.323C136.485 51.9037 136.277 52.3543 135.826 52.675C135.384 52.9957 134.756 53.156 133.941 53.156ZM132.511 49.139H135.345V49.074C135.345 48.5453 135.228 48.1597 134.994 47.917C134.76 47.6657 134.413 47.54 133.954 47.54C133.469 47.54 133.105 47.67 132.862 47.93C132.628 48.1813 132.511 48.567 132.511 49.087V49.139ZM142.501 53.156C142.18 53.156 141.842 53.1127 141.487 53.026C141.132 52.9393 140.846 52.8267 140.629 52.688L140.59 51.661C140.833 51.7997 141.097 51.908 141.383 51.986C141.678 52.0553 141.951 52.09 142.202 52.09C142.679 52.09 143.025 51.9513 143.242 51.674C143.467 51.388 143.58 50.9633 143.58 50.4V48.996C143.58 48.502 143.493 48.1423 143.32 47.917C143.155 47.683 142.9 47.566 142.553 47.566C142.258 47.566 141.959 47.6527 141.656 47.826C141.361 47.9993 140.984 48.2983 140.525 48.723L140.499 47.644C140.785 47.384 141.054 47.1673 141.305 46.994C141.556 46.8207 141.808 46.695 142.059 46.617C142.319 46.5303 142.592 46.487 142.878 46.487C143.519 46.487 144 46.682 144.321 47.072C144.65 47.462 144.815 48.06 144.815 48.866V50.543C144.815 51.3923 144.616 52.0423 144.217 52.493C143.827 52.935 143.255 53.156 142.501 53.156ZM139.68 55.405C139.593 55.405 139.55 55.3573 139.55 55.262V48.138C139.55 47.93 139.541 47.7047 139.524 47.462C139.507 47.2193 139.485 46.9983 139.459 46.799C139.45 46.695 139.494 46.643 139.589 46.643H140.473C140.568 46.643 140.62 46.6863 140.629 46.773C140.646 46.8337 140.664 46.9203 140.681 47.033C140.698 47.1457 140.711 47.2583 140.72 47.371C140.729 47.475 140.729 47.553 140.72 47.605L140.785 48.281V55.262C140.785 55.3573 140.737 55.405 140.642 55.405H139.68ZM151.966 53C151.871 53 151.823 52.9523 151.823 52.857V46.773C151.823 46.6863 151.871 46.643 151.966 46.643H152.928C153.015 46.643 153.058 46.6863 153.058 46.773V52.857C153.058 52.9523 153.015 53 152.928 53H151.966ZM147.975 53C147.889 53 147.845 52.9523 147.845 52.857V46.773C147.845 46.6863 147.889 46.643 147.975 46.643H148.937C149.033 46.643 149.08 46.6863 149.08 46.773V52.857C149.08 52.9523 149.033 53 148.937 53H147.975ZM148.872 50.283V49.23H152.057V50.283H148.872ZM158.712 53.156C157.845 53.156 157.187 52.9567 156.736 52.558C156.285 52.1593 156.06 51.5743 156.06 50.803V49.035C156.06 48.203 156.281 47.5703 156.723 47.137C157.174 46.7037 157.832 46.487 158.699 46.487C159.566 46.487 160.22 46.6993 160.662 47.124C161.113 47.5487 161.338 48.164 161.338 48.97V49.984C161.338 50.0707 161.295 50.114 161.208 50.114H157.282V50.53C157.282 51.076 157.399 51.4747 157.633 51.726C157.867 51.9773 158.244 52.103 158.764 52.103C159.154 52.103 159.453 52.0423 159.661 51.921C159.878 51.791 159.986 51.6003 159.986 51.349C159.986 51.2537 160.034 51.206 160.129 51.206H161.091C161.16 51.206 161.204 51.245 161.221 51.323C161.256 51.9037 161.048 52.3543 160.597 52.675C160.155 52.9957 159.527 53.156 158.712 53.156ZM157.282 49.139H160.116V49.074C160.116 48.5453 159.999 48.1597 159.765 47.917C159.531 47.6657 159.184 47.54 158.725 47.54C158.24 47.54 157.876 47.67 157.633 47.93C157.399 48.1813 157.282 48.567 157.282 49.087V49.139ZM164.451 53C164.364 53 164.321 52.9523 164.321 52.857V48.242C164.321 47.9993 164.312 47.7523 164.295 47.501C164.286 47.241 164.265 47.007 164.23 46.799C164.213 46.695 164.26 46.643 164.373 46.643H165.244C165.287 46.643 165.318 46.6473 165.335 46.656C165.361 46.6647 165.378 46.6907 165.387 46.734C165.404 46.864 165.426 47.0027 165.452 47.15C165.478 47.2973 165.495 47.4447 165.504 47.592C165.877 47.2193 166.236 46.942 166.583 46.76C166.93 46.578 167.307 46.487 167.714 46.487C168.156 46.487 168.511 46.5867 168.78 46.786C169.049 46.9853 169.239 47.28 169.352 47.67C169.751 47.2627 170.128 46.9637 170.483 46.773C170.838 46.5823 171.224 46.487 171.64 46.487C172.229 46.487 172.671 46.669 172.966 47.033C173.269 47.3883 173.421 47.9213 173.421 48.632V52.857C173.421 52.9523 173.373 53 173.278 53H172.316C172.229 53 172.186 52.9523 172.186 52.857V48.762C172.186 48.3633 172.112 48.0643 171.965 47.865C171.826 47.6657 171.601 47.566 171.289 47.566C171.012 47.566 170.734 47.6527 170.457 47.826C170.18 47.9907 169.855 48.2463 169.482 48.593V52.857C169.482 52.9523 169.439 53 169.352 53H168.39C168.295 53 168.247 52.9523 168.247 52.857V48.762C168.247 48.3633 168.173 48.0643 168.026 47.865C167.887 47.6657 167.662 47.566 167.35 47.566C167.081 47.566 166.804 47.6527 166.518 47.826C166.241 47.9907 165.92 48.2463 165.556 48.593V52.857C165.556 52.9523 165.508 53 165.413 53H164.451ZM180.594 53C180.508 53 180.464 52.9523 180.464 52.857L180.568 46.773C180.568 46.6863 180.616 46.643 180.711 46.643H181.738C181.799 46.643 181.847 46.6777 181.881 46.747L183.74 50.387L185.586 46.747C185.63 46.6777 185.682 46.643 185.742 46.643H186.769C186.865 46.643 186.912 46.6863 186.912 46.773L187.016 52.857C187.016 52.9523 186.969 53 186.873 53H185.976C185.881 53 185.833 52.9523 185.833 52.857L185.807 49.932C185.807 49.8107 185.812 49.6633 185.82 49.49C185.829 49.3167 185.838 49.1347 185.846 48.944C185.864 48.7533 185.877 48.58 185.885 48.424H185.846C185.76 48.6407 185.669 48.8487 185.573 49.048C185.478 49.2387 185.387 49.412 185.3 49.568L183.857 52.168C183.849 52.1853 183.831 52.2027 183.805 52.22C183.788 52.2287 183.766 52.233 183.74 52.233C183.714 52.233 183.693 52.2287 183.675 52.22C183.658 52.2113 183.641 52.194 183.623 52.168L182.167 49.568C182.089 49.412 182.003 49.2387 181.907 49.048C181.821 48.8487 181.73 48.6407 181.634 48.424H181.595C181.604 48.58 181.613 48.7533 181.621 48.944C181.63 49.1347 181.639 49.3167 181.647 49.49C181.656 49.6633 181.66 49.8107 181.66 49.932L181.647 52.857C181.647 52.9523 181.6 53 181.504 53H180.594ZM193.775 53C193.723 53 193.684 52.9827 193.658 52.948C193.64 52.9133 193.623 52.87 193.606 52.818C193.597 52.7487 193.575 52.6013 193.541 52.376C193.515 52.1507 193.497 51.947 193.489 51.765L193.437 51.258V48.671C193.437 48.255 193.354 47.9603 193.19 47.787C193.025 47.6137 192.735 47.527 192.319 47.527C191.573 47.527 191.205 47.787 191.214 48.307C191.214 48.4023 191.17 48.45 191.084 48.45H190.135C190.039 48.45 189.987 48.3677 189.979 48.203C189.935 47.683 190.13 47.267 190.564 46.955C190.997 46.643 191.595 46.487 192.358 46.487C193.146 46.487 193.727 46.6647 194.1 47.02C194.481 47.3753 194.672 47.9213 194.672 48.658V51.414C194.672 51.7087 194.676 51.9773 194.685 52.22C194.702 52.454 194.724 52.662 194.75 52.844C194.767 52.948 194.724 53 194.62 53H193.775ZM191.279 53.156C190.776 53.156 190.39 53.0043 190.122 52.701C189.853 52.389 189.719 51.9427 189.719 51.362C189.719 50.9113 189.805 50.5473 189.979 50.27C190.161 49.984 190.447 49.763 190.837 49.607C191.235 49.4423 191.764 49.334 192.423 49.282L193.632 49.178V50.049L192.436 50.153C191.872 50.205 191.482 50.3133 191.266 50.478C191.049 50.634 190.941 50.8983 190.941 51.271C190.941 51.5483 190.997 51.7607 191.11 51.908C191.231 52.0467 191.409 52.116 191.643 52.116C191.92 52.116 192.206 52.0207 192.501 51.83C192.804 51.6393 193.194 51.297 193.671 50.803L193.697 51.791C193.402 52.1117 193.125 52.3717 192.865 52.571C192.605 52.7703 192.345 52.9177 192.085 53.013C191.833 53.1083 191.565 53.156 191.279 53.156ZM199.886 53.156C199.114 53.156 198.529 53.039 198.131 52.805C197.732 52.5623 197.528 52.1333 197.52 51.518C197.511 51.0327 197.619 50.6427 197.845 50.348C198.07 50.0447 198.421 49.802 198.898 49.62L200.367 49.061C200.679 48.9483 200.887 48.827 200.991 48.697C201.103 48.567 201.16 48.3937 201.16 48.177C201.16 47.9343 201.069 47.7653 200.887 47.67C200.713 47.566 200.436 47.514 200.055 47.514C199.647 47.514 199.344 47.5747 199.145 47.696C198.945 47.8173 198.846 47.995 198.846 48.229C198.846 48.2897 198.837 48.3373 198.82 48.372C198.802 48.4067 198.772 48.424 198.729 48.424H197.78C197.693 48.424 197.641 48.359 197.624 48.229C197.572 47.7177 197.754 47.3017 198.17 46.981C198.594 46.6517 199.223 46.487 200.055 46.487C200.8 46.487 201.376 46.6257 201.784 46.903C202.191 47.1803 202.395 47.605 202.395 48.177C202.395 48.619 202.286 48.9787 202.07 49.256C201.862 49.5333 201.515 49.763 201.03 49.945L199.522 50.504C199.236 50.608 199.032 50.7337 198.911 50.881C198.798 51.0283 198.746 51.2233 198.755 51.466C198.763 51.7433 198.863 51.9253 199.054 52.012C199.253 52.0987 199.552 52.142 199.951 52.142C200.393 52.1333 200.722 52.064 200.939 51.934C201.164 51.804 201.277 51.6003 201.277 51.323C201.277 51.193 201.316 51.128 201.394 51.128H202.343C202.386 51.128 202.416 51.1367 202.434 51.154C202.46 51.1713 202.477 51.2233 202.486 51.31C202.529 51.8647 202.351 52.311 201.953 52.649C201.554 52.987 200.865 53.156 199.886 53.156ZM209.057 53C209.005 53 208.966 52.9827 208.94 52.948C208.923 52.9133 208.906 52.87 208.888 52.818C208.88 52.7487 208.858 52.6013 208.823 52.376C208.797 52.1507 208.78 51.947 208.771 51.765L208.719 51.258V48.671C208.719 48.255 208.637 47.9603 208.472 47.787C208.308 47.6137 208.017 47.527 207.601 47.527C206.856 47.527 206.488 47.787 206.496 48.307C206.496 48.4023 206.453 48.45 206.366 48.45H205.417C205.322 48.45 205.27 48.3677 205.261 48.203C205.218 47.683 205.413 47.267 205.846 46.955C206.28 46.643 206.878 46.487 207.64 46.487C208.429 46.487 209.01 46.6647 209.382 47.02C209.764 47.3753 209.954 47.9213 209.954 48.658V51.414C209.954 51.7087 209.959 51.9773 209.967 52.22C209.985 52.454 210.006 52.662 210.032 52.844C210.05 52.948 210.006 53 209.902 53H209.057ZM206.561 53.156C206.059 53.156 205.673 53.0043 205.404 52.701C205.136 52.389 205.001 51.9427 205.001 51.362C205.001 50.9113 205.088 50.5473 205.261 50.27C205.443 49.984 205.729 49.763 206.119 49.607C206.518 49.4423 207.047 49.334 207.705 49.282L208.914 49.178V50.049L207.718 50.153C207.155 50.205 206.765 50.3133 206.548 50.478C206.332 50.634 206.223 50.8983 206.223 51.271C206.223 51.5483 206.28 51.7607 206.392 51.908C206.514 52.0467 206.691 52.116 206.925 52.116C207.203 52.116 207.489 52.0207 207.783 51.83C208.087 51.6393 208.477 51.297 208.953 50.803L208.979 51.791C208.685 52.1117 208.407 52.3717 208.147 52.571C207.887 52.7703 207.627 52.9177 207.367 53.013C207.116 53.1083 206.847 53.156 206.561 53.156ZM215.012 55.561C214.475 55.561 214.016 55.4787 213.634 55.314C213.262 55.158 212.984 54.937 212.802 54.651C212.629 54.3737 212.564 54.0487 212.607 53.676C212.625 53.5807 212.646 53.5157 212.672 53.481C212.698 53.455 212.733 53.442 212.776 53.442H213.725C213.803 53.442 213.842 53.5113 213.842 53.65C213.842 53.9187 213.942 54.131 214.141 54.287C214.349 54.4517 214.644 54.534 215.025 54.534C215.502 54.534 215.862 54.4213 216.104 54.196C216.347 53.9707 216.468 53.6457 216.468 53.221V52.454C216.468 52.0727 216.343 51.791 216.091 51.609C215.84 51.4183 215.454 51.323 214.934 51.323H213.907C213.864 51.323 213.829 51.31 213.803 51.284C213.777 51.2493 213.764 51.2147 213.764 51.18V50.413C213.764 50.3697 213.777 50.3393 213.803 50.322C213.829 50.296 213.864 50.283 213.907 50.283H214.83C215.281 50.283 215.632 50.166 215.883 49.932C216.143 49.6893 216.273 49.3643 216.273 48.957V48.658C216.273 48.268 216.169 47.9777 215.961 47.787C215.762 47.5963 215.45 47.501 215.025 47.501C214.67 47.501 214.397 47.566 214.206 47.696C214.024 47.826 213.933 48.0123 213.933 48.255C213.933 48.3157 213.92 48.3633 213.894 48.398C213.877 48.4327 213.847 48.45 213.803 48.45H212.854C212.75 48.45 212.694 48.372 212.685 48.216C212.651 47.8693 212.729 47.5703 212.919 47.319C213.119 47.059 213.409 46.8553 213.79 46.708C214.18 46.5607 214.64 46.487 215.168 46.487C215.922 46.487 216.49 46.6517 216.871 46.981C217.261 47.3103 217.456 47.8043 217.456 48.463V48.931C217.456 49.3123 217.361 49.659 217.17 49.971C216.98 50.283 216.707 50.5213 216.351 50.686V50.699C216.811 50.8117 217.149 51.024 217.365 51.336C217.582 51.6393 217.69 52.0033 217.69 52.428V53.091C217.69 53.611 217.586 54.053 217.378 54.417C217.179 54.7897 216.88 55.0713 216.481 55.262C216.083 55.4613 215.593 55.561 215.012 55.561ZM222.326 53.156C221.771 53.156 221.346 52.974 221.052 52.61C220.757 52.2373 220.61 51.7 220.61 50.998V46.773C220.61 46.6863 220.653 46.643 220.74 46.643H221.702C221.797 46.643 221.845 46.6863 221.845 46.773V50.881C221.845 51.2883 221.914 51.5917 222.053 51.791C222.2 51.9817 222.425 52.077 222.729 52.077C223.041 52.077 223.353 51.9817 223.665 51.791C223.977 51.5917 224.358 51.2623 224.809 50.803V51.869C224.54 52.1377 224.267 52.3717 223.99 52.571C223.721 52.7617 223.448 52.9047 223.171 53C222.902 53.104 222.62 53.156 222.326 53.156ZM224.926 53C224.874 53 224.835 52.9913 224.809 52.974C224.783 52.948 224.765 52.9133 224.757 52.87C224.731 52.7053 224.709 52.5363 224.692 52.363C224.674 52.1897 224.661 52.012 224.653 51.83L224.575 51.258V46.773C224.575 46.6863 224.618 46.643 224.705 46.643H225.667C225.762 46.643 225.81 46.6863 225.81 46.773V51.401C225.81 51.6437 225.814 51.8907 225.823 52.142C225.84 52.3847 225.862 52.623 225.888 52.857C225.905 52.9523 225.857 53 225.745 53H224.926ZM233.089 53C232.994 53 232.946 52.9523 232.946 52.857V46.773C232.946 46.6863 232.994 46.643 233.089 46.643H234.051C234.138 46.643 234.181 46.6863 234.181 46.773V52.857C234.181 52.9523 234.138 53 234.051 53H233.089ZM229.098 53C229.012 53 228.968 52.9523 228.968 52.857V46.773C228.968 46.6863 229.012 46.643 229.098 46.643H230.06C230.156 46.643 230.203 46.6863 230.203 46.773V52.857C230.203 52.9523 230.156 53 230.06 53H229.098ZM229.995 50.283V49.23H233.18V50.283H229.995ZM103.471 67.156C102.587 67.156 101.915 66.9393 101.456 66.506C100.997 66.064 100.767 65.4313 100.767 64.608V63.035C100.767 62.2117 101.001 61.5833 101.469 61.15C101.937 60.708 102.613 60.487 103.497 60.487C104.026 60.487 104.476 60.5693 104.849 60.734C105.23 60.8987 105.521 61.124 105.72 61.41C105.919 61.696 106.019 62.0297 106.019 62.411C106.019 62.6017 105.971 62.697 105.876 62.697H104.927C104.892 62.697 104.862 62.6797 104.836 62.645C104.81 62.6103 104.797 62.5627 104.797 62.502C104.797 62.1987 104.68 61.969 104.446 61.813C104.212 61.6483 103.896 61.566 103.497 61.566C102.994 61.566 102.617 61.696 102.366 61.956C102.123 62.2073 102.002 62.606 102.002 63.152V64.491C102.002 65.0283 102.123 65.427 102.366 65.687C102.617 65.947 102.99 66.077 103.484 66.077C103.891 66.077 104.208 65.9903 104.433 65.817C104.667 65.635 104.784 65.414 104.784 65.154C104.784 65.0153 104.827 64.946 104.914 64.946H105.863C105.958 64.946 106.006 64.9893 106.006 65.076C106.006 65.7087 105.789 66.2157 105.356 66.597C104.923 66.9697 104.294 67.156 103.471 67.156ZM109.006 67C108.919 67 108.876 66.9523 108.876 66.857V62.242C108.876 61.9993 108.867 61.7523 108.85 61.501C108.841 61.241 108.819 61.007 108.785 60.799C108.767 60.695 108.815 60.643 108.928 60.643H109.799C109.842 60.643 109.872 60.6473 109.89 60.656C109.916 60.6647 109.933 60.6907 109.942 60.734C109.959 60.864 109.981 61.0027 110.007 61.15C110.033 61.2973 110.05 61.4447 110.059 61.592C110.431 61.2193 110.791 60.942 111.138 60.76C111.484 60.578 111.861 60.487 112.269 60.487C112.711 60.487 113.066 60.5867 113.335 60.786C113.603 60.9853 113.794 61.28 113.907 61.67C114.305 61.2627 114.682 60.9637 115.038 60.773C115.393 60.5823 115.779 60.487 116.195 60.487C116.784 60.487 117.226 60.669 117.521 61.033C117.824 61.3883 117.976 61.9213 117.976 62.632V66.857C117.976 66.9523 117.928 67 117.833 67H116.871C116.784 67 116.741 66.9523 116.741 66.857V62.762C116.741 62.3633 116.667 62.0643 116.52 61.865C116.381 61.6657 116.156 61.566 115.844 61.566C115.566 61.566 115.289 61.6527 115.012 61.826C114.734 61.9907 114.409 62.2463 114.037 62.593V66.857C114.037 66.9523 113.993 67 113.907 67H112.945C112.849 67 112.802 66.9523 112.802 66.857V62.762C112.802 62.3633 112.728 62.0643 112.581 61.865C112.442 61.6657 112.217 61.566 111.905 61.566C111.636 61.566 111.359 61.6527 111.073 61.826C110.795 61.9907 110.475 62.2463 110.111 62.593V66.857C110.111 66.9523 110.063 67 109.968 67H109.006ZM124.083 67.156C123.762 67.156 123.424 67.1127 123.069 67.026C122.713 66.9393 122.427 66.8267 122.211 66.688L122.172 65.661C122.414 65.7997 122.679 65.908 122.965 65.986C123.259 66.0553 123.532 66.09 123.784 66.09C124.26 66.09 124.607 65.9513 124.824 65.674C125.049 65.388 125.162 64.9633 125.162 64.4V62.996C125.162 62.502 125.075 62.1423 124.902 61.917C124.737 61.683 124.481 61.566 124.135 61.566C123.84 61.566 123.541 61.6527 123.238 61.826C122.943 61.9993 122.566 62.2983 122.107 62.723L122.081 61.644C122.367 61.384 122.635 61.1673 122.887 60.994C123.138 60.8207 123.389 60.695 123.641 60.617C123.901 60.5303 124.174 60.487 124.46 60.487C125.101 60.487 125.582 60.682 125.903 61.072C126.232 61.462 126.397 62.06 126.397 62.866V64.543C126.397 65.3923 126.197 66.0423 125.799 66.493C125.409 66.935 124.837 67.156 124.083 67.156ZM121.262 69.405C121.175 69.405 121.132 69.3573 121.132 69.262V62.138C121.132 61.93 121.123 61.7047 121.106 61.462C121.088 61.2193 121.067 60.9983 121.041 60.799C121.032 60.695 121.075 60.643 121.171 60.643H122.055C122.15 60.643 122.202 60.6863 122.211 60.773C122.228 60.8337 122.245 60.9203 122.263 61.033C122.28 61.1457 122.293 61.2583 122.302 61.371C122.31 61.475 122.31 61.553 122.302 61.605L122.367 62.281V69.262C122.367 69.3573 122.319 69.405 122.224 69.405H121.262ZM131.988 67.156C131.104 67.156 130.428 66.9437 129.96 66.519C129.492 66.0857 129.258 65.4313 129.258 64.556V63.087C129.258 62.2117 129.487 61.5617 129.947 61.137C130.415 60.7037 131.095 60.487 131.988 60.487C132.88 60.487 133.561 60.7037 134.029 61.137C134.497 61.5617 134.731 62.2117 134.731 63.087V64.556C134.731 65.4313 134.497 66.0857 134.029 66.519C133.569 66.9437 132.889 67.156 131.988 67.156ZM131.988 66.077C132.516 66.077 132.898 65.9427 133.132 65.674C133.374 65.4053 133.496 64.9937 133.496 64.439V63.191C133.496 62.645 133.374 62.2377 133.132 61.969C132.898 61.7003 132.516 61.566 131.988 61.566C131.459 61.566 131.078 61.7003 130.844 61.969C130.61 62.2377 130.493 62.645 130.493 63.191V64.439C130.493 64.9937 130.61 65.4053 130.844 65.674C131.078 65.9427 131.459 66.077 131.988 66.077ZM139.438 67.156C138.883 67.156 138.459 66.974 138.164 66.61C137.869 66.2373 137.722 65.7 137.722 64.998V60.773C137.722 60.6863 137.765 60.643 137.852 60.643H138.814C138.909 60.643 138.957 60.6863 138.957 60.773V64.881C138.957 65.2883 139.026 65.5917 139.165 65.791C139.312 65.9817 139.538 66.077 139.841 66.077C140.153 66.077 140.465 65.9817 140.777 65.791C141.089 65.5917 141.47 65.2623 141.921 64.803V65.869C141.652 66.1377 141.379 66.3717 141.102 66.571C140.833 66.7617 140.56 66.9047 140.283 67C140.014 67.104 139.733 67.156 139.438 67.156ZM142.038 67C141.986 67 141.947 66.9913 141.921 66.974C141.895 66.948 141.878 66.9133 141.869 66.87C141.843 66.7053 141.821 66.5363 141.804 66.363C141.787 66.1897 141.774 66.012 141.765 65.83L141.687 65.258V60.773C141.687 60.6863 141.73 60.643 141.817 60.643H142.779C142.874 60.643 142.922 60.6863 142.922 60.773V65.401C142.922 65.6437 142.926 65.8907 142.935 66.142C142.952 66.3847 142.974 66.623 143 66.857C143.017 66.9523 142.97 67 142.857 67H142.038ZM140.322 59.772C140.027 59.772 139.772 59.733 139.555 59.655C139.347 59.5683 139.174 59.4773 139.035 59.382C138.905 59.278 138.805 59.1913 138.736 59.122C138.701 59.0873 138.684 59.0353 138.684 58.966V58.212C138.684 58.16 138.697 58.1253 138.723 58.108C138.749 58.082 138.788 58.0907 138.84 58.134C138.961 58.2553 139.152 58.394 139.412 58.55C139.672 58.706 139.975 58.784 140.322 58.784C140.677 58.784 140.985 58.706 141.245 58.55C141.505 58.394 141.691 58.2553 141.804 58.134C141.856 58.0907 141.895 58.082 141.921 58.108C141.947 58.1253 141.96 58.16 141.96 58.212V58.966C141.96 59.0007 141.956 59.031 141.947 59.057C141.938 59.083 141.925 59.109 141.908 59.135C141.839 59.1957 141.735 59.278 141.596 59.382C141.466 59.4773 141.297 59.5683 141.089 59.655C140.881 59.733 140.625 59.772 140.322 59.772ZM150.098 67C150.011 67 149.968 66.9523 149.968 66.857L150.072 60.773C150.072 60.6863 150.119 60.643 150.215 60.643H151.242C151.302 60.643 151.35 60.6777 151.385 60.747L153.244 64.387L155.09 60.747C155.133 60.6777 155.185 60.643 155.246 60.643H156.273C156.368 60.643 156.416 60.6863 156.416 60.773L156.52 66.857C156.52 66.9523 156.472 67 156.377 67H155.48C155.384 67 155.337 66.9523 155.337 66.857L155.311 63.932C155.311 63.8107 155.315 63.6633 155.324 63.49C155.332 63.3167 155.341 63.1347 155.35 62.944C155.367 62.7533 155.38 62.58 155.389 62.424H155.35C155.263 62.6407 155.172 62.8487 155.077 63.048C154.981 63.2387 154.89 63.412 154.804 63.568L153.361 66.168C153.352 66.1853 153.335 66.2027 153.309 66.22C153.291 66.2287 153.27 66.233 153.244 66.233C153.218 66.233 153.196 66.2287 153.179 66.22C153.161 66.2113 153.144 66.194 153.127 66.168L151.671 63.568C151.593 63.412 151.506 63.2387 151.411 63.048C151.324 62.8487 151.233 62.6407 151.138 62.424H151.099C151.107 62.58 151.116 62.7533 151.125 62.944C151.133 63.1347 151.142 63.3167 151.151 63.49C151.159 63.6633 151.164 63.8107 151.164 63.932L151.151 66.857C151.151 66.9523 151.103 67 151.008 67H150.098ZM163.278 67C163.226 67 163.187 66.9827 163.161 66.948C163.144 66.9133 163.126 66.87 163.109 66.818C163.1 66.7487 163.079 66.6013 163.044 66.376C163.018 66.1507 163.001 65.947 162.992 65.765L162.94 65.258V62.671C162.94 62.255 162.858 61.9603 162.693 61.787C162.528 61.6137 162.238 61.527 161.822 61.527C161.077 61.527 160.708 61.787 160.717 62.307C160.717 62.4023 160.674 62.45 160.587 62.45H159.638C159.543 62.45 159.491 62.3677 159.482 62.203C159.439 61.683 159.634 61.267 160.067 60.955C160.5 60.643 161.098 60.487 161.861 60.487C162.65 60.487 163.23 60.6647 163.603 61.02C163.984 61.3753 164.175 61.9213 164.175 62.658V65.414C164.175 65.7087 164.179 65.9773 164.188 66.22C164.205 66.454 164.227 66.662 164.253 66.844C164.27 66.948 164.227 67 164.123 67H163.278ZM160.782 67.156C160.279 67.156 159.894 67.0043 159.625 66.701C159.356 66.389 159.222 65.9427 159.222 65.362C159.222 64.9113 159.309 64.5473 159.482 64.27C159.664 63.984 159.95 63.763 160.34 63.607C160.739 63.4423 161.267 63.334 161.926 63.282L163.135 63.178V64.049L161.939 64.153C161.376 64.205 160.986 64.3133 160.769 64.478C160.552 64.634 160.444 64.8983 160.444 65.271C160.444 65.5483 160.5 65.7607 160.613 65.908C160.734 66.0467 160.912 66.116 161.146 66.116C161.423 66.116 161.709 66.0207 162.004 65.83C162.307 65.6393 162.697 65.297 163.174 64.803L163.2 65.791C162.905 66.1117 162.628 66.3717 162.368 66.571C162.108 66.7703 161.848 66.9177 161.588 67.013C161.337 67.1083 161.068 67.156 160.782 67.156ZM167.465 67C167.378 67 167.335 66.9523 167.335 66.857V62.242C167.335 61.9993 167.326 61.7523 167.309 61.501C167.3 61.241 167.279 61.007 167.244 60.799C167.227 60.695 167.274 60.643 167.387 60.643H168.258C168.301 60.643 168.332 60.6473 168.349 60.656C168.375 60.6647 168.392 60.6907 168.401 60.734C168.418 60.864 168.44 61.0027 168.466 61.15C168.492 61.2973 168.509 61.4447 168.518 61.592C168.891 61.2193 169.25 60.942 169.597 60.76C169.944 60.578 170.321 60.487 170.728 60.487C171.17 60.487 171.525 60.5867 171.794 60.786C172.063 60.9853 172.253 61.28 172.366 61.67C172.765 61.2627 173.142 60.9637 173.497 60.773C173.852 60.5823 174.238 60.487 174.654 60.487C175.243 60.487 175.685 60.669 175.98 61.033C176.283 61.3883 176.435 61.9213 176.435 62.632V66.857C176.435 66.9523 176.387 67 176.292 67H175.33C175.243 67 175.2 66.9523 175.2 66.857V62.762C175.2 62.3633 175.126 62.0643 174.979 61.865C174.84 61.6657 174.615 61.566 174.303 61.566C174.026 61.566 173.748 61.6527 173.471 61.826C173.194 61.9907 172.869 62.2463 172.496 62.593V66.857C172.496 66.9523 172.453 67 172.366 67H171.404C171.309 67 171.261 66.9523 171.261 66.857V62.762C171.261 62.3633 171.187 62.0643 171.04 61.865C170.901 61.6657 170.676 61.566 170.364 61.566C170.095 61.566 169.818 61.6527 169.532 61.826C169.255 61.9907 168.934 62.2463 168.57 62.593V66.857C168.57 66.9523 168.522 67 168.427 67H167.465ZM182.074 67.156C181.207 67.156 180.549 66.9567 180.098 66.558C179.647 66.1593 179.422 65.5743 179.422 64.803V63.035C179.422 62.203 179.643 61.5703 180.085 61.137C180.536 60.7037 181.194 60.487 182.061 60.487C182.928 60.487 183.582 60.6993 184.024 61.124C184.475 61.5487 184.7 62.164 184.7 62.97V63.984C184.7 64.0707 184.657 64.114 184.57 64.114H180.644V64.53C180.644 65.076 180.761 65.4747 180.995 65.726C181.229 65.9773 181.606 66.103 182.126 66.103C182.516 66.103 182.815 66.0423 183.023 65.921C183.24 65.791 183.348 65.6003 183.348 65.349C183.348 65.2537 183.396 65.206 183.491 65.206H184.453C184.522 65.206 184.566 65.245 184.583 65.323C184.618 65.9037 184.41 66.3543 183.959 66.675C183.517 66.9957 182.889 67.156 182.074 67.156ZM180.644 63.139H183.478V63.074C183.478 62.5453 183.361 62.1597 183.127 61.917C182.893 61.6657 182.546 61.54 182.087 61.54C181.602 61.54 181.238 61.67 180.995 61.93C180.761 62.1813 180.644 62.567 180.644 63.087V63.139ZM190.634 67.156C190.313 67.156 189.975 67.1127 189.62 67.026C189.265 66.9393 188.979 66.8267 188.762 66.688L188.723 65.661C188.966 65.7997 189.23 65.908 189.516 65.986C189.811 66.0553 190.084 66.09 190.335 66.09C190.812 66.09 191.158 65.9513 191.375 65.674C191.6 65.388 191.713 64.9633 191.713 64.4V62.996C191.713 62.502 191.626 62.1423 191.453 61.917C191.288 61.683 191.033 61.566 190.686 61.566C190.391 61.566 190.092 61.6527 189.789 61.826C189.494 61.9993 189.117 62.2983 188.658 62.723L188.632 61.644C188.918 61.384 189.187 61.1673 189.438 60.994C189.689 60.8207 189.941 60.695 190.192 60.617C190.452 60.5303 190.725 60.487 191.011 60.487C191.652 60.487 192.133 60.682 192.454 61.072C192.783 61.462 192.948 62.06 192.948 62.866V64.543C192.948 65.3923 192.749 66.0423 192.35 66.493C191.96 66.935 191.388 67.156 190.634 67.156ZM187.813 69.405C187.726 69.405 187.683 69.3573 187.683 69.262V62.138C187.683 61.93 187.674 61.7047 187.657 61.462C187.64 61.2193 187.618 60.9983 187.592 60.799C187.583 60.695 187.627 60.643 187.722 60.643H188.606C188.701 60.643 188.753 60.6863 188.762 60.773C188.779 60.8337 188.797 60.9203 188.814 61.033C188.831 61.1457 188.844 61.2583 188.853 61.371C188.862 61.475 188.862 61.553 188.853 61.605L188.918 62.281V69.262C188.918 69.3573 188.87 69.405 188.775 69.405H187.813ZM197.694 67.156C197.14 67.156 196.715 66.974 196.42 66.61C196.126 66.2373 195.978 65.7 195.978 64.998V60.773C195.978 60.6863 196.022 60.643 196.108 60.643H197.07C197.166 60.643 197.213 60.6863 197.213 60.773V64.881C197.213 65.2883 197.283 65.5917 197.421 65.791C197.569 65.9817 197.794 66.077 198.097 66.077C198.409 66.077 198.721 65.9817 199.033 65.791C199.345 65.5917 199.727 65.2623 200.177 64.803V65.869C199.909 66.1377 199.636 66.3717 199.358 66.571C199.09 66.7617 198.817 66.9047 198.539 67C198.271 67.104 197.989 67.156 197.694 67.156ZM200.294 67C200.242 67 200.203 66.9913 200.177 66.974C200.151 66.948 200.134 66.9133 200.125 66.87C200.099 66.7053 200.078 66.5363 200.06 66.363C200.043 66.1897 200.03 66.012 200.021 65.83L199.943 65.258V60.773C199.943 60.6863 199.987 60.643 200.073 60.643H201.035C201.131 60.643 201.178 60.6863 201.178 60.773V65.401C201.178 65.6437 201.183 65.8907 201.191 66.142C201.209 66.3847 201.23 66.623 201.256 66.857C201.274 66.9523 201.226 67 201.113 67H200.294ZM208.042 67C207.99 67 207.951 66.9827 207.925 66.948C207.907 66.9133 207.89 66.87 207.873 66.818C207.864 66.7487 207.842 66.6013 207.808 66.376C207.782 66.1507 207.764 65.947 207.756 65.765L207.704 65.258V62.671C207.704 62.255 207.621 61.9603 207.457 61.787C207.292 61.6137 207.002 61.527 206.586 61.527C205.84 61.527 205.472 61.787 205.481 62.307C205.481 62.4023 205.437 62.45 205.351 62.45H204.402C204.306 62.45 204.254 62.3677 204.246 62.203C204.202 61.683 204.397 61.267 204.831 60.955C205.264 60.643 205.862 60.487 206.625 60.487C207.413 60.487 207.994 60.6647 208.367 61.02C208.748 61.3753 208.939 61.9213 208.939 62.658V65.414C208.939 65.7087 208.943 65.9773 208.952 66.22C208.969 66.454 208.991 66.662 209.017 66.844C209.034 66.948 208.991 67 208.887 67H208.042ZM205.546 67.156C205.043 67.156 204.657 67.0043 204.389 66.701C204.12 66.389 203.986 65.9427 203.986 65.362C203.986 64.9113 204.072 64.5473 204.246 64.27C204.428 63.984 204.714 63.763 205.104 63.607C205.502 63.4423 206.031 63.334 206.69 63.282L207.899 63.178V64.049L206.703 64.153C206.139 64.205 205.749 64.3133 205.533 64.478C205.316 64.634 205.208 64.8983 205.208 65.271C205.208 65.5483 205.264 65.7607 205.377 65.908C205.498 66.0467 205.676 66.116 205.91 66.116C206.187 66.116 206.473 66.0207 206.768 65.83C207.071 65.6393 207.461 65.297 207.938 64.803L207.964 65.791C207.669 66.1117 207.392 66.3717 207.132 66.571C206.872 66.7703 206.612 66.9177 206.352 67.013C206.1 67.1083 205.832 67.156 205.546 67.156ZM211.332 67C211.219 67 211.184 66.9437 211.228 66.831L213.438 60.825C213.472 60.7037 213.546 60.643 213.659 60.643H214.686C214.79 60.643 214.863 60.7037 214.907 60.825L217.104 66.831C217.147 66.9437 217.112 67 217 67H215.973C215.903 67 215.856 66.961 215.83 66.883L214.686 63.503C214.599 63.2517 214.512 63.0047 214.426 62.762C214.339 62.5107 214.257 62.2593 214.179 62.008H214.153C214.083 62.268 214.005 62.5237 213.919 62.775C213.841 63.0177 213.754 63.269 213.659 63.529L212.502 66.883C212.476 66.961 212.428 67 212.359 67H211.332ZM221.952 67.156C221.068 67.156 220.392 66.9437 219.924 66.519C219.456 66.0857 219.222 65.4313 219.222 64.556V63.087C219.222 62.2117 219.452 61.5617 219.911 61.137C220.379 60.7037 221.059 60.487 221.952 60.487C222.845 60.487 223.525 60.7037 223.993 61.137C224.461 61.5617 224.695 62.2117 224.695 63.087V64.556C224.695 65.4313 224.461 66.0857 223.993 66.519C223.534 66.9437 222.853 67.156 221.952 67.156ZM221.952 66.077C222.481 66.077 222.862 65.9427 223.096 65.674C223.339 65.4053 223.46 64.9937 223.46 64.439V63.191C223.46 62.645 223.339 62.2377 223.096 61.969C222.862 61.7003 222.481 61.566 221.952 61.566C221.423 61.566 221.042 61.7003 220.808 61.969C220.574 62.2377 220.457 62.645 220.457 63.191V64.439C220.457 64.9937 220.574 65.4053 220.808 65.674C221.042 65.9427 221.423 66.077 221.952 66.077ZM230.234 67.156C229.385 67.156 228.743 66.9437 228.31 66.519C227.885 66.0943 227.673 65.4573 227.673 64.608V60.318C227.673 59.8067 227.768 59.3777 227.959 59.031C228.15 58.6843 228.436 58.42 228.817 58.238C229.198 58.056 229.675 57.965 230.247 57.965C231.027 57.965 231.608 58.1253 231.989 58.446C232.37 58.7667 232.561 59.2433 232.561 59.876C232.561 60.344 232.466 60.7513 232.275 61.098C232.084 61.4447 231.824 61.6873 231.495 61.826V61.839C232.032 61.9257 232.414 62.1423 232.639 62.489C232.873 62.8357 232.99 63.295 232.99 63.867V64.491C232.99 65.3663 232.752 66.0293 232.275 66.48C231.807 66.9307 231.127 67.156 230.234 67.156ZM230.273 66.077C230.776 66.077 231.148 65.9427 231.391 65.674C231.634 65.4053 231.755 65.0023 231.755 64.465V63.802C231.755 63.386 231.66 63.0827 231.469 62.892C231.287 62.7013 230.997 62.606 230.598 62.606C230.451 62.606 230.286 62.619 230.104 62.645C229.922 62.6623 229.731 62.6927 229.532 62.736C229.333 62.7793 229.12 62.8357 228.895 62.905V64.504C228.895 65.05 229.003 65.4487 229.22 65.7C229.437 65.9513 229.788 66.077 230.273 66.077ZM228.895 61.956L229.883 61.761C230.325 61.6657 230.676 61.4967 230.936 61.254C231.205 61.0113 231.339 60.6517 231.339 60.175C231.339 59.7677 231.244 59.473 231.053 59.291C230.871 59.109 230.581 59.018 230.182 59.018C229.766 59.018 229.445 59.122 229.22 59.33C229.003 59.538 228.895 59.8457 228.895 60.253V61.956Z" fill="white"/>
</svg>
